<svg width="48" height="48" viewBox="0 0 48 48" fill="none" xmlns="http://www.w3.org/2000/svg">
<path fill-rule="evenodd" clip-rule="evenodd" d="M12.5019 18.7884C12.8234 18.467 13.2594 18.2864 13.7139 18.2864C14.1685 18.2864 14.6044 18.467 14.9259 18.7884L23.9996 27.8621L33.0733 18.7884C33.2315 18.6246 33.4206 18.494 33.6298 18.4042C33.8389 18.3143 34.0639 18.2671 34.2915 18.2651C34.5191 18.2631 34.7449 18.3065 34.9556 18.3927C35.1662 18.4789 35.3576 18.6062 35.5186 18.7671C35.6796 18.9281 35.8068 19.1195 35.893 19.3302C35.9792 19.5408 36.0226 19.7666 36.0206 19.9942C36.0187 20.2218 35.9714 20.4468 35.8815 20.6559C35.7917 20.8651 35.6611 21.0542 35.4973 21.2124L25.2116 31.4981C24.8902 31.8195 24.4542 32 23.9996 32C23.5451 32 23.1091 31.8195 22.7876 31.4981L12.5019 21.2124C12.1805 20.8909 12 20.4549 12 20.0004C12 19.5458 12.1805 19.1098 12.5019 18.7884Z" fill="black"/>
</svg>
