<svg width="48" height="48" viewBox="0 0 48 48" fill="none" xmlns="http://www.w3.org/2000/svg">
<path d="M45.9522 23.274H42.649V21.7369C42.649 18.2458 39.8207 15.4175 36.3297 15.4175C32.8386 15.4175 30.0103 18.2458 30.0103 21.7369V23.274H26.6354L30.6251 45.9999H41.959L45.9488 23.274H45.9522ZM33.0846 21.7369C33.0846 19.9435 34.5363 18.4918 36.3297 18.4918C38.123 18.4918 39.5747 19.9435 39.5747 21.7369V23.274H33.0846V21.7369ZM30.2221 26.3483H42.3723L39.3903 42.9256H33.1973L30.2186 26.3483H30.2221Z" fill="black"/>
<path d="M32.0598 20.7874V17.7131H26.1161V10.0786C26.1161 5.61743 22.4987 2 18.0376 2C13.5764 2 9.95898 5.61743 9.95898 10.0786V17.7131H2V46H31.035V42.9257H26.1161V20.7874H32.0598ZM18.0376 5.0743C20.801 5.0743 23.0418 7.31512 23.0418 10.0786V17.7131H13.0333V10.0786C13.0333 7.31512 15.2741 5.0743 18.0376 5.0743ZM5.0743 42.9257V20.7874H9.95898V42.9257H5.0743ZM23.0418 42.9257H13.0333V20.7874H23.0418V42.9257Z" fill="black"/>
</svg>
