<svg width="37" height="37" viewBox="0 0 37 37" fill="none" xmlns="http://www.w3.org/2000/svg">
<path d="M36.6269 17.7284H33.8743V16.4474C33.8743 13.5382 31.5173 11.1813 28.6081 11.1813C25.6989 11.1813 23.342 13.5382 23.342 16.4474V17.7284H20.5295L23.8543 36.6666H33.2992L36.624 17.7284H36.6269ZM25.9039 16.4474C25.9039 14.953 27.1137 13.7432 28.6081 13.7432C30.1026 13.7432 31.3123 14.953 31.3123 16.4474V17.7284H25.9039V16.4474ZM23.5184 20.2903H33.6437L31.1586 34.1047H25.9978L23.5156 20.2903H23.5184Z" fill="#007131"/>
<path d="M25.0498 15.6561V13.0942H20.0968V6.73215C20.0968 3.01452 17.0823 0 13.3646 0C9.64701 0 6.63249 3.01452 6.63249 6.73215V13.0942H0V36.6667H24.1958V34.1048H20.0968V15.6561H25.0498ZM13.3646 2.56191C15.6675 2.56191 17.5349 4.42927 17.5349 6.73215V13.0942H9.1944V6.73215C9.1944 4.42927 11.0618 2.56191 13.3646 2.56191ZM2.56191 34.1048V15.6561H6.63249V34.1048H2.56191ZM17.5349 34.1048H9.1944V15.6561H17.5349V34.1048Z" fill="#007131"/>
</svg>
