<svg width="48" height="48" viewBox="0 0 48 48" fill="none" xmlns="http://www.w3.org/2000/svg">
<g clip-path="url(#clip0_1696_3508)">
<path d="M30.3409 6.39984C30.4481 6.07428 30.5094 5.72956 30.5094 5.37335V3.28972C30.5094 1.47804 29.0348 0.00341797 27.2231 0.00341797H20.7845C18.9729 0.00341797 17.4982 1.47804 17.4982 3.28972V5.37335C17.4982 5.73339 17.5595 6.07811 17.6668 6.39984C15.4989 7.76339 14.0587 10.1649 14.0587 12.8997V47.9996H33.9413V12.8997C33.9413 10.1649 32.5011 7.76339 30.3409 6.39984ZM20.9416 5.21248V3.44676H27.0622V5.21248H20.9416ZM17.5059 16.726H30.4941V22.5403H17.5059V16.726ZM30.4941 44.5524H17.5059V25.9836H30.4941V44.5524ZM17.5059 13.2789V12.9035C17.5059 10.5671 19.4095 8.66349 21.7459 8.66349H26.2541C28.5905 8.66349 30.4941 10.5671 30.4941 12.9035V13.2789H17.5059Z" fill="black"/>
</g>
<defs>
<clipPath id="clip0_1696_3508">
<rect width="19.8825" height="48" fill="white" transform="translate(14.0587)"/>
</clipPath>
</defs>
</svg>
