<svg width="48" height="48" viewBox="0 0 48 48" fill="none" xmlns="http://www.w3.org/2000/svg">
<g clip-path="url(#clip0_471_1198)">
<path d="M29.5685 9.33377C29.6578 9.06247 29.7089 8.7752 29.7089 8.47836V6.74201C29.7089 5.23227 28.4801 4.00342 26.9703 4.00342H21.6049C20.0951 4.00342 18.8663 5.23227 18.8663 6.74201V8.47836C18.8663 8.77839 18.9173 9.06566 19.0067 9.33377C17.2001 10.4701 16 12.4713 16 14.7503V44.0002H32.5688V14.7503C32.5688 12.4713 31.3687 10.4701 29.5685 9.33377ZM21.7357 8.34431V6.87287H26.8363V8.34431H21.7357ZM18.8726 17.9389H29.6961V22.7841H18.8726V17.9389ZM29.6961 41.1276H18.8726V25.6536H29.6961V41.1276ZM18.8726 15.0663V14.7535C18.8726 12.8065 20.459 11.2201 22.406 11.2201H26.1628C28.1098 11.2201 29.6961 12.8065 29.6961 14.7535V15.0663H18.8726Z" fill="black"/>
</g>
<defs>
<clipPath id="clip0_471_1198">
<rect width="16.5688" height="40" fill="white" transform="translate(16 4)"/>
</clipPath>
</defs>
</svg>
