<svg width="17" height="40" viewBox="0 0 17 40" fill="none" xmlns="http://www.w3.org/2000/svg">
<path d="M13.5685 5.33035C13.6578 5.05905 13.7089 4.77178 13.7089 4.47494V2.73859C13.7089 1.22885 12.4801 0 10.9703 0H5.60485C4.09512 0 2.86626 1.22885 2.86626 2.73859V4.47494C2.86626 4.77498 2.91733 5.06224 3.0067 5.33035C1.20013 6.46664 0 8.46792 0 10.7469V39.9968H16.5688V10.7469C16.5688 8.46792 15.3687 6.46664 13.5685 5.33035ZM5.73572 4.34089V2.86945H10.8363V4.34089H5.73572ZM2.87265 13.9355H13.6961V18.7807H2.87265V13.9355ZM13.6961 37.1242H2.87265V21.6502H13.6961V37.1242ZM2.87265 11.0629V10.7501C2.87265 8.80306 4.45899 7.21672 6.406 7.21672H10.1628C12.1098 7.21672 13.6961 8.80306 13.6961 10.7501V11.0629H2.87265Z" fill="#532A1C"/>
</svg>
