<svg width="176" height="175" viewBox="0 0 176 175" fill="none" xmlns="http://www.w3.org/2000/svg">
<path d="M88 14.5835C128.104 14.5835 160.917 47.396 160.917 87.5002C160.917 127.604 128.104 160.417 88 160.417C47.8959 160.417 15.0834 127.604 15.0834 87.5002C15.0834 47.396 47.8959 14.5835 88 14.5835ZM88 29.1668C74.1459 29.1668 61.75 33.5418 52.2709 41.5627L133.938 123.229C141.229 113.021 146.333 100.625 146.333 87.5002C146.333 55.4168 120.083 29.1668 88 29.1668ZM123.729 133.438L42.0625 51.771C34.0417 61.2502 29.6667 73.646 29.6667 87.5002C29.6667 119.584 55.9167 145.833 88 145.833C101.854 145.833 114.25 141.458 123.729 133.438Z" fill="black"/>
</svg>
