<svg width="44" height="44" viewBox="0 0 44 44" fill="none" xmlns="http://www.w3.org/2000/svg">
<path fill-rule="evenodd" clip-rule="evenodd" d="M36.0532 7.94728C36.446 8.34056 36.6667 8.8739 36.6667 9.43C36.6667 9.9861 36.446 10.5194 36.0532 10.9127L10.9094 36.079C10.5142 36.461 9.9849 36.6724 9.43551 36.6676C8.88612 36.6629 8.36059 36.4423 7.9721 36.0535C7.58361 35.6646 7.36325 35.1386 7.35848 34.5887C7.3537 34.0389 7.5649 33.5091 7.94658 33.1136L33.0904 7.94728C33.4833 7.55412 34.0162 7.33325 34.5718 7.33325C35.1274 7.33325 35.6603 7.55412 36.0532 7.94728Z" fill="black"/>
<path fill-rule="evenodd" clip-rule="evenodd" d="M7.94673 7.94728C8.33966 7.55412 8.87252 7.33325 9.42812 7.33325C9.98373 7.33325 10.5166 7.55412 10.9095 7.94728L36.0533 33.1136C36.435 33.5091 36.6462 34.0389 36.6414 34.5887C36.6367 35.1386 36.4163 35.6646 36.0278 36.0535C35.6393 36.4423 35.1138 36.6629 34.5644 36.6676C34.015 36.6724 33.4857 36.461 33.0906 36.079L7.94673 10.9127C7.55392 10.5194 7.33325 9.9861 7.33325 9.43C7.33325 8.8739 7.55392 8.34056 7.94673 7.94728Z" fill="black"/>
</svg>
