<svg width="44" height="45" viewBox="0 0 44 45" fill="none" xmlns="http://www.w3.org/2000/svg">
<path fill-rule="evenodd" clip-rule="evenodd" d="M36.949 10.7922C37.2834 11.1267 37.4713 11.5803 37.4713 12.0533C37.4713 12.5262 37.2834 12.9798 36.949 13.3143L17.3289 32.9344C16.9945 33.2688 16.5409 33.4567 16.0679 33.4567C15.5949 33.4567 15.1413 33.2688 14.8069 32.9344L5.88863 24.0162C5.56372 23.6798 5.38394 23.2292 5.38801 22.7616C5.39207 22.2939 5.57965 21.8466 5.91036 21.5159C6.24106 21.1852 6.68842 20.9976 7.15609 20.9935C7.62375 20.9894 8.07431 21.1692 8.41071 21.4941L16.0679 29.1513L34.427 10.7922C34.7614 10.4579 35.215 10.27 35.688 10.27C36.161 10.27 36.6146 10.4579 36.949 10.7922Z" fill="black"/>
</svg>
