<svg width="26" height="27" viewBox="0 0 26 27" fill="none" xmlns="http://www.w3.org/2000/svg">
<path d="M22.1708 21.9649H3.8357C2.32837 21.9649 1.1029 20.7394 1.1029 19.2321V16.8629C1.1029 16.6198 1.1989 16.3849 1.37251 16.2134L2.75116 14.8347C3.01668 14.5692 3.16169 14.2179 3.16169 13.8421C3.16169 13.4663 3.01668 13.115 2.75116 12.8495L1.34187 11.4402C1.1703 11.2686 1.07227 11.0337 1.07227 10.7907V7.8332C1.07431 6.32996 2.29978 5.10449 3.8071 5.10449H21.6418C23.1491 5.10449 24.3746 6.32996 24.3746 7.83729V11.0235C24.3746 11.2666 24.2786 11.5014 24.105 11.673L23.1654 12.6125C22.8999 12.8781 22.7549 13.2294 22.7549 13.6052C22.7549 13.981 22.8999 14.3323 23.1654 14.5978L24.636 16.0684C24.8076 16.2399 24.9056 16.4748 24.9056 16.7179V19.2321C24.9056 20.7394 23.6801 21.9649 22.1728 21.9649H22.1708ZM2.94111 17.2448V19.2321C2.94111 19.7243 3.34143 20.1267 3.8357 20.1267H22.1708C22.663 20.1267 23.0654 19.7264 23.0654 19.2321V17.0978L21.8644 15.8968C20.6001 14.6325 20.6001 12.5758 21.8644 11.3135L22.5364 10.6416V7.83525C22.5364 7.34302 22.136 6.94065 21.6418 6.94065H3.8071C3.31487 6.94065 2.91251 7.34097 2.91251 7.83525V10.4108L4.0522 11.5505C5.31647 12.8147 5.31647 14.8715 4.0522 16.1337L2.94315 17.2428L2.94111 17.2448Z" fill="black"/>
<path d="M9.5485 17.7061C9.31361 17.7061 9.07873 17.6162 8.899 17.4365C8.53953 17.077 8.53953 16.4949 8.899 16.1375L15.4348 9.60163C15.7943 9.24216 16.3764 9.24216 16.7338 9.60163C17.0933 9.96111 17.0933 10.5432 16.7338 10.9006L10.198 17.4365C10.0183 17.6162 9.78338 17.7061 9.5485 17.7061Z" fill="black"/>
<path d="M9.89373 13.2494C8.62332 13.2494 7.58984 12.2159 7.58984 10.9455C7.58984 9.67508 8.62332 8.6416 9.89373 8.6416C11.1641 8.6416 12.1976 9.67508 12.1976 10.9455C12.1976 12.2159 11.1641 13.2494 9.89373 13.2494ZM9.89373 10.4798C9.63638 10.4798 9.42805 10.6881 9.42805 10.9455C9.42805 11.2028 9.63638 11.4112 9.89373 11.4112C10.1511 11.4112 10.3594 11.2028 10.3594 10.9455C10.3594 10.6881 10.1511 10.4798 9.89373 10.4798Z" fill="black"/>
<path d="M16.0822 18.4291C14.8118 18.4291 13.7783 17.3956 13.7783 16.1252C13.7783 14.8548 14.8118 13.8213 16.0822 13.8213C17.3526 13.8213 18.3861 14.8548 18.3861 16.1252C18.3861 17.3956 17.3526 18.4291 16.0822 18.4291ZM16.0822 15.6574C15.8249 15.6574 15.6165 15.8658 15.6165 16.1231C15.6165 16.3805 15.8249 16.5888 16.0822 16.5888C16.3396 16.5888 16.5479 16.3805 16.5479 16.1231C16.5479 15.8658 16.3396 15.6574 16.0822 15.6574Z" fill="black"/>
</svg>
