<svg width="45" height="44" viewBox="0 0 45 44" fill="none" xmlns="http://www.w3.org/2000/svg">
<g clip-path="url(#clip0_1011_396)">
<path d="M38.9999 7.3335H5.99992C3.97487 7.3335 2.33325 8.97512 2.33325 11.0002V33.0002C2.33325 35.0252 3.97487 36.6668 5.99992 36.6668H38.9999C41.025 36.6668 42.6666 35.0252 42.6666 33.0002V11.0002C42.6666 8.97512 41.025 7.3335 38.9999 7.3335Z" stroke="#1963A2" stroke-width="4" stroke-linecap="round" stroke-linejoin="round"/>
<path d="M2.33325 29.3335H42.6666" stroke="#1963A2" stroke-width="4" stroke-linecap="round" stroke-linejoin="round"/>
<path d="M29.8333 13.7502C29.8333 13.2439 30.2437 12.8335 30.7499 12.8335H36.2499C36.7562 12.8335 37.1666 13.2439 37.1666 13.7502V19.2502C37.1666 19.7564 36.7562 20.1668 36.2499 20.1668H30.7499C30.2437 20.1668 29.8333 19.7564 29.8333 19.2502V13.7502Z" fill="#1963A2"/>
</g>
<defs>
<clipPath id="clip0_1011_396">
<rect width="44" height="44" fill="white" transform="translate(0.5)"/>
</clipPath>
</defs>
</svg>
