<svg width="24" height="24" viewBox="0 0 24 24" fill="none" xmlns="http://www.w3.org/2000/svg">
<g clip-path="url(#clip0_2122_1396)">
<path d="M23.2149 13.7533C22.971 13.2501 22.7329 12.7489 22.4737 12.2457C22.3815 12.0671 22.3815 11.9308 22.4717 11.7541C23.4416 9.96618 24.3461 8.15712 22.1645 6.86466C21.6978 6.61116 21.1485 6.31541 20.5974 6.03695C20.4361 5.95437 20.3612 5.85258 20.3324 5.67014C20.2536 5.18619 20.1653 4.66959 20.0462 3.99359C19.8042 2.52637 18.604 1.68522 17.2059 1.87918C16.7008 1.94064 16.1496 2.02129 15.4698 2.12884C15.3027 2.15764 15.1664 2.12884 15.0396 1.99825C14.1197 1.22047 13.6627 0.258325 12.2415 0.014428C11.3466 -0.10464 10.4133 0.538709 10.0081 1.0073C9.67006 1.35682 9.30708 1.6833 8.9614 2.02514C8.8577 2.12884 8.75207 2.15765 8.62148 2.13652C7.89555 2.05202 7.16196 1.88686 6.43027 1.85037C5.19158 1.85037 4.26401 2.63392 4.00859 3.89565C3.90296 4.41417 3.80308 4.9807 3.70322 5.62789C3.67057 5.8449 3.59183 5.95821 3.41515 6.04655C1.58689 6.91843 -0.216399 7.84217 0.787994 10.1851C1.03189 10.6979 1.28154 11.2241 1.55041 11.7388C1.64835 11.9289 1.64834 12.071 1.54656 12.265C1.28346 12.7643 1.04533 13.2751 0.803349 13.7763C0.11583 15.1667 0.686197 16.5994 2.07084 17.2427C2.51638 17.4828 2.97729 17.7305 3.4382 17.9648C3.83957 18.1953 3.71092 18.7772 3.83959 19.169C4.21407 22.4395 5.95398 22.3569 8.66757 21.8614C8.80008 21.8614 8.89995 21.9075 9.01133 22.0189C9.42615 22.4356 9.85058 22.8389 10.2692 23.2384C12.2415 24.9495 13.63 23.4458 15.0646 21.9766C15.174 21.8691 15.2624 21.8537 15.3335 21.8537C16.0882 21.9286 16.8448 22.1092 17.6015 22.1456C19.835 22.1207 20.0885 20.1138 20.3285 18.3547C20.3612 18.1473 20.438 18.0397 20.6108 17.9533C22.4641 17.0718 24.2827 16.1116 23.2169 13.7533H23.2149ZM19.8369 15.933C18.8498 16.3805 18.289 17.164 18.168 18.2606C18.1162 18.7369 18.0048 19.2343 17.9126 19.7201C17.8665 19.9602 17.7667 20.0063 17.6092 20.0063C16.3225 19.891 14.6555 19.2554 13.5743 20.4365C13.1403 20.8551 12.7082 21.2757 12.2742 21.6924C12.205 21.7596 12.1033 21.8384 12.013 21.8384C11.8555 21.8384 11.7057 21.631 11.5924 21.5369C9.81217 19.7124 9.47033 19.4589 6.92958 19.9391C6.67224 19.9813 6.1441 20.1042 6.12298 19.7681C6.00007 19.1229 5.8983 18.5371 5.80804 17.9783C5.64288 16.3978 4.08732 15.9138 2.89856 15.2532C2.42421 15.0611 2.76029 14.6962 2.89472 14.3736C3.45549 13.2636 4.19677 12.0499 3.48428 10.8246C3.22887 10.3215 2.98881 9.81446 2.743 9.30939C2.58168 8.97715 2.60666 8.89649 2.92545 8.72749C5.68705 7.33709 5.61599 7.30252 6.11339 4.2855C6.16524 4.0128 6.28238 3.98975 6.41873 3.98975C7.16579 4.06273 7.96085 4.24133 8.74631 4.28358C10.0292 4.33543 10.8665 3.09098 11.748 2.30936C12.061 1.93679 12.3337 2.38234 12.5776 2.59359C13.3631 3.34256 14.1562 4.34888 15.3354 4.28166C16.092 4.24517 16.8621 4.05505 17.6169 3.98591C17.7436 3.98591 17.8665 4.01856 17.9107 4.25669C18.3735 6.94916 18.2218 7.35053 20.824 8.57578C21.1178 8.75438 21.5768 8.8504 21.2964 9.2825C20.2306 11.4238 19.7505 11.9135 21.0276 14.1508C21.1044 14.3102 21.1831 14.4715 21.2599 14.6309C21.4558 15.0323 21.4385 15.088 21.0544 15.2916C20.6512 15.5047 20.2421 15.7467 19.8369 15.9311V15.933Z" fill="black"/>
<path d="M17.0614 8.46444C17.8603 7.86142 17.4397 6.48446 16.4065 6.52479C15.9725 6.52479 15.696 6.80134 15.5481 6.94921C12.8018 9.69545 9.70416 12.7951 6.94063 15.5586C6.15901 16.1693 6.61225 17.5193 7.62817 17.4733C8.05451 17.4733 8.33104 17.1967 8.48083 17.0488C11.2348 14.2949 14.294 11.2337 17.0633 8.46444H17.0614Z" fill="black"/>
<path d="M9.33564 11.2836C13.117 11.1645 13.1016 5.7047 9.33946 5.58179C5.58114 5.70278 5.57924 11.1664 9.33564 11.2836ZM9.3433 7.73461C10.2786 7.75765 10.2594 9.12117 9.3433 9.14613C8.41957 9.11925 8.40804 7.74997 9.3433 7.73461Z" fill="black"/>
<path d="M14.6935 12.7144C10.914 12.8257 10.9198 18.2913 14.6877 18.4142C18.4441 18.2932 18.4499 12.8334 14.6935 12.7144ZM14.6839 16.2614C13.7506 16.2499 13.764 14.8787 14.6839 14.8499C15.6115 14.8749 15.623 16.2461 14.6839 16.2614Z" fill="black"/>
</g>
<defs>
<clipPath id="clip0_2122_1396">
<rect width="24" height="24" fill="white"/>
</clipPath>
</defs>
</svg>
