<svg width="550" height="550" viewBox="0 0 550 550" fill="none" xmlns="http://www.w3.org/2000/svg">
<g clip-path="url(#clip0_355_637)">
<path d="M414.37 278.172C378.51 305.177 328.258 325.215 272.873 334.602C250.598 338.379 228.543 340.249 207.368 340.249C175.853 340.249 146.263 336.105 120.688 327.929C107.562 323.73 95.9567 318.597 85.9833 312.657L101.42 370.15C109.45 368.354 129.085 365.145 153.872 369.38C183.242 374.404 225.61 391.307 260.682 443.355C273.442 462.294 289.722 473.734 309.063 477.345C344.355 483.927 380.013 462.752 387.677 457.857L427.13 267.74C423.188 271.279 418.935 274.762 414.388 278.19L414.37 278.172Z" fill="#F6A000"/>
<path d="M366.63 148.867C346.922 143.293 324.17 140.488 299.842 140.488C280.903 140.488 261.03 142.193 240.863 145.603C194.792 153.413 153.01 169.217 123.182 190.098C94.5083 210.192 80.5933 232.338 83.985 252.45C87.395 272.562 107.818 288.878 141.515 298.412C176.55 308.312 221.21 309.485 267.282 301.675C313.353 293.865 355.135 278.062 384.963 257.18C413.637 237.087 427.552 214.94 424.16 194.828C420.75 174.717 400.327 158.4 366.63 148.867Z" fill="#FECF8B"/>
<g style="mix-blend-mode:overlay" opacity="0.25">
<path d="M293.132 236.097C280.537 264.99 264.99 294.69 238.058 311.062C256.41 314.435 275.037 308.477 292.728 302.61C303.435 299.053 314.16 295.497 324.867 291.94C333.832 288.97 342.87 285.963 351.157 281.417C358.105 277.622 364.43 272.8 371.14 268.62C385.33 259.802 401.757 253.532 412.353 240.588C416.772 235.18 419.925 228.873 422.822 222.53C427.423 212.447 431.548 201.337 429.183 190.52C425.682 174.497 409.64 164.963 395.12 157.337C386.063 152.588 376.988 147.822 367.455 144.1C355.41 139.407 339.625 134.053 326.498 135.135C313.372 136.217 313.317 143.66 313.573 154.513C314.233 183.04 304.37 210.302 293.132 236.097Z" fill="black"/>
</g>
<path d="M323.18 489.225C317.9 489.225 312.547 488.785 307.138 487.777C284.863 483.652 266.255 470.69 251.827 449.277C196.13 366.612 121.238 376.805 104.133 380.417L131.395 481.983C131.395 481.983 131.432 482.13 131.45 482.222C140.782 524.462 199.76 539.367 248.105 539.367C248.6 539.367 249.095 539.367 249.59 539.367C309.852 538.982 375.43 516.56 384.175 474.43L384.707 471.9C371.837 478.922 348.645 489.207 323.162 489.207L323.18 489.225Z" fill="#7074B7"/>
<g style="mix-blend-mode:overlay" opacity="0.25">
<path d="M298.503 404.286C283.873 420.64 269.188 437.048 252.615 451.458C234.135 467.518 213.51 480.883 192.958 494.193C178.328 503.671 163.497 513.241 146.978 518.833C164.523 538.505 193.197 542.776 219.377 545.801C248.728 549.193 279.84 552.328 306.625 539.861C315.095 535.92 322.85 530.511 331.522 527.065C337.718 524.608 344.282 523.178 350.423 520.575C373.578 510.821 390.408 487.391 395.175 462.733C403.902 417.633 412.39 368.756 423.023 322.025C425.242 312.308 423.83 301.638 427.277 292.288C429.733 285.615 426.782 279.198 426.287 272.103C410.062 268.931 404.8 272.91 396.972 285.523C387.878 300.153 376.127 313.738 365.31 327.103C343.897 353.558 321.2 378.931 298.522 404.305L298.503 404.286Z" fill="black"/>
</g>
<path d="M301.088 117.627C280.665 117.627 259.123 119.405 237.05 123.145C183.315 132.239 134.695 151.58 100.155 177.577C66.6233 202.822 50.6 231.147 55.0366 257.345C57.4933 271.847 66.11 284.9 80.0983 295.845C80.355 296.01 80.5933 296.212 80.8133 296.414C91.9783 304.975 106.462 312.217 123.915 317.809C165.092 330.99 217.342 333.227 271.095 324.134C341.623 312.18 400.547 283.049 431.163 249.04C431.603 248.142 432.263 247.39 433.07 246.877C448.8 228.58 456.335 208.982 453.108 189.934C445.61 145.677 382.232 117.645 301.088 117.645V117.627ZM391.068 265.87C359.993 287.65 316.653 304.077 269.078 312.144C248.362 315.645 227.902 317.405 208.377 317.405C183.04 317.405 159.28 314.472 138.655 308.624C100.797 297.917 77.6783 278.594 73.535 254.21C69.41 229.827 84.8833 203.977 117.095 181.39C148.17 159.61 191.51 143.184 239.085 135.117C286.678 127.05 332.988 128.315 369.508 138.637C407.367 149.344 430.485 168.667 434.628 193.05C438.753 217.434 423.28 243.284 391.068 265.87Z" fill="#F7ECD0"/>
<path d="M369.508 138.637C332.988 128.315 286.66 127.05 239.085 135.117C191.492 143.183 148.17 159.61 117.095 181.39C84.865 203.977 69.41 229.827 73.535 254.21C77.66 278.593 100.797 297.917 138.655 308.623C159.28 314.453 183.04 317.405 208.377 317.405C227.902 317.405 248.38 315.663 269.078 312.143C316.672 304.077 359.993 287.65 391.068 265.87C423.298 243.283 438.753 217.433 434.628 193.05C430.503 168.667 407.367 149.343 369.508 138.637ZM384.963 257.162C355.153 278.062 313.353 293.865 267.282 301.657C221.21 309.448 176.55 308.293 141.515 298.393C107.818 288.86 87.395 272.543 83.985 252.432C80.575 232.32 94.49 210.173 123.182 190.08C152.992 169.18 194.792 153.377 240.863 145.585C261.03 142.175 280.903 140.47 299.842 140.47C324.17 140.47 346.94 143.275 366.63 148.848C400.327 158.382 420.75 174.698 424.16 194.81C427.57 214.922 413.655 237.068 384.963 257.162Z" fill="#271F3D"/>
<path d="M463.577 188.137C458.443 157.85 431.42 133.412 387.475 119.35C344.722 105.655 290.675 103.29 235.29 112.658C179.905 122.045 129.653 142.083 93.7933 169.088C56.925 196.845 39.4533 228.818 44.5867 259.105C47.4283 275.898 57.0167 290.895 72.49 303.325L121.147 484.623C131.908 532.932 195.928 549.982 248.197 549.982C248.71 549.982 249.205 549.982 249.718 549.982C283.488 549.762 316.36 543.162 342.32 531.392C371.892 517.972 389.987 499.015 394.643 476.593L440.88 253.843C459.323 232.54 467.317 209.917 463.632 188.155L463.577 188.137ZM387.658 457.838C379.995 462.733 344.337 483.908 309.045 477.327C289.703 473.715 273.442 462.293 260.663 443.337C225.592 391.288 183.223 374.385 153.853 369.362C129.067 365.127 109.432 368.335 101.402 370.132L85.965 312.638C95.9383 318.578 107.543 323.712 120.67 327.91C146.245 336.087 175.835 340.23 207.35 340.23C228.543 340.23 250.598 338.36 272.855 334.583C328.24 325.197 378.492 305.158 414.352 278.153C418.898 274.725 423.133 271.242 427.093 267.703L387.64 457.82L387.658 457.838ZM249.627 539.367C249.132 539.367 248.637 539.367 248.142 539.367C199.797 539.367 140.8 524.443 131.487 482.222C131.487 482.148 131.45 482.075 131.432 481.983L104.17 380.417C121.275 376.805 196.148 366.612 251.863 449.277C266.292 470.69 284.9 483.633 307.175 487.777C312.565 488.785 317.937 489.225 323.217 489.225C348.7 489.225 371.873 478.94 384.762 471.918L384.23 474.448C375.485 516.578 309.907 539 249.645 539.385L249.627 539.367ZM433.07 246.858C432.263 247.372 431.585 248.123 431.163 249.022C400.547 283.03 341.623 312.162 271.095 324.115C217.36 333.208 165.092 330.972 123.915 317.79C106.462 312.198 91.9783 304.957 80.8133 296.395C80.5933 296.175 80.355 295.992 80.0983 295.827C66.11 284.882 57.4933 271.847 55.0367 257.327C50.6 231.147 66.6233 202.822 100.155 177.558C134.695 151.562 183.297 132.22 237.05 123.127C259.123 119.387 280.665 117.608 301.088 117.608C382.232 117.608 445.61 145.64 453.108 189.897C456.335 208.945 448.8 228.543 433.07 246.84V246.858Z" fill="#271F3D"/>
<mask id="mask0_355_637" style="mask-type:luminance" maskUnits="userSpaceOnUse" x="111" y="309" width="301" height="233">
<path d="M134.237 506.917L111.723 341.862L284.203 332.512L411.657 309.943L392.81 483.193L331.522 527.083L278.667 539.018C247.592 544.463 216.223 539.77 186.028 530.64L146.96 518.833" fill="white"/>
</mask>
<g mask="url(#mask0_355_637)">
<path d="M287.778 393.415C290.253 395.89 293.168 397.081 296.688 397.081C296.688 397.081 296.725 397.081 296.743 397.081C300.245 397.081 303.178 395.853 305.727 393.36C308.257 390.885 309.503 387.988 309.485 384.486C309.467 380.985 308.238 378.088 305.69 375.631C303.123 373.156 300.153 371.946 296.633 371.946H296.597C293.113 371.946 290.217 373.175 287.742 375.65C285.267 378.125 284.075 381.04 284.075 384.541C284.075 388.043 285.285 390.958 287.778 393.415Z" fill="#F9A01B"/>
<path d="M296.688 401.885H296.743C301.492 401.867 305.635 400.144 309.082 396.807C312.547 393.415 314.307 389.272 314.288 384.487C314.27 379.702 312.51 375.559 309.027 372.185C305.562 368.83 301.382 367.144 296.615 367.144H296.56C291.793 367.162 287.687 368.885 284.313 372.259C280.94 375.632 279.235 379.775 279.253 384.56C279.272 389.345 280.977 393.47 284.368 396.844C287.76 400.217 291.903 401.922 296.688 401.904V401.885ZM296.597 371.929H296.633C300.153 371.929 303.123 373.12 305.69 375.614C308.238 378.089 309.485 380.985 309.485 384.469C309.485 387.952 308.257 390.867 305.727 393.342C303.178 395.835 300.245 397.045 296.743 397.064H296.688C293.168 397.064 290.253 395.872 287.778 393.397C285.303 390.922 284.093 388.025 284.075 384.524C284.057 381.022 285.267 378.107 287.742 375.632C290.198 373.157 293.095 371.947 296.597 371.929Z" fill="#271E3B"/>
<path d="M296.945 419.045C291.482 419.063 287.045 423.537 287.082 429L288.108 639.723C288.127 645.187 292.6 649.605 298.063 649.568C303.527 649.532 307.963 645.077 307.927 639.613L306.9 428.89C306.882 423.427 302.408 419.008 296.945 419.045Z" fill="#F9A01B"/>
<path d="M296.927 414.242C288.805 414.278 282.223 420.915 282.278 429.018L283.305 639.742C283.342 647.845 289.978 654.427 298.1 654.372C306.222 654.335 312.803 647.698 312.748 639.595L311.722 428.872C311.685 420.768 305.048 414.187 296.927 414.242ZM307.927 639.632C307.945 645.095 303.527 649.55 298.063 649.587C292.6 649.623 288.127 645.187 288.108 639.742L287.082 429.018C287.063 423.555 291.482 419.1 296.945 419.063C302.408 419.045 306.882 423.463 306.9 428.908L307.927 639.632Z" fill="#271E3B"/>
<path d="M248.417 354.768C242.953 354.786 238.517 359.259 238.553 364.723L239.892 639.979C239.91 645.443 244.383 649.861 249.847 649.824C255.31 649.806 259.747 645.333 259.71 639.869L258.372 364.613C258.353 359.149 253.88 354.731 248.417 354.768Z" fill="#F9A01B"/>
<path d="M248.398 349.947C240.277 349.983 233.695 356.62 233.732 364.723L235.07 639.98C235.107 648.083 241.743 654.665 249.865 654.61C257.987 654.573 264.568 647.937 264.513 639.833L263.175 364.577C263.138 356.473 256.502 349.892 248.38 349.947H248.398ZM259.71 639.87C259.728 645.333 255.31 649.788 249.847 649.825C244.383 649.843 239.91 645.425 239.892 639.98L238.553 364.723C238.535 359.26 242.953 354.805 248.417 354.768C253.88 354.75 258.353 359.168 258.372 364.613L259.71 639.87Z" fill="#271E3B"/>
<path d="M200.31 377.227C194.847 377.245 190.41 381.718 190.447 387.182L191.675 640.2C191.693 645.663 196.167 650.082 201.63 650.045C207.093 650.027 211.53 645.553 211.493 640.09L210.265 387.072C210.247 381.608 205.773 377.19 200.31 377.227Z" fill="#F9A01B"/>
<path d="M200.292 372.423C192.17 372.46 185.588 379.097 185.643 387.2L186.872 640.218C186.908 648.322 193.545 654.903 201.667 654.848C209.788 654.812 216.37 648.175 216.315 640.072L215.087 387.053C215.05 378.95 208.413 372.368 200.292 372.423ZM211.512 640.108C211.53 645.572 207.112 650.026 201.648 650.063C196.185 650.082 191.712 645.663 191.693 640.218L190.465 387.2C190.447 381.737 194.865 377.282 200.328 377.245C205.792 377.208 210.265 381.645 210.283 387.09L211.512 640.108Z" fill="#271E3B"/>
</g>
<path d="M347.783 229.662L465.3 15.3818C467.94 10.4501 472.615 6.96676 478.097 5.81176C478.372 5.75676 478.665 5.70176 478.958 5.64676C494.303 2.75009 506.073 19.1951 498.795 33.0001L404.983 211.017L347.783 229.662Z" fill="#7074B7"/>
<g style="mix-blend-mode:overlay" opacity="0.25">
<path d="M460.735 82.5368C451.238 102.373 440.77 121.715 430.32 141.057C420.915 158.455 411.492 175.853 401.023 192.647C396.697 199.595 392.187 206.433 387.512 213.162C389.877 215.49 393.69 215.82 396.825 214.72C399.96 213.62 402.527 211.365 404.837 209C409.677 204.068 413.838 198.477 417.157 192.427C420.328 186.652 422.73 180.473 425.407 174.46C431.09 161.627 438.02 149.38 444.858 137.115C462.843 104.775 480.205 72.0684 496.173 38.6651C499.015 32.7068 505.175 21.0468 498.997 15.3084C492.03 8.8551 487.868 17.2151 485.87 22.7518C478.482 43.0834 470.103 63.0484 460.772 82.5734L460.735 82.5368Z" fill="black"/>
</g>
<path d="M347.783 234.96C346.225 234.96 344.722 234.282 343.695 233.035C342.302 231.349 342.082 229.002 343.127 227.095L460.643 12.8152C463.998 6.54521 469.975 2.07188 476.997 0.605211L477.95 0.421878C486.988 -1.30146 495.99 2.27355 501.49 9.71688C507.1 17.3069 507.852 27.1702 503.488 35.4752L409.677 213.492C409.035 214.72 407.935 215.637 406.633 216.059L349.433 234.704C348.883 234.887 348.333 234.96 347.783 234.96ZM482.478 10.6152C481.653 10.6152 480.792 10.6885 479.948 10.8535L479.197 11.0002C475.237 11.8252 471.882 14.3369 469.993 17.8752L358.893 220.44L401.28 206.617L494.083 30.5069C497.017 24.9335 495.422 19.3602 492.947 16.0052C490.38 12.5219 486.567 10.5969 482.46 10.5969L482.478 10.6152Z" fill="#271F3D"/>
<path d="M199.943 240.882C187.22 232.541 179.245 218.589 176.073 203.702C166.375 158.144 139.132 87.579 246.785 63.8923C327.672 46.0906 426.342 93.0056 431.2 199.779C432.887 237.087 399.63 256.832 384.285 266.109C276.21 331.394 206.342 245.081 199.943 240.882Z" fill="#EF225D"/>
<g style="mix-blend-mode:overlay">
<path d="M249.315 71.9404C266.75 68.0171 284.973 69.9054 302.5 73.4254C307.615 74.4521 312.84 75.6621 317.112 78.6687C321.383 81.6754 324.5 86.8638 323.547 91.9971C322.795 96.0671 319.66 99.3671 316.012 101.347C312.363 103.327 308.238 104.152 304.187 104.959C287.43 108.314 270.673 111.669 253.898 115.024C250.268 115.757 246.602 116.472 242.917 116.344C237.728 116.16 232.76 114.272 227.902 112.42C223.447 110.715 210.797 108.387 208.89 103.62C206.983 98.8538 213.877 92.2354 216.865 89.2287C225.61 80.4287 237.27 74.6354 249.315 71.9404Z" fill="white"/>
</g>
<path d="M406.464 156.589C411.817 165.861 408.646 177.748 399.358 183.11C394.004 173.838 397.176 161.951 406.464 156.589Z" fill="#271F3D"/>
<path d="M314.255 85.4326C319.608 94.7049 316.437 106.592 307.149 111.954C301.795 102.682 304.967 90.7951 314.255 85.4326Z" fill="#271F3D"/>
<path d="M371.848 174.391C381.12 179.744 384.317 191.624 378.954 200.912C369.682 195.559 366.485 183.679 371.848 174.391Z" fill="#271F3D"/>
<path d="M402.911 225.678C410.482 233.248 410.495 245.551 402.911 253.135C395.34 245.564 395.328 233.261 402.911 225.678Z" fill="#271F3D"/>
<path d="M372.48 240.716C377.833 249.988 374.661 261.875 365.373 267.237C360.02 257.965 363.192 246.078 372.48 240.716Z" fill="#271F3D"/>
<path d="M336.894 127.48C342.247 136.753 339.075 148.639 329.787 154.002C324.434 144.73 327.605 132.843 336.894 127.48Z" fill="#271F3D"/>
<path d="M346.607 197.04C351.96 206.312 348.788 218.199 339.5 223.561C334.147 214.289 337.318 202.403 346.607 197.04Z" fill="#271F3D"/>
<path d="M368.598 117.781C377.87 123.135 381.066 135.015 375.704 144.303C366.432 138.949 363.235 127.069 368.598 117.781Z" fill="#271F3D"/>
<path d="M168.447 187.331C183.223 181.427 207.552 174.681 223.337 176.716C234.997 178.219 245.997 184.287 253.477 193.344C260.407 201.722 264.183 212.172 269.005 221.926C276.962 238.041 288.493 253.019 304.37 261.452C320.247 269.886 340.908 270.637 355.538 260.224C363.66 254.431 369.288 245.869 375.155 237.784C381.022 229.699 387.658 221.632 396.77 217.599C405.9 213.566 418.128 214.886 423.848 223.062C425.37 225.244 425.113 225.482 425.553 228.104C426.287 232.614 434.335 204.234 432.795 195.031C431.2 185.497 428.835 174.791 420.548 169.822C411.088 164.139 398.897 168.924 389.583 174.827C380.27 180.731 370.608 188.064 359.608 187.331C349.525 186.652 341.055 179.117 335.848 170.446C330.642 161.774 327.965 151.874 324.078 142.542C320.192 133.211 314.618 123.971 305.745 119.131C294.672 113.081 280.922 115.189 269.005 119.314C257.088 123.457 245.63 129.489 233.108 131.047C220.367 132.477 207.478 128.371 200.677 117.077C193.325 127.197 186.267 134.861 181.977 147.236C177.687 159.611 167.182 174.076 168.428 187.367L168.447 187.331Z" fill="#512714" stroke="#271F3C" stroke-width="4" stroke-miterlimit="10"/>
<g style="mix-blend-mode:soft-light" opacity="0.4">
<path d="M338.232 236.024C336.123 237.344 333.923 238.774 332.768 240.974C331.063 244.219 332.218 248.49 334.968 250.91C337.718 253.33 341.678 254.045 345.272 253.385C348.865 252.725 352.147 250.837 355.025 248.6C357.867 246.4 360.488 243.724 361.808 240.369C363.128 237.014 362.945 232.907 360.617 230.157C354.31 222.695 343.64 232.614 338.232 236.005V236.024Z" fill="black"/>
</g>
<g style="mix-blend-mode:overlay">
<path d="M376.402 192.061C378.583 190.759 380.637 189.183 383.002 188.266C385.367 187.349 388.245 187.203 390.298 188.688C392.48 190.264 393.213 193.326 392.608 195.948C392.003 198.569 390.335 200.824 388.465 202.749C381.718 209.771 371.965 213.804 362.23 213.584C352.495 213.364 342.925 208.909 336.508 201.594C334.363 199.156 332.475 196.094 332.897 192.868C334.253 182.454 347.197 194.041 351.817 195.269C359.993 197.433 369.087 196.424 376.383 192.061H376.402Z" fill="white"/>
</g>
<g style="mix-blend-mode:overlay" opacity="0.25">
<path d="M355.007 247.373C351.725 255.806 348.022 264.074 344.337 272.343C342.65 276.119 341.422 281.528 344.978 283.618C347.343 285.011 350.332 283.856 352.825 282.701C370.15 274.634 387.677 266.439 402.343 254.211C417.01 241.983 428.762 225.061 430.65 206.049C432.447 188.064 425.425 170.483 418.477 153.799C412.207 138.729 405.772 123.458 395.872 110.331C391.985 105.198 368.482 78.8345 362.982 84.3345C359.003 88.3128 370.315 95.3345 373.633 124.264C374.532 132.184 374.403 140.178 374.275 148.153C374.037 164.084 372.478 179.998 369.618 195.691C366.392 213.328 361.515 230.653 354.988 247.373H355.007Z" fill="black"/>
</g>
<path d="M305.03 294.526C290.62 294.526 276.393 292.087 262.387 287.192C230.67 276.119 208.982 255.091 200.823 247.171C199.503 245.887 198.128 244.567 197.707 244.256C184.873 235.822 175.78 221.724 172.132 204.564C171.307 200.677 170.353 196.644 169.345 192.372C162.855 164.726 154.752 130.296 172.443 102.209C185.258 81.8407 209.293 68.0173 245.923 59.969C292.728 49.6657 342.668 60.3907 379.5 88.6607C403.462 107.049 432.593 141.222 435.252 199.632C437.048 239.012 403.113 259.509 386.797 269.354L386.393 269.611C358.875 286.239 331.65 294.562 305.03 294.562V294.526ZM281.417 64.1857C270.142 64.1857 258.812 65.3773 247.665 67.834C213.253 75.4057 190.887 88.0557 179.282 106.499C163.405 131.726 171.068 164.322 177.21 190.502C178.218 194.811 179.19 198.899 180.033 202.859C183.242 217.947 191.107 230.249 202.162 237.491C203.078 238.096 204.142 239.104 206.452 241.359C260.168 293.481 319.293 300.631 382.195 262.644L382.598 262.387C397.577 253.349 428.725 234.539 427.148 199.962C424.637 144.669 397.155 112.384 374.568 95.0407C348.37 74.929 315.132 64.1857 281.398 64.1857H281.417Z" fill="#271F3D"/>
<path d="M101.273 287.778C88.9167 278.887 80.575 265.485 77.4033 250.598C67.705 205.04 88.0367 104.078 198.257 105.948C293.7 107.562 353.558 181.977 342.228 285.505C342.228 285.505 325.068 290.95 307.945 296.248C261.47 310.64 163.607 332.64 101.273 287.778Z" fill="#F6A000"/>
<g style="mix-blend-mode:overlay">
<path d="M141.148 161.095C129.048 171.05 120.395 184.727 114.62 199.283C108.845 213.84 105.802 229.35 103.51 244.842C103.07 247.793 101.915 251.478 98.945 251.662C96.1216 251.845 94.4533 248.618 93.6466 245.905C86.02 220.367 88.9166 191.822 101.548 168.355C110.312 152.075 123.677 138.362 139.535 128.92C146.08 125.033 153.89 120.523 161.81 122.412C170.445 124.465 169.382 132.403 165.862 138.82C160.38 148.775 149.637 154.11 141.148 161.077V161.095Z" fill="white"/>
</g>
<path d="M76.1383 213.529C90.915 207.626 115.243 200.879 131.028 202.914C142.688 204.417 153.688 210.486 161.168 219.542C168.098 227.921 171.875 238.371 176.697 248.124C184.653 264.239 196.185 279.217 212.062 287.651C227.938 296.084 248.6 296.836 263.23 286.422C271.352 280.629 276.98 272.067 282.847 263.982C288.713 255.897 295.35 247.831 304.462 243.797C313.592 239.764 325.82 241.084 331.54 249.261C333.062 251.442 335.427 253.312 335.848 255.934C336.582 260.444 340.762 268.254 343.053 266.916C345.895 265.284 345.638 252.084 345.088 248.857C343.548 239.654 342.008 230.432 340.468 221.229C338.873 211.696 336.508 200.989 328.222 196.021C318.762 190.337 306.57 195.122 297.257 201.026C287.943 206.929 278.282 214.262 267.282 213.529C257.198 212.851 248.728 205.316 243.522 196.644C238.333 187.972 235.638 178.072 231.752 168.741C227.865 159.409 222.292 150.169 213.418 145.329C202.345 139.279 188.595 141.387 176.678 145.512C164.762 149.637 153.303 155.687 140.782 157.246C128.04 158.676 115.152 154.569 108.35 143.276C100.998 153.396 93.94 161.059 89.65 173.434C85.305 186.029 74.855 200.274 76.1016 213.566L76.1383 213.529Z" fill="#512714" stroke="#271F3D" stroke-width="4" stroke-miterlimit="10"/>
<g style="mix-blend-mode:overlay" opacity="0.25">
<path d="M266.677 237.399C253.092 266.512 235.217 294.049 211.108 315.279C237.068 314.087 262.588 308.275 287.925 302.482C295.57 300.74 303.215 298.999 310.823 297.055C320.925 294.489 331.632 291.115 337.993 282.865C344.832 273.992 344.905 261.764 343.897 250.617C341.312 222.145 333.575 194.15 321.2 168.392C318.798 163.405 316.177 158.419 312.363 154.404C310.2 152.13 305.378 147.749 301.895 147.914C297.642 148.115 297.513 152.442 296.395 156.035C293.535 165.239 290.657 174.442 287.613 183.59C281.527 201.85 274.853 219.945 266.695 237.417L266.677 237.399Z" fill="black"/>
</g>
<path d="M198.275 318.688C163.148 318.688 127.545 311.685 98.9083 291.078C85.9466 281.747 76.9083 267.685 73.4433 251.46C67.2283 222.292 73.0033 175.762 100.357 142.542C122.833 115.262 156.677 101.237 198.33 101.915C243.833 102.685 282.223 119.35 309.32 150.095C339.038 183.81 352.147 232.045 346.243 285.963L345.95 288.585L343.438 289.373C343.273 289.428 326.058 294.873 309.118 300.117C281.087 308.788 240.002 318.67 198.257 318.67L198.275 318.688ZM195.232 109.982C157.025 109.982 127.233 122.65 106.608 147.693C80.96 178.842 75.5516 222.438 81.3633 249.773C84.3883 264.018 92.3083 276.357 103.638 284.497C163.478 327.562 256.593 307.927 306.753 292.38C319.843 288.328 333.08 284.148 338.488 282.443C343.438 231.88 330.972 186.872 303.252 155.43C277.695 126.427 241.358 110.715 198.183 109.982C197.193 109.982 196.185 109.963 195.213 109.963L195.232 109.982Z" fill="#271F3D"/>
<path d="M244.365 85.7266C255.072 85.7266 263.78 94.4166 263.78 105.142C253.073 105.142 244.365 96.4516 244.365 85.7266Z" fill="#271F3D"/>
<g style="mix-blend-mode:overlay">
<path d="M182.618 151.947C185.918 150.847 189.255 149.747 192.72 149.564C196.185 149.38 199.852 150.205 202.418 152.552C204.985 154.899 206.103 158.95 204.435 162.012C203.152 164.377 200.512 165.734 197.872 166.174C195.232 166.614 192.518 166.302 189.842 166.064C183.26 165.514 176.348 165.624 170.482 168.63C167.787 170.005 165.403 171.967 162.708 173.324C160.013 174.68 156.713 175.395 153.963 174.13C144.925 170.024 152.662 162.049 158.217 160.014C166.247 157.062 174.497 154.642 182.618 151.947Z" fill="white"/>
</g>
<g style="mix-blend-mode:overlay">
<path d="M285.817 219.56C287.998 218.258 290.052 216.682 292.417 215.765C294.782 214.848 297.66 214.702 299.713 216.187C301.895 217.763 302.628 220.825 302.023 223.447C301.418 226.068 299.75 228.323 297.88 230.248C291.133 237.27 281.38 241.303 271.645 241.083C261.91 240.863 252.34 236.408 245.923 229.093C243.778 226.655 241.89 223.593 242.312 220.367C243.668 209.953 256.612 221.54 261.232 222.768C269.408 224.932 278.502 223.923 285.798 219.56H285.817Z" fill="white"/>
</g>
<g style="mix-blend-mode:overlay">
<path d="M215.105 182.821C216.278 184.397 217.745 185.809 219.578 186.542C221.412 187.276 223.612 187.184 225.188 186.011C227.7 184.122 227.682 180.419 227.425 177.284C227.113 173.526 226.747 169.584 224.638 166.449C221.705 162.104 215.307 160.784 212.703 165.826C210.1 170.867 211.915 178.494 215.123 182.821H215.105Z" fill="white"/>
</g>
<g style="mix-blend-mode:soft-light" opacity="0.4">
<path d="M188.907 214.262C202.308 229.699 212.465 245.136 224.95 255.586C237.435 266.036 250.085 271.444 268.547 265.779C272.378 264.605 275.238 269.317 272.378 272.122C258.298 285.945 241.743 285.946 226.563 283.086C193.875 276.944 178.035 239.416 174.332 223.099C172.517 215.087 175.927 199.284 188.907 214.244V214.262Z" fill="black"/>
</g>
<g style="mix-blend-mode:soft-light" opacity="0.4">
<path d="M252.762 249.829C250.983 249.829 249.113 249.847 247.573 250.746C245.318 252.047 244.383 255.072 245.117 257.584C245.85 260.096 247.977 262.021 250.397 262.992C252.817 263.964 255.512 264.074 258.115 263.817C260.663 263.561 263.267 262.937 265.338 261.416C267.41 259.894 268.858 257.346 268.492 254.797C267.52 247.886 257.308 249.829 252.743 249.829H252.762Z" fill="black"/>
</g>
<g style="mix-blend-mode:soft-light" opacity="0.4">
<path d="M95.37 199.173C121.44 182.802 152.607 211.035 151.048 192.757C148.72 165.403 103.638 174.717 92.95 183.92C86.2033 189.732 89.4483 202.895 95.37 199.192V199.173Z" fill="black"/>
</g>
<g style="mix-blend-mode:overlay">
<path d="M407.293 193.673C408.467 195.25 409.933 196.662 411.767 197.395C413.6 198.128 415.8 198.037 417.377 196.863C419.888 194.975 419.87 191.272 419.613 188.137C419.302 184.378 418.935 180.437 416.827 177.302C413.893 172.957 407.495 171.637 404.892 176.678C402.27 181.757 404.103 189.347 407.312 193.673H407.293Z" fill="white"/>
</g>
<path d="M305.598 269.776C304.077 267.668 301.125 267.191 299.035 268.713L285.688 278.356C283.58 279.878 283.103 282.829 284.625 284.919C286.147 287.009 289.098 287.504 291.188 285.983L304.535 276.339C306.643 274.818 307.12 271.866 305.598 269.776Z" fill="#E8015A"/>
<path d="M307.505 268.401C305.232 265.247 300.813 264.532 297.642 266.806L284.295 276.449C281.142 278.722 280.427 283.141 282.7 286.312C284.973 289.466 289.392 290.181 292.563 287.907L305.91 278.264C309.063 275.991 309.778 271.572 307.505 268.401ZM291.188 285.982C289.08 287.504 286.147 287.027 284.625 284.919C283.103 282.811 283.58 279.877 285.688 278.356L299.035 268.712C301.143 267.191 304.077 267.667 305.598 269.776C307.12 271.884 306.643 274.817 304.535 276.339L291.188 285.982Z" fill="#271F3D"/>
<path d="M253.825 133.889C252.303 131.781 249.352 131.304 247.262 132.826L233.915 142.469C231.807 143.991 231.33 146.943 232.852 149.033C234.373 151.123 237.325 151.618 239.415 150.096L252.762 140.453C254.87 138.931 255.347 135.979 253.825 133.889Z" fill="#E8015A"/>
<path d="M255.732 132.514C253.458 129.361 249.04 128.646 245.868 130.919L232.522 140.562C229.368 142.836 228.653 147.254 230.927 150.426C233.2 153.597 237.618 154.294 240.79 152.021L254.137 142.377C257.29 140.104 258.005 135.686 255.732 132.514ZM239.415 150.114C237.307 151.636 234.373 151.159 232.852 149.051C231.33 146.942 231.807 144.009 233.915 142.487L247.262 132.844C249.37 131.322 252.303 131.799 253.825 133.907C255.347 136.016 254.87 138.949 252.762 140.471L239.415 150.114Z" fill="#271F3D"/>
<path d="M160.637 270.967C158.052 270.692 155.723 272.543 155.448 275.128L153.652 291.5C153.377 294.085 155.247 296.413 157.813 296.688C160.38 296.963 162.727 295.112 163.002 292.527L164.798 276.155C165.073 273.57 163.203 271.242 160.637 270.967Z" fill="#E8015A"/>
<path d="M160.893 268.62C157.025 268.198 153.523 271.003 153.102 274.872L151.305 291.243C150.883 295.112 153.688 298.613 157.557 299.035C161.425 299.457 164.927 296.652 165.348 292.783L167.145 276.412C167.567 272.543 164.762 269.042 160.893 268.62ZM163.002 292.527C162.727 295.112 160.398 296.982 157.813 296.688C155.228 296.395 153.358 294.085 153.652 291.5L155.448 275.128C155.723 272.543 158.052 270.673 160.637 270.967C163.222 271.26 165.092 273.57 164.798 276.155L163.002 292.527Z" fill="#271F3D"/>
<path d="M101.548 132.313C99.715 134.146 99.715 137.134 101.548 138.968L113.19 150.609C115.023 152.443 118.012 152.443 119.845 150.609C121.678 148.776 121.678 145.787 119.845 143.954L108.203 132.313C106.37 130.479 103.382 130.479 101.548 132.313Z" fill="#E8015A"/>
<path d="M99.88 130.662C97.13 133.412 97.13 137.885 99.88 140.654L111.522 152.295C114.272 155.045 118.745 155.045 121.513 152.295C124.282 149.545 124.263 145.072 121.513 142.304L109.872 130.662C107.122 127.912 102.648 127.912 99.88 130.662ZM119.845 143.972C121.678 145.805 121.678 148.794 119.845 150.627C118.012 152.46 115.023 152.46 113.19 150.627L101.548 138.985C99.715 137.152 99.715 134.164 101.548 132.33C103.382 130.497 106.37 130.497 108.203 132.33L119.845 143.972Z" fill="#271F3D"/>
<path d="M146.85 124.264C144.705 125.712 144.137 128.645 145.585 130.79L154.788 144.449C156.237 146.594 159.17 147.162 161.315 145.714C163.46 144.265 164.028 141.332 162.58 139.187L153.377 125.529C151.928 123.384 148.995 122.815 146.85 124.264Z" fill="#60C251"/>
<path d="M145.53 122.321C142.303 124.502 141.442 128.884 143.623 132.11L152.827 145.769C155.008 148.996 159.39 149.857 162.617 147.676C165.843 145.494 166.705 141.112 164.523 137.886L155.32 124.227C153.138 121.001 148.757 120.139 145.53 122.321ZM162.58 139.206C164.028 141.351 163.46 144.284 161.315 145.732C159.17 147.181 156.237 146.612 154.788 144.467L145.585 130.809C144.137 128.664 144.705 125.731 146.85 124.282C148.995 122.834 151.928 123.402 153.377 125.547L162.58 139.206Z" fill="#271F3D"/>
<path d="M252.872 278.978C251.57 281.233 252.34 284.112 254.595 285.413L268.858 293.645C271.113 294.947 273.992 294.177 275.293 291.922C276.595 289.667 275.825 286.788 273.57 285.487L259.307 277.255C257.052 275.953 254.173 276.723 252.872 278.978Z" fill="#60C251"/>
<path d="M250.837 277.787C248.893 281.16 250.048 285.487 253.422 287.43L267.685 295.662C271.058 297.605 275.385 296.45 277.328 293.077C279.272 289.704 278.117 285.377 274.743 283.434L260.48 275.202C257.107 273.259 252.78 274.414 250.837 277.787ZM273.552 285.487C275.807 286.789 276.577 289.667 275.275 291.922C273.973 294.177 271.095 294.947 268.84 293.645L254.577 285.414C252.322 284.112 251.552 281.234 252.853 278.979C254.155 276.724 257.033 275.954 259.288 277.255L273.552 285.487Z" fill="#271F3D"/>
<path d="M325.545 267.539C327.8 268.841 330.678 268.071 331.98 265.816L340.212 251.552C341.513 249.297 340.743 246.419 338.488 245.117C336.233 243.816 333.355 244.586 332.053 246.841L323.822 261.104C322.52 263.359 323.29 266.237 325.545 267.539Z" fill="#60C251"/>
<path d="M324.372 269.574C327.745 271.517 332.072 270.362 334.015 266.989L342.247 252.725C344.19 249.352 343.035 245.025 339.662 243.082C336.288 241.139 331.962 242.294 330.018 245.667L321.787 259.93C319.843 263.304 320.998 267.63 324.372 269.574ZM332.053 246.84C333.355 244.585 336.233 243.815 338.488 245.117C340.743 246.419 341.513 249.297 340.212 251.552L331.98 265.815C330.678 268.07 327.8 268.84 325.545 267.539C323.29 266.237 322.52 263.359 323.822 261.104L332.053 246.84Z" fill="#271F3D"/>
<path d="M247.903 210.907C250.158 212.209 253.037 211.439 254.338 209.184L262.57 194.92C263.872 192.665 263.102 189.787 260.847 188.485C258.592 187.184 255.713 187.954 254.412 190.209L246.18 204.472C244.878 206.727 245.648 209.605 247.903 210.907Z" fill="#60C251"/>
<path d="M246.73 212.96C250.103 214.904 254.43 213.749 256.373 210.375L264.605 196.112C266.548 192.739 265.393 188.412 262.02 186.469C258.647 184.525 254.32 185.68 252.377 189.054L244.145 203.317C242.202 206.69 243.357 211.017 246.73 212.96ZM254.412 190.227C255.713 187.972 258.592 187.202 260.847 188.504C263.102 189.805 263.872 192.684 262.57 194.939L254.338 209.202C253.037 211.457 250.158 212.227 247.903 210.925C245.648 209.624 244.878 206.745 246.18 204.49L254.412 190.227Z" fill="#271F3D"/>
<path d="M276.54 151.746C274.065 150.994 271.425 152.387 270.673 154.862L265.852 170.611C265.1 173.086 266.493 175.726 268.968 176.477C271.443 177.229 274.083 175.836 274.835 173.361L279.657 157.612C280.408 155.137 279.015 152.497 276.54 151.746Z" fill="#0597F2"/>
<path d="M277.218 149.491C273.497 148.354 269.537 150.462 268.4 154.184L263.578 169.932C262.442 173.654 264.55 177.614 268.272 178.751C271.993 179.887 275.953 177.779 277.09 174.057L281.912 158.309C283.048 154.587 280.94 150.627 277.218 149.491ZM274.853 173.361C274.102 175.836 271.462 177.247 268.987 176.477C266.512 175.707 265.1 173.086 265.87 170.611L270.692 154.862C271.443 152.387 274.083 150.976 276.558 151.746C279.033 152.516 280.445 155.137 279.675 157.612L274.853 173.361Z" fill="#271F3D"/>
<path d="M181.207 135.74C179.08 137.225 178.567 140.177 180.052 142.303L189.512 155.778C190.997 157.905 193.948 158.418 196.075 156.933C198.202 155.448 198.715 152.497 197.23 150.37L187.77 136.895C186.285 134.768 183.333 134.255 181.207 135.74Z" fill="#0597F2"/>
<path d="M179.85 133.815C176.66 136.052 175.89 140.47 178.127 143.642L187.587 157.117C189.823 160.307 194.242 161.077 197.413 158.84C200.585 156.603 201.373 152.185 199.137 149.013L189.677 135.538C187.44 132.348 183.022 131.578 179.85 133.815ZM197.212 150.352C198.697 152.478 198.183 155.412 196.057 156.915C193.93 158.418 190.997 157.887 189.493 155.76L180.033 142.285C178.548 140.158 179.062 137.225 181.188 135.722C183.315 134.218 186.248 134.75 187.752 136.877L197.212 150.352Z" fill="#271F3D"/>
<path d="M130.9 198.202C129.305 196.149 126.335 195.8 124.3 197.395L111.32 207.534C109.267 209.129 108.918 212.099 110.513 214.134C112.108 216.169 115.078 216.535 117.113 214.94L130.093 204.802C132.147 203.207 132.495 200.237 130.9 198.202Z" fill="#0597F2"/>
<path d="M132.752 196.754C130.35 193.692 125.913 193.142 122.852 195.544L109.872 205.682C106.81 208.084 106.26 212.52 108.662 215.582C111.063 218.644 115.5 219.194 118.562 216.792L131.542 206.654C134.603 204.252 135.153 199.815 132.752 196.754ZM117.095 214.959C115.042 216.554 112.09 216.187 110.495 214.152C108.9 212.117 109.267 209.147 111.302 207.552L124.282 197.414C126.335 195.819 129.287 196.185 130.882 198.22C132.477 200.255 132.11 203.225 130.075 204.82L117.095 214.959Z" fill="#271F3D"/>
<path d="M220.293 278.722C217.965 277.567 215.142 278.502 213.987 280.83L206.635 295.57C205.48 297.899 206.415 300.722 208.743 301.877C211.072 303.032 213.895 302.097 215.05 299.769L222.402 285.029C223.557 282.7 222.622 279.877 220.293 278.722Z" fill="#0597F2"/>
<path d="M221.357 276.614C217.873 274.872 213.62 276.302 211.897 279.767L204.545 294.507C202.803 297.991 204.233 302.244 207.698 303.967C211.182 305.709 215.435 304.279 217.158 300.814L224.51 286.074C226.252 282.591 224.822 278.337 221.357 276.614ZM215.05 299.769C213.895 302.097 211.053 303.032 208.743 301.877C206.415 300.722 205.48 297.881 206.635 295.571L213.987 280.831C215.142 278.502 217.983 277.567 220.293 278.722C222.622 279.877 223.557 282.719 222.402 285.029L215.05 299.769Z" fill="#271F3D"/>
<path d="M106.847 238.003C104.445 238.975 103.272 241.725 104.262 244.127L110.458 259.38C111.43 261.782 114.18 262.955 116.582 261.965C118.983 260.975 120.157 258.243 119.167 255.842L112.97 240.588C111.998 238.187 109.248 237.013 106.847 238.003Z" fill="#8A14D9"/>
<path d="M105.967 235.822C102.355 237.289 100.613 241.414 102.08 245.025L108.277 260.279C109.743 263.89 113.868 265.632 117.48 264.165C121.092 262.699 122.833 258.574 121.367 254.962L115.17 239.709C113.703 236.097 109.578 234.355 105.967 235.822ZM119.185 255.86C120.157 258.262 119.002 261.012 116.6 261.983C114.198 262.955 111.448 261.8 110.477 259.399L104.28 244.145C103.308 241.744 104.463 238.994 106.865 238.022C109.267 237.05 112.017 238.205 112.988 240.607L119.185 255.86Z" fill="#271F3D"/>
<path d="M172.168 214.904C169.987 213.492 167.072 214.097 165.66 216.279L156.658 230.084C155.247 232.265 155.852 235.18 158.033 236.592C160.215 238.004 163.13 237.399 164.542 235.217L173.543 221.412C174.955 219.23 174.35 216.315 172.168 214.904Z" fill="#8A14D9"/>
<path d="M173.452 212.924C170.188 210.797 165.807 211.714 163.68 214.977L154.678 228.782C152.552 232.045 153.468 236.427 156.732 238.554C159.995 240.68 164.377 239.764 166.503 236.5L175.505 222.695C177.632 219.432 176.715 215.05 173.452 212.924ZM164.542 235.199C163.13 237.38 160.197 237.985 158.033 236.574C155.87 235.162 155.247 232.229 156.658 230.065L165.66 216.26C167.072 214.079 170.005 213.474 172.168 214.885C174.332 216.297 174.955 219.23 173.543 221.394L164.542 235.199Z" fill="#271F3D"/>
<path d="M209.385 98.4321C207.203 97.0204 204.288 97.6254 202.877 99.8071L193.875 113.612C192.463 115.794 193.068 118.709 195.25 120.12C197.432 121.532 200.347 120.927 201.758 118.745L210.76 104.94C212.172 102.759 211.567 99.8437 209.385 98.4321Z" fill="#8A14D9"/>
<path d="M210.668 96.4519C207.405 94.3252 203.023 95.2419 200.897 98.5052L191.895 112.31C189.768 115.574 190.685 119.955 193.948 122.082C197.212 124.209 201.593 123.292 203.72 120.029L212.722 106.224C214.848 102.96 213.932 98.5786 210.668 96.4519ZM201.758 118.727C200.347 120.909 197.413 121.514 195.25 120.102C193.087 118.69 192.463 115.757 193.875 113.594L202.877 99.7886C204.288 97.6069 207.222 97.0019 209.385 98.4136C211.548 99.8252 212.172 102.759 210.76 104.922L201.758 118.727Z" fill="#271F3D"/>
<path d="M306.937 181.189C304.498 180.327 301.803 181.611 300.923 184.049L295.423 199.577C294.562 202.016 295.845 204.711 298.283 205.591C300.722 206.471 303.417 205.169 304.297 202.731L309.797 187.202C310.658 184.764 309.375 182.069 306.937 181.189Z" fill="#8A14D9"/>
<path d="M307.725 178.97C304.058 177.669 300.007 179.594 298.705 183.26L293.205 198.789C291.903 202.455 293.828 206.507 297.495 207.809C301.162 209.11 305.213 207.185 306.515 203.519L312.015 187.99C313.317 184.324 311.392 180.272 307.725 178.97ZM304.278 202.712C303.417 205.15 300.722 206.434 298.265 205.572C295.808 204.71 294.543 202.015 295.405 199.559L300.905 184.03C301.767 181.592 304.462 180.309 306.918 181.17C309.375 182.032 310.64 184.727 309.778 187.184L304.278 202.712Z" fill="#271F3D"/>
<g style="mix-blend-mode:overlay">
<path d="M128.847 358.325C128.333 376.292 129.158 394.277 131.303 412.133C131.762 415.928 126.335 417.138 125.125 413.527C125.125 413.527 99.715 345.033 100.742 340.285C103.217 328.808 129.378 339.955 128.847 358.343V358.325Z" fill="white"/>
</g>
<g style="mix-blend-mode:overlay">
<path d="M130.717 434.922C131.67 436.297 133.1 437.635 134.75 437.452C136.492 437.25 137.573 435.454 138.05 433.785C138.875 430.907 138.655 427.735 137.463 424.985C136.162 422.015 131.157 415.855 128.425 420.769C126.152 424.857 128.278 431.42 130.717 434.94V434.922Z" fill="white"/>
</g>
</g>
<defs>
<clipPath id="clip0_355_637">
<rect width="550" height="550" fill="white"/>
</clipPath>
</defs>
</svg>
