<svg width="24" height="24" viewBox="0 0 24 24" fill="none" xmlns="http://www.w3.org/2000/svg">
<path d="M21.6918 11C21.4513 11 21.2313 11.1279 21.1102 11.3343C20.7606 11.9312 20.2046 12.7498 19.4048 13.5565C17.4349 15.5434 14.9484 16.5513 12.015 16.5513C9.08155 16.5513 6.58645 15.5434 4.6064 13.5531C3.80312 12.7464 3.24202 11.9278 2.8907 11.3326C2.76961 11.1262 2.55131 11 2.31254 11H2.09254C1.57407 11 1.25004 11.5611 1.50927 12.0096C2.63658 13.9675 5.75418 18.0845 12.0167 18.0845C18.2792 18.0845 21.378 13.9641 22.4968 12.0079C22.7526 11.5577 22.4303 11 21.9118 11H21.6918Z" fill="#242729"/>
<path d="M11.2322 19.4471V21.8348H12.7671V19.4471H11.2322Z" fill="#242729"/>
<path d="M20.2263 16.7146L21.9147 18.4029L23 17.3175L21.3117 15.6292L20.2263 16.7146Z" fill="#242729"/>
<path d="M2.68833 15.6297L1 17.318L2.08535 18.4033L3.77368 16.715L2.68833 15.6297Z" fill="#242729"/>
<path d="M6.58281 18.3141L5.38898 20.3819L6.71826 21.1494L7.91209 19.0816L6.58281 18.3141Z" fill="#242729"/>
<path d="M16.0874 19.0808L17.2812 21.1486L18.6105 20.3811L17.4166 18.3134L16.0874 19.0808Z" fill="#242729"/>
</svg>
