<svg width="176" height="175" viewBox="0 0 176 175" fill="none" xmlns="http://www.w3.org/2000/svg">
<path d="M160.917 138.72V53.9021C160.917 48.3934 158.344 43.4855 154.354 40.2891C154.206 40.0964 154.07 39.9037 153.9 39.7337C153.107 38.9402 152.121 38.4302 151.089 38.2375C148.788 37.1153 146.215 36.4692 143.484 36.4692H32.5275C28.515 36.4692 24.8199 37.8521 21.8615 40.1417C21.8048 40.1757 21.7595 40.2211 21.7028 40.2551C21.4761 40.4364 21.2494 40.6291 21.0341 40.8218C21.0114 40.8445 20.9887 40.8558 20.9661 40.8785C20.9661 40.8785 20.9661 40.8785 20.9547 40.8898C17.3616 44.0862 15.0833 48.7221 15.0833 53.9021V138.72H160.917ZM117.017 84.336L149.593 51.7599C149.831 52.4286 149.979 53.1427 149.979 53.8908V117.298L117.017 84.336ZM90.6977 95.1834C89.1448 96.7363 86.6058 96.7476 85.0416 95.2288L70.3517 81.0149C70.3517 81.0149 70.261 80.9016 70.2157 80.8449C70.1364 80.7656 70.057 80.7202 69.9777 80.6522L35.5766 47.396H138.485L90.6977 95.1834ZM26.0214 117.309V53.9021C26.0214 53.7435 26.0554 53.5848 26.0667 53.4261L58.5182 84.8121L26.0214 117.309ZM32.5275 127.771C32.0628 127.771 31.6094 127.714 31.1674 127.624L66.3845 92.4064L77.436 103.095C80.3263 105.883 84.0782 107.278 87.8413 107.278C91.6045 107.278 95.5263 105.827 98.428 102.914L109.275 92.0664L144.833 127.624C144.391 127.714 143.937 127.771 143.472 127.771H32.5275Z" fill="black"/>
</svg>
