<svg width="38" height="38" viewBox="0 0 38 38" fill="none" xmlns="http://www.w3.org/2000/svg">
<path d="M36.0323 1.62329C35.3256 0.862489 34.3169 0.383789 33.1971 0.383789H17.1774C16.0576 0.383789 15.0489 0.85964 14.3423 1.62329C13.7011 2.31286 13.3108 3.23607 13.3108 4.25047C13.3108 5.4273 13.8379 6.48161 14.6671 7.18827L15.143 15.3548H4.26662C2.13239 15.3548 0.399902 17.0872 0.399902 19.2215C0.399902 20.6548 1.17782 21.9028 2.33754 22.5724L4.00161 37.0505H33.9693L35.7103 7.19109C36.5395 6.48158 37.0666 5.4273 37.0666 4.25333C37.0666 3.23892 36.6762 2.31571 36.0351 1.62614L36.0323 1.62329ZM2.95303 19.2243C2.95303 18.5006 3.54286 17.9136 4.26377 17.9136H15.2883L15.4393 20.5151H4.0358C3.42032 20.4068 2.95018 19.8712 2.95018 19.2243H2.95303ZM6.27831 34.4945L4.96757 23.0882H15.5932L16.2571 34.4945H6.27831ZM31.5586 34.4945H18.8159L18.152 23.0882L18.0009 20.5123L17.8499 17.9107L17.7018 15.3548L17.2801 8.11716H33.0945L31.5586 34.4945ZM33.2426 5.56121C33.2284 5.56121 33.2113 5.56121 33.1971 5.56121H17.1774C17.1604 5.56121 17.1461 5.56121 17.1319 5.56121C16.4309 5.53557 15.8667 4.95999 15.8667 4.25047C15.8667 3.5951 16.3511 3.05084 16.9809 2.95396C17.0464 2.94541 17.1119 2.93688 17.1803 2.93688H33.1999C33.2683 2.93688 33.3338 2.94256 33.3994 2.95396C34.0291 3.05084 34.5135 3.59225 34.5135 4.25047C34.5135 4.95714 33.9493 5.53557 33.2483 5.56121H33.2426Z" fill="black"/>
<path d="M27.6203 19.4209C27.834 19.4209 28.0192 19.3439 28.1731 19.1958C28.3269 19.0447 28.4067 18.8595 28.4067 18.6487C28.4067 18.4378 28.3269 18.2498 28.1731 18.1016C28.0192 17.9506 27.8311 17.8765 27.6203 17.8765C27.4094 17.8765 27.2214 17.9534 27.0732 18.1044C26.9222 18.2555 26.8452 18.4407 26.8452 18.6515C26.8452 18.8624 26.9222 19.0504 27.0732 19.1986C27.2242 19.3496 27.4094 19.4266 27.6203 19.4266V19.4209Z" fill="black"/>
<path d="M27.6204 20.2331C27.2728 20.2331 27.1189 20.4297 27.0534 20.5921C27.0135 20.6747 26.9935 20.7631 26.9935 20.8571V22.3502C26.9764 22.5069 26.8853 22.8745 26.4265 22.8745C25.868 22.8745 25.8538 22.3246 25.8538 22.3018V17.6657C25.8538 17.6657 25.8652 17.13 25.3637 17.0474C25.2525 17.0218 25.1357 17.0274 25.036 17.0588C24.7938 17.1186 24.6855 17.2867 24.6399 17.4178C24.6085 17.4948 24.5914 17.5774 24.5914 17.6657V21.2931C24.5743 21.4527 24.486 21.8231 24.0244 21.8231C23.4631 21.8231 23.4517 21.2731 23.4517 21.2503V18.7656C23.4517 18.7656 23.4517 18.7143 23.4374 18.6459V18.6345L23.4061 18.6402L23.4317 18.6288C23.4317 18.6288 23.426 18.606 23.4232 18.5946C23.4232 18.5861 23.4203 18.5804 23.4175 18.5747C23.369 18.4066 23.2465 18.1986 22.9502 18.1501C22.8561 18.1302 22.7592 18.1331 22.6652 18.153C22.4857 18.1872 22.3461 18.2926 22.2663 18.455C22.215 18.5434 22.1894 18.6431 22.1865 18.7514C22.1865 18.7628 22.1865 18.7713 22.1865 18.7713V25.1512C22.1865 25.3877 22.3803 25.5815 22.6168 25.5815H27.8683C28.0763 25.5815 28.2473 25.4105 28.2473 25.2054C28.2473 25.1883 28.2502 25.1712 28.2502 25.1512V20.8571C28.2502 20.7517 28.2245 20.652 28.1789 20.5665C28.1077 20.4154 27.9538 20.2331 27.6204 20.2331Z" fill="black"/>
</svg>
