<svg width="37" height="37" viewBox="0 0 37 37" fill="none" xmlns="http://www.w3.org/2000/svg">
<path d="M35.6324 1.2395C34.9257 0.4787 33.917 0 32.7972 0H16.7775C15.6577 0 14.649 0.475851 13.9424 1.2395C13.3012 1.92907 12.9109 2.85228 12.9109 3.86668C12.9109 5.04351 13.438 6.09782 14.2672 6.80448L14.7431 14.971H3.86672C1.73248 14.971 0 16.7035 0 18.8377C0 20.271 0.777913 21.519 1.93764 22.1886L3.60171 36.6667H33.5694L35.3104 6.8073C36.1396 6.09779 36.6667 5.04351 36.6667 3.86954C36.6667 2.85513 36.2763 1.93192 35.6352 1.24235L35.6324 1.2395ZM2.55313 18.8405C2.55313 18.1168 3.14296 17.5298 3.86387 17.5298H14.8884L15.0394 20.1313H3.6359C3.02042 20.023 2.55028 19.4874 2.55028 18.8405H2.55313ZM5.87841 34.1107L4.56767 22.7044H15.1933L15.8572 34.1107H5.87841ZM31.1587 34.1107H18.416L17.7521 22.7044L17.601 20.1285L17.45 17.5269L17.3019 14.971L16.8802 7.73337H32.6946L31.1587 34.1107ZM32.8427 5.17742C32.8285 5.17742 32.8114 5.17742 32.7972 5.17742H16.7775C16.7604 5.17742 16.7462 5.17742 16.732 5.17742C16.031 5.15178 15.4668 4.5762 15.4668 3.86668C15.4668 3.21131 15.9512 2.66705 16.581 2.57017C16.6465 2.56162 16.712 2.55309 16.7804 2.55309H32.8C32.8684 2.55309 32.9339 2.55877 32.9995 2.57017C33.6292 2.66705 34.1136 3.20846 34.1136 3.86668C34.1136 4.57335 33.5494 5.15178 32.8484 5.17742H32.8427Z" fill="#007131"/>
<path d="M27.2205 19.0371C27.4342 19.0371 27.6194 18.9601 27.7733 18.812C27.9272 18.661 28.0069 18.4758 28.0069 18.2649C28.0069 18.054 27.9272 17.866 27.7733 17.7178C27.6194 17.5668 27.4313 17.4927 27.2205 17.4927C27.0096 17.4927 26.8216 17.5696 26.6734 17.7206C26.5224 17.8717 26.4454 18.0569 26.4454 18.2678C26.4454 18.4786 26.5224 18.6667 26.6734 18.8148C26.8244 18.9658 27.0096 19.0428 27.2205 19.0428V19.0371Z" fill="#007131"/>
<path d="M27.2207 19.8493C26.8731 19.8493 26.7192 20.0459 26.6537 20.2083C26.6138 20.2909 26.5939 20.3793 26.5939 20.4733V21.9664C26.5768 22.1231 26.4856 22.4907 26.0268 22.4907C25.4684 22.4907 25.4541 21.9407 25.4541 21.918V17.2819C25.4541 17.2819 25.4655 16.7462 24.964 16.6636C24.8529 16.6379 24.736 16.6436 24.6363 16.675C24.3941 16.7348 24.2858 16.9029 24.2402 17.034C24.2089 17.1109 24.1918 17.1936 24.1918 17.2819V20.9093C24.1747 21.0688 24.0864 21.4393 23.6247 21.4393C23.0634 21.4393 23.052 20.8893 23.052 20.8665V18.3818C23.052 18.3818 23.052 18.3305 23.0378 18.2621V18.2507L23.0064 18.2564L23.0321 18.245C23.0321 18.245 23.0264 18.2222 23.0235 18.2108C23.0235 18.2023 23.0207 18.1966 23.0178 18.1909C22.9694 18.0228 22.8468 17.8148 22.5505 17.7663C22.4565 17.7464 22.3596 17.7492 22.2656 17.7692C22.086 17.8034 21.9464 17.9088 21.8667 18.0712C21.8154 18.1595 21.7897 18.2593 21.7869 18.3676C21.7869 18.379 21.7869 18.3875 21.7869 18.3875V24.7674C21.7869 25.0039 21.9806 25.1977 22.2171 25.1977H27.4686C27.6767 25.1977 27.8476 25.0267 27.8476 24.8216C27.8476 24.8045 27.8505 24.7873 27.8505 24.7674V20.4733C27.8505 20.3679 27.8249 20.2681 27.7793 20.1827C27.708 20.0316 27.5541 19.8493 27.2207 19.8493Z" fill="#007131"/>
</svg>
