<svg width="37" height="37" viewBox="0 0 37 37" fill="none" xmlns="http://www.w3.org/2000/svg">
<path d="M35.6324 1.2395C34.9257 0.4787 33.917 0 32.7972 0H16.7775C15.6577 0 14.649 0.475851 13.9424 1.2395C13.3012 1.92907 12.9109 2.85228 12.9109 3.86668C12.9109 5.04351 13.438 6.09782 14.2672 6.80448L14.7431 14.971H3.86672C1.73248 14.971 0 16.7035 0 18.8377C0 20.271 0.777913 21.519 1.93764 22.1886L3.60171 36.6667H33.5694L35.3104 6.8073C36.1396 6.09779 36.6667 5.04351 36.6667 3.86954C36.6667 2.85513 36.2763 1.93192 35.6352 1.24235L35.6324 1.2395ZM2.55313 18.8405C2.55313 18.1168 3.14296 17.5298 3.86387 17.5298H14.8884L15.0394 20.1313H3.6359C3.02042 20.023 2.55028 19.4874 2.55028 18.8405H2.55313ZM5.87841 34.1107L4.56767 22.7044H15.1933L15.8572 34.1107H5.87841ZM31.1587 34.1107H18.416L17.7521 22.7044L17.601 20.1285L17.45 17.5269L17.3019 14.971L16.8802 7.73337H32.6946L31.1587 34.1107ZM32.8427 5.17742C32.8285 5.17742 32.8114 5.17742 32.7972 5.17742H16.7775C16.7604 5.17742 16.7462 5.17742 16.732 5.17742C16.031 5.15178 15.4668 4.5762 15.4668 3.86668C15.4668 3.21131 15.9512 2.66705 16.581 2.57017C16.6465 2.56162 16.712 2.55309 16.7804 2.55309H32.8C32.8684 2.55309 32.9339 2.55877 32.9995 2.57017C33.6292 2.66705 34.1136 3.20846 34.1136 3.86668C34.1136 4.57335 33.5494 5.15178 32.8484 5.17742H32.8427Z" fill="#532A1C"/>
</svg>
