<svg width="45" height="44" viewBox="0 0 45 44" fill="none" xmlns="http://www.w3.org/2000/svg">
<path d="M21.5503 24.6464C21.9363 24.2603 22.6033 24.2603 22.9922 24.6464L28.513 30.1672C29.532 31.1862 30.886 31.7454 32.3223 31.7454H33.4037L26.4409 38.7082C24.2667 40.8228 20.7385 40.8228 18.567 38.7082L11.5759 31.7227H12.2429C13.6763 31.7227 15.0331 31.1635 16.0521 30.1445L21.5531 24.6435L21.5503 24.6464ZM22.9922 19.3668C22.5324 19.7614 21.9448 19.767 21.5503 19.3668L16.0493 13.8659C15.0303 12.7844 13.6763 12.2877 12.2401 12.2877H11.573L18.5585 5.29934C20.7384 3.12223 24.2667 3.12223 26.4409 5.29934L33.4122 12.265H32.3223C30.8888 12.265 29.532 12.8242 28.513 13.8432L22.9922 19.364V19.3668ZM12.2429 13.9028C13.2335 13.9028 14.1447 14.303 14.9025 15.0069L20.4035 20.5079C20.9201 20.9592 21.5928 21.2828 22.2741 21.2828C22.9553 21.2828 23.6223 20.9592 24.139 20.5079L29.6598 14.987C30.3637 14.2916 31.3316 13.8886 32.3194 13.8886H35.0216L39.2027 18.0697C41.377 20.2439 41.377 23.7721 39.2027 25.9436L35.0216 30.1246H32.3194C31.3288 30.1246 30.3609 29.7244 29.6598 29.0205L24.139 23.4997C23.1426 22.5034 21.3998 22.5033 20.4035 23.5081L14.9025 29.0006C14.1418 29.7045 13.2307 30.1048 12.2429 30.1048H9.96076L5.79958 25.9464C3.62247 23.7722 3.62247 20.2439 5.79958 18.0725L9.96076 13.9056H12.2429V13.9028Z" fill="#00BDAE"/>
</svg>
