<svg width="30" height="38" viewBox="0 0 30 38" fill="none" xmlns="http://www.w3.org/2000/svg">
<path d="M27.0529 12.2053H23.9119L27.426 5.96317C28.0525 4.84973 28.041 3.5284 27.3975 2.42635C26.7539 1.3243 25.6063 0.666504 24.3277 0.666504C23.0491 0.666504 21.9698 1.29014 21.3149 2.33239L15.124 12.2081H2.73661C1.22734 12.2081 0 13.4355 0 14.9447V18.0003C0 19.1707 0.74039 20.1674 1.7741 20.5604L2.93312 25.1651C2.94451 25.3188 2.98153 25.464 3.04133 25.5979L5.74662 36.365C5.88901 36.9345 6.40158 37.3332 6.98821 37.3332H22.7444C23.331 37.3332 23.8407 36.9345 23.986 36.3678L28.0069 20.5604C29.0435 20.1702 29.7839 19.1707 29.7839 18.0003V14.9447C29.7839 13.4355 28.5565 12.2081 27.0472 12.2081L27.0529 12.2053ZM24.5469 23.7811H5.22833L4.46232 20.7341H25.3215L24.5469 23.7811ZM23.4876 3.69073C23.6699 3.40027 23.9831 3.22656 24.3277 3.22656C24.8403 3.22656 25.0965 3.57112 25.1848 3.71635C25.2703 3.86443 25.444 4.25455 25.1934 4.70164L20.9732 12.2024H18.1539L23.4905 3.69073H23.4876ZM2.56291 14.9419C2.56291 14.8451 2.63979 14.7682 2.73661 14.7682H15.8274C15.8274 14.7682 15.8274 14.7682 15.8303 14.7682C15.8303 14.7682 15.8331 14.7682 15.8359 14.7682H27.0501C27.1469 14.7682 27.2238 14.8451 27.2238 14.9419V17.9974C27.2238 18.0943 27.1469 18.1712 27.0501 18.1712H2.73661C2.63979 18.1712 2.56291 18.0943 2.56291 17.9974V14.9419ZM21.7506 34.7674H7.98774L5.86905 26.344H23.892L21.7477 34.7674H21.7506Z" fill="black"/>
</svg>
