<svg width="30" height="37" viewBox="0 0 30 37" fill="none" xmlns="http://www.w3.org/2000/svg">
<path d="M27.0529 11.5388H23.9119L27.426 5.29667C28.0525 4.18323 28.041 2.86189 27.3975 1.75984C26.7539 0.657794 25.6063 0 24.3277 0C23.0491 0 21.9698 0.623634 21.3149 1.66588L15.124 11.5416H2.73661C1.22734 11.5416 0 12.769 0 14.2782V17.3338C0 18.5042 0.74039 19.5009 1.7741 19.8939L2.93312 24.4986C2.94451 24.6523 2.98153 24.7975 3.04133 24.9314L5.74662 35.6985C5.88901 36.268 6.40158 36.6667 6.98821 36.6667H22.7444C23.331 36.6667 23.8407 36.268 23.986 35.7013L28.0069 19.8939C29.0435 19.5037 29.7839 18.5042 29.7839 17.3338V14.2782C29.7839 12.769 28.5565 11.5416 27.0472 11.5416L27.0529 11.5388ZM24.5469 23.1146H5.22833L4.46232 20.0676H25.3215L24.5469 23.1146ZM23.4876 3.02423C23.6699 2.73377 23.9831 2.56006 24.3277 2.56006C24.8403 2.56006 25.0965 2.90462 25.1848 3.04985C25.2703 3.19793 25.444 3.58805 25.1934 4.03513L20.9732 11.5359H18.1539L23.4905 3.02423H23.4876ZM2.56291 14.2754C2.56291 14.1786 2.63979 14.1017 2.73661 14.1017H15.8274C15.8274 14.1017 15.8274 14.1017 15.8303 14.1017C15.8303 14.1017 15.8331 14.1017 15.8359 14.1017H27.0501C27.1469 14.1017 27.2238 14.1786 27.2238 14.2754V17.3309C27.2238 17.4278 27.1469 17.5047 27.0501 17.5047H2.73661C2.63979 17.5047 2.56291 17.4278 2.56291 17.3309V14.2754ZM21.7506 34.1009H7.98774L5.86905 25.6775H23.892L21.7477 34.1009H21.7506Z" fill="#532A1C"/>
</svg>
