<svg width="176" height="175" viewBox="0 0 176 175" fill="none" xmlns="http://www.w3.org/2000/svg">
<path d="M44.25 65.6252V14.5835H131.75V65.6252" stroke="black" stroke-width="12" stroke-linecap="round" stroke-linejoin="round"/>
<path d="M44.25 131.25H29.6667C25.799 131.25 22.0896 129.714 19.3547 126.979C16.6198 124.244 15.0834 120.534 15.0834 116.667V80.2083C15.0834 76.3406 16.6198 72.6313 19.3547 69.8964C22.0896 67.1615 25.799 65.625 29.6667 65.625H146.333C150.201 65.625 153.91 67.1615 156.645 69.8964C159.38 72.6313 160.917 76.3406 160.917 80.2083V116.667C160.917 120.534 159.38 124.244 156.645 126.979C153.91 129.714 150.201 131.25 146.333 131.25H131.75" stroke="black" stroke-width="12" stroke-linecap="round" stroke-linejoin="round"/>
<path d="M131.75 102.083H44.25V160.417H131.75V102.083Z" stroke="black" stroke-width="12" stroke-linecap="round" stroke-linejoin="round"/>
</svg>
