<svg width="44" height="44" viewBox="0 0 44 44" fill="none" xmlns="http://www.w3.org/2000/svg">
<path d="M42.6425 20.9426C43.5122 19.0598 44 16.9656 44 14.7553C44 6.60682 37.3932 0 29.2447 0C24.0465 0 19.476 2.68775 16.8462 6.75008C15.342 6.0645 13.6707 5.68248 11.9107 5.68248C5.33457 5.68248 0 11.0171 0 17.5966C0 18.8791 0.204651 20.1104 0.576434 21.2667C0.225116 21.5498 0 21.9795 0 22.4673V28.675C0 29.5243 0.688992 30.2099 1.53488 30.2099H3.03566L4.44775 38.5972L5.11969 42.5845L5.34481 43.9147H38.6586L40.9643 30.2099H42.4651C43.3144 30.2099 44 29.5209 44 28.675V22.4673C44 21.6794 43.4065 21.0313 42.6425 20.9426ZM18.0878 11.2695C18.4118 10.236 18.8757 9.26388 19.4555 8.37705C21.5429 5.18109 25.1516 3.06636 29.2447 3.06636C35.6912 3.06636 40.9336 8.30884 40.9336 14.7553C40.9336 17.0202 40.2856 19.1383 39.1634 20.9324H19.3259C18.2037 19.1383 17.5557 17.0236 17.5557 14.7553C17.5557 13.5411 17.7433 12.3712 18.0878 11.2695ZM11.9141 8.74884C13.1727 8.74884 14.3733 9.01488 15.458 9.4924C14.8338 11.1262 14.4927 12.8998 14.4927 14.7553C14.4927 16.9622 14.9771 19.053 15.8434 20.9324H3.72124C3.30171 19.9023 3.06636 18.7767 3.06636 17.6C3.06636 12.7225 7.03659 8.75225 11.9141 8.75225V8.74884ZM6.14636 30.2099H10.7067L6.98543 35.1966L6.14636 30.2099ZM11.2831 40.8484H7.93705L7.69147 39.3817L14.5336 30.2099H19.0837L11.5389 40.3231C11.4195 40.4868 11.3343 40.6642 11.2865 40.8484H11.2831ZM19.6567 40.8484H14.9668L22.9039 30.2099H27.454L19.9091 40.3231C19.7898 40.4868 19.7045 40.6642 19.6567 40.8484ZM28.0304 40.8484H23.3405L31.2775 30.2099H35.8276L28.2828 40.3231C28.16 40.4868 28.0781 40.6642 28.0304 40.8484ZM36.0629 40.8484H31.7175L37.3318 33.3274L36.0664 40.8484H36.0629ZM40.9336 27.1436H3.06636V23.9953H40.9336V27.1436Z" fill="#532A1C"/>
</svg>
