<svg width="48" height="48" viewBox="0 0 48 48" fill="none" xmlns="http://www.w3.org/2000/svg">
<path d="M44.6425 22.9426C45.5122 21.0598 46 18.9656 46 16.7553C46 8.60682 39.3932 2 31.2447 2C26.0465 2 21.476 4.68775 18.8462 8.75008C17.342 8.0645 15.6707 7.68248 13.9107 7.68248C7.33457 7.68248 2 13.0171 2 19.5966C2 20.8791 2.20465 22.1104 2.57643 23.2667C2.22512 23.5498 2 23.9795 2 24.4673V30.675C2 31.5243 2.68899 32.2099 3.53488 32.2099H5.03566L6.44775 40.5972L7.11969 44.5845L7.34481 45.9147H40.6586L42.9643 32.2099H44.4651C45.3144 32.2099 46 31.5209 46 30.675V24.4673C46 23.6794 45.4065 23.0313 44.6425 22.9426ZM20.0878 13.2695C20.4118 12.236 20.8757 11.2639 21.4555 10.3771C23.5429 7.18109 27.1516 5.06636 31.2447 5.06636C37.6912 5.06636 42.9336 10.3088 42.9336 16.7553C42.9336 19.0202 42.2856 21.1383 41.1634 22.9324H21.3259C20.2037 21.1383 19.5557 19.0236 19.5557 16.7553C19.5557 15.5411 19.7433 14.3712 20.0878 13.2695ZM13.9141 10.7488C15.1727 10.7488 16.3733 11.0149 17.458 11.4924C16.8338 13.1262 16.4927 14.8998 16.4927 16.7553C16.4927 18.9622 16.9771 21.053 17.8434 22.9324H5.72124C5.30171 21.9023 5.06636 20.7767 5.06636 19.6C5.06636 14.7225 9.03659 10.7522 13.9141 10.7522V10.7488ZM8.14636 32.2099H12.7067L8.98543 37.1966L8.14636 32.2099ZM13.2831 42.8484H9.93705L9.69147 41.3817L16.5336 32.2099H21.0837L13.5389 42.3231C13.4195 42.4868 13.3343 42.6642 13.2865 42.8484H13.2831ZM21.6567 42.8484H16.9668L24.9039 32.2099H29.454L21.9091 42.3231C21.7898 42.4868 21.7045 42.6642 21.6567 42.8484ZM30.0304 42.8484H25.3405L33.2775 32.2099H37.8276L30.2828 42.3231C30.16 42.4868 30.0781 42.6642 30.0304 42.8484ZM38.063 42.8484H33.7175L39.3318 35.3274L38.0664 42.8484H38.063ZM42.9336 29.1436H5.06636V25.9953H42.9336V29.1436Z" fill="black"/>
</svg>
