<svg width="30" height="20" viewBox="0 0 30 20" fill="none" xmlns="http://www.w3.org/2000/svg">
<path d="M15 3.84651C11.7884 3.84651 9.18604 6.44884 9.18604 9.66047C9.18604 12.8721 11.7884 15.4744 15 15.4744C18.2116 15.4744 20.8139 12.8721 20.8139 9.66047C20.8139 6.44884 18.2116 3.84651 15 3.84651ZM15 13.3814C12.9442 13.3814 11.2791 11.7163 11.2791 9.66047C11.2791 7.60465 12.9442 5.93954 15 5.93954C17.0558 5.93954 18.7209 7.60465 18.7209 9.66047C18.7209 11.7163 17.0558 13.3814 15 13.3814Z" fill="#242729"/>
<path d="M15.0233 2.09302C19.0233 2.09302 22.414 3.46744 25.1 6.17674C26.414 7.50233 27.2465 8.84884 27.6814 9.66047C27.2465 10.4744 26.414 11.8209 25.1 13.1465C22.414 15.8558 19.0233 17.2302 15.0233 17.2302C11.0233 17.2302 7.62093 15.8558 4.92093 13.1419C3.60465 11.8209 2.76512 10.4744 2.32558 9.66047C2.76744 8.84419 3.60465 7.5 4.92093 6.17907C7.62326 3.46744 11.0209 2.0907 15.0233 2.0907M15.0233 0C3.82326 0 0 9.66047 0 9.66047C0 9.66047 3.82326 19.3209 15.0233 19.3209C26.2233 19.3209 30 9.66047 30 9.66047C30 9.66047 26.2209 0 15.0233 0Z" fill="#242729"/>
</svg>
