<svg width="554" height="81" viewBox="0 0 554 81" fill="none" xmlns="http://www.w3.org/2000/svg">
<path d="M69.7104 8.58497H105.86V20.1748H93.3501V72.6148H81.7603V20.1748H69.7104V8.58497ZM121.69 8.58497V35.095H141.47V8.58497H153.06V72.6148H141.47V46.6848H121.69V72.6148H109.97V8.58497H121.69ZM168.57 20.1748H191.76V8.58497H156.94V72.6148H191.76V60.8948H168.57V46.6848H185.86V35.095H168.57V20.1748ZM227.3 45.4448V60.9048H234.45C236.61 60.9048 238.56 59.9948 239.93 58.6148C241.3 57.1648 242.22 55.3348 242.22 53.1748C242.22 51.0148 241.31 49.0648 239.93 47.6948C238.56 46.2448 236.73 45.4548 234.45 45.4548H227.3V45.4448ZM227.3 20.3049V33.605H233.99C235.94 33.605 237.52 32.9448 238.69 31.6548C239.94 30.5348 240.6 28.9549 240.6 27.0049C240.6 25.0549 239.94 23.4749 238.69 22.2249C237.44 20.9749 235.82 20.3149 233.99 20.3149H227.3V20.3049ZM227.3 8.58497V8.6648H233.99C239.02 8.6648 243.46 10.6149 246.95 14.0249C250.27 17.3449 252.31 21.8749 252.31 26.9849C252.31 31.5549 250.61 35.7549 247.78 39.0349L248.24 39.4048C251.73 42.8948 253.89 47.7948 253.89 53.1548C253.89 58.5148 251.73 63.2549 248.24 66.7849C244.71 70.3149 239.8 72.4749 234.44 72.4749H227.29V72.595H215.18V8.56495H227.29L227.3 8.58497ZM270.18 20.1748H293.37V8.58497H258.59V72.6148H293.37V60.8948H270.18V46.6848H287.47V35.095H270.18V20.1748ZM336.25 18.4749C334.09 14.7349 331.26 12.1148 327.73 10.4148C324.07 8.6648 320 8.00497 316.01 8.58497C311.56 9.12497 308.03 11.2048 305.33 13.9048C302.46 16.9748 300.68 20.845 300.3 24.835C300.09 27.705 300.67 30.5648 301.92 33.3948C303.17 36.0148 304.75 38.2149 307.24 40.2549C309.07 41.6249 310.77 42.7448 312.72 43.4548C314.17 44.0348 315.79 44.6148 317.5 44.9548C318.75 45.2848 319.74 45.615 321.03 46.075C321.82 46.405 322.73 46.785 323.4 47.575C324.77 48.365 325.44 49.5249 325.89 50.5249C326.35 51.5649 326.47 52.605 326.47 53.845C326.22 55.675 325.56 57.1649 324.43 58.2949C323.18 59.5449 321.81 60.245 319.98 60.585C318.03 60.915 315.87 60.5848 313.95 59.6748C312.33 58.9648 311.08 57.7249 310.09 56.0149C309.72 55.4749 309.63 54.8549 309.51 54.5149C309.39 54.1749 309.18 53.6049 309.05 52.8149L297.58 54.3948C297.79 55.9348 298.04 57.1748 298.37 58.1748C298.83 59.4248 299.16 60.335 299.82 61.585C301.9 65.575 305.3 68.4448 308.92 70.1448C312.91 72.0548 317.36 72.6349 321.43 72.0549C326.13 71.5149 329.99 69.4348 332.82 66.3648C335.89 63.0848 337.6 59.2149 338.06 54.7749C338.31 51.7049 337.85 48.8349 336.48 45.7549C335.23 42.8849 333.28 40.5148 330.66 38.4448C328.96 36.9448 327.13 35.9549 325.34 35.2449C323.72 34.5849 322.14 34.2449 320.56 33.7949C319.27 33.4249 318.27 33.0848 317.03 32.6348C316.24 32.3048 315.33 31.8449 314.5 31.2649C313.5 30.3549 312.8 29.4348 312.46 28.6448C312 27.8548 311.92 26.8149 312 25.8149C312.12 24.3149 312.71 23.0349 313.7 22.0349C314.74 20.9949 315.99 20.335 317.48 20.085C319.18 19.875 320.89 20.2049 322.72 20.9949C324.05 21.7849 325.21 22.6949 326 24.0649L336.22 18.4949L336.25 18.4749ZM341.48 8.58497H377.67V20.1748H365.16V72.6148H353.53V20.1748H341.48V8.58497Z" fill="white"/>
<path d="M437.2 53.1051C435.66 54.6451 434.54 55.7649 433.29 55.9349C432.46 56.0149 432.38 54.1851 432.38 52.5651C432.38 46.3751 437.28 26.5549 440.27 22.1449C437.94 20.9349 435.62 20.235 433.12 20.235C431.08 20.235 429.34 20.9451 428.05 22.3151C425.97 20.6951 423.31 20.0751 420.2 20.0751C407.28 20.0751 395.14 37.7349 394.85 53.1949C394.85 59.8049 397.09 64.535 403.49 64.535H404.4C409.68 64.285 415.54 59.215 421.56 49.455C421.31 51.115 421.14 54.0249 421.14 55.9349C421.14 61.7149 423.88 64.455 428.29 64.455C433.98 64.455 442.5 55.6851 442.5 49.8251C442.5 49.3651 442.42 49.1149 442.08 49.1149C441.29 49.1149 439.67 50.4051 437.18 53.1051H437.2ZM416.43 48.705C413.31 53.355 410.9 56.1051 409.2 56.1051C407.5 56.1051 406.75 54.7349 406.58 51.9049C406.58 41.4749 412.98 26.1051 419.42 26.1051C421.87 26.1051 424.95 27.475 425.82 30.755C424.07 35.655 420.54 42.765 416.43 48.705ZM464.34 72.8451C464.34 70.2251 461.43 68.8551 457.36 68.1051C457.36 67.7351 457.82 66.6949 458.07 66.1949C457.9 66.1149 457.61 66.1149 457.2 66.1149C455.99 66.1149 454.79 66.6949 454 67.6549C453.17 68.5249 452.79 69.815 453 71.025C455.66 71.645 457.2 71.815 457.2 73.975C457.2 75.515 454.08 76.465 450.55 76.465C449.34 76.465 447.56 76.175 446.93 76.005C446.68 76.545 446.43 76.9649 446.43 77.9149C446.43 79.9049 448.92 80.0751 451.5 80.0751C459.69 80.0751 464.34 76.7951 464.34 72.8451ZM475.22 50.785C471.52 55.145 465.91 57.9349 460.22 57.9349C455.9 57.9349 454.15 53.7749 454.15 48.8749C454.15 34.3749 459.18 25.6051 465.91 25.6051C469.15 25.6051 470.56 27.2249 471.6 31.8749C475.96 30.5049 479.16 28.0951 479.16 25.0651C479.16 21.6951 475.96 19.995 469.06 19.995C454.18 19.995 441.68 35.075 441.68 51.035C441.68 60.095 446.58 64.6249 456.14 64.6249C462.95 64.6249 475.88 60.425 475.88 53.535C475.88 52.575 475.71 51.705 475.22 50.795V50.785ZM520.14 53.1051C518.64 54.6451 517.52 55.7649 516.23 55.9349C515.44 56.0149 515.36 54.1851 515.36 52.5651C515.36 46.3751 520.22 26.5549 523.21 22.1449C520.88 20.9349 518.56 20.235 516.06 20.235C514.07 20.235 512.28 20.9451 510.99 22.3151C508.91 20.6951 506.25 20.0751 503.14 20.0751C490.22 20.0751 478.13 37.7349 477.79 53.1949C477.79 59.8049 480.03 64.535 486.47 64.535H487.34C492.62 64.285 498.48 59.215 504.5 49.455C504.25 51.115 504.08 54.0249 504.08 55.9349C504.08 61.7149 506.82 64.455 511.23 64.455C516.92 64.455 525.44 55.6851 525.44 49.8251C525.44 49.3651 525.36 49.1149 525.02 49.1149C524.23 49.1149 522.61 50.4051 520.12 53.1051H520.14ZM499.37 48.705C496.25 53.355 493.84 56.1051 492.18 56.1051C490.52 56.1051 489.69 54.7349 489.52 51.9049C489.52 41.4749 495.92 26.1051 502.36 26.1051C504.85 26.1051 507.89 27.475 508.76 30.755C507.01 35.655 503.48 42.765 499.37 48.705ZM543.99 53.025C542.37 54.565 540.79 55.8551 540.04 55.8551C539.25 55.8551 539.17 54.0249 539.17 52.4049C539.17 50.0749 539.71 45.5049 540.38 42.6849C540.88 40.4449 542.62 34.205 543.83 29.725C544.25 28.275 544.45 26.9849 544.7 25.6949C545.03 23.9449 544.7 22.575 543.74 21.535C542.78 20.495 541.08 20.245 539.71 20.245C537.26 20.245 534.52 20.8649 531.69 21.9049C532.52 23.1149 532.9 24.3949 532.9 25.9349C532.9 27.1449 532.82 28.675 532.53 30.255C531.95 33.245 530.91 39.145 529.54 43.965C527.96 49.995 527.79 55.1449 527.96 56.8849C528.25 61.8749 530.83 64.285 535.11 64.285C539.39 64.285 545.75 59.2951 547.99 54.1051C548.9 51.9851 549.28 50.575 549.28 49.745C549.28 48.165 547.53 49.205 544 53.025H543.99ZM531.49 13.265C531.49 14.225 533.57 14.8849 534.86 14.6349C539.8 13.7249 545.21 11.7249 548.49 9.8949C551.69 8.3549 553.48 6.52499 553.48 4.995C553.48 2.585 550.49 0.924927 544.38 0.924927C541.18 5.16493 537.9 8.69498 532.04 12.475C531.62 12.685 531.5 12.935 531.5 13.265H531.49Z" fill="white"/>
<path d="M42.7202 25.8451C44.3702 25.8451 45.82 25.2551 47.02 24.0851C48.22 22.9151 48.8301 21.4851 48.8301 19.8251C48.8301 18.1651 48.22 16.7351 47.02 15.5651C45.82 14.3951 44.3702 13.8051 42.7202 13.8051C41.0702 13.8051 39.6304 14.3951 38.4604 15.5651C37.2904 16.7351 36.7002 18.1651 36.7002 19.8251C36.7002 21.4851 37.2904 22.9151 38.4604 24.0851C39.6304 25.2551 41.0602 25.8451 42.7202 25.8451Z" fill="#F9A01B"/>
<path d="M42.7104 32.165C40.0005 32.165 38.8103 33.685 38.3003 34.945C37.9903 35.585 37.8301 36.2751 37.8301 37.0151V48.6052C37.6901 49.8252 36.9902 52.665 33.4302 52.665C29.0902 52.665 28.98 48.395 28.98 48.215V12.225C28.98 12.225 29.0702 8.06499 25.1802 7.42499C24.3202 7.23499 23.4101 7.27507 22.6401 7.50507C20.7501 7.96507 19.9203 9.28512 19.5503 10.3051C19.3103 10.8951 19.1802 11.545 19.1802 12.235V40.405C19.0502 41.645 18.37 44.5151 14.77 44.5151C10.42 44.5151 10.3203 40.2351 10.3203 40.0651V20.7851C10.3203 20.7851 10.3204 20.3952 10.2104 19.8552L10.1904 19.7551L9.97021 19.8051L10.1802 19.715C10.1602 19.635 10.1401 19.545 10.1201 19.455C10.1101 19.395 10.0903 19.3451 10.0703 19.2951C9.69031 17.9951 8.7502 16.3651 6.4502 15.9951C5.7302 15.8451 4.97023 15.8551 4.24023 16.0251C2.84023 16.3051 1.77014 17.1149 1.14014 18.3749C0.750137 19.0649 0.54002 19.835 0.52002 20.675C0.52002 20.765 0.52002 20.8151 0.52002 20.8251V70.3552C0.52002 72.1952 2.0201 73.685 3.8501 73.685H44.6304C46.2504 73.685 47.5703 72.3651 47.5703 70.7651C47.5803 70.6251 47.5903 70.4952 47.5903 70.3452V37.0051C47.5903 36.1851 47.4003 35.4251 47.0303 34.7451C46.4803 33.5651 45.2904 32.155 42.6904 32.155L42.7104 32.165Z" fill="#F9A01B"/>
</svg>
