<svg width="44" height="44" viewBox="0 0 44 44" fill="none" xmlns="http://www.w3.org/2000/svg">
<g clip-path="url(#clip0_1011_450)">
<path d="M38.4999 7.3335H5.49992C3.47487 7.3335 1.83325 8.97512 1.83325 11.0002V33.0002C1.83325 35.0252 3.47487 36.6668 5.49992 36.6668H38.4999C40.525 36.6668 42.1666 35.0252 42.1666 33.0002V11.0002C42.1666 8.97512 40.525 7.3335 38.4999 7.3335Z" stroke="#7E3AFC" stroke-width="4" stroke-linecap="round" stroke-linejoin="round"/>
<path d="M1.83325 18.3335H42.1666" stroke="#7E3AFC" stroke-width="4" stroke-linecap="round" stroke-linejoin="round"/>
<path d="M7.33325 22.9167C7.33325 22.4104 7.74366 22 8.24992 22H13.7499C14.2562 22 14.6666 22.4104 14.6666 22.9167V28.4167C14.6666 28.9229 14.2562 29.3333 13.7499 29.3333H8.24992C7.74366 29.3333 7.33325 28.9229 7.33325 28.4167V22.9167Z" fill="#7E3AFC"/>
</g>
<defs>
<clipPath id="clip0_1011_450">
<rect width="44" height="44" fill="white"/>
</clipPath>
</defs>
</svg>
