<svg width="150" height="150" viewBox="0 0 150 150" fill="none" xmlns="http://www.w3.org/2000/svg">
<path d="M146.5 74.75C146.5 114.375 113.125 142.75 73.5 142.75C33.875 142.75 3.5 115.875 3.5 76.25C3.5 36.625 32.875 7.25 72.5 7.25C112.125 7.25 146.5 35.125 146.5 74.75Z" fill="#7074B7"/>
<path d="M73.5 144.75C31.78 144.75 1.5 115.94 1.5 76.25C1.5 56.55 8.685 38.52 21.725 25.475C34.765 12.43 52.8 5.25 72.5 5.25C92.2 5.25 111.475 12.135 125.68 24.64C140.395 37.59 148.5 55.385 148.5 74.75C148.5 94.115 140.58 112.065 126.205 125.09C112.215 137.765 93.495 144.75 73.5 144.75ZM72.5 9.25C33.68 9.25 5.5 37.43 5.5 76.25C5.5 115.07 34.1 140.75 73.5 140.75C112.9 140.75 144.5 111.76 144.5 74.75C144.5 37.74 112.875 9.25 72.5 9.25Z" fill="#271F3D"/>
<path d="M98.25 86.25C103.911 86.25 108.5 79.5343 108.5 71.25C108.5 62.9657 103.911 56.25 98.25 56.25C92.5891 56.25 88 62.9657 88 71.25C88 79.5343 92.5891 86.25 98.25 86.25Z" fill="#271F3D"/>
<path d="M98.25 79C100.597 79 102.5 75.5302 102.5 71.25C102.5 66.9698 100.597 63.5 98.25 63.5C95.9028 63.5 94 66.9698 94 71.25C94 75.5302 95.9028 79 98.25 79Z" fill="white"/>
<path d="M51.75 86.25C57.4109 86.25 62 79.5343 62 71.25C62 62.9657 57.4109 56.25 51.75 56.25C46.0891 56.25 41.5 62.9657 41.5 71.25C41.5 79.5343 46.0891 86.25 51.75 86.25Z" fill="#271F3D"/>
<path d="M51.75 79C54.0972 79 56 75.5302 56 71.25C56 66.9698 54.0972 63.5 51.75 63.5C49.4028 63.5 47.5 66.9698 47.5 71.25C47.5 75.5302 49.4028 79 51.75 79Z" fill="white"/>
<g style="mix-blend-mode:overlay">
<path d="M37.345 22.0098C35.375 23.6048 33.575 25.5348 32.735 27.9248C31.895 30.3148 32.205 33.2298 34.01 35.0098C36.015 36.9848 39.31 37.0748 41.92 36.0198C44.53 34.9648 46.635 32.9898 48.755 31.1398C50.875 29.2898 53.175 27.4648 55.915 26.8398C58.345 26.2848 60.885 26.7198 63.365 26.4548C65.845 26.1898 68.545 24.8548 69.065 22.4198C69.71 19.4048 66.7 16.8548 63.805 15.7998C55.29 12.6898 44.125 16.5298 37.345 22.0198V22.0098Z" fill="white"/>
</g>
<g style="mix-blend-mode:overlay" opacity="0.5">
<path d="M116.56 106.94C109.515 116.73 99.565 124.4 88.3 128.72C87.255 129.12 86.015 129.72 85.945 130.84C85.84 132.445 88.065 132.96 89.665 132.825C101.855 131.82 113.65 126.545 122.535 118.14C131.42 109.73 137.33 98.2449 139.005 86.1249C139.505 82.4899 139.565 78.5149 137.5 75.4799C136.025 73.3099 131.56 70.9899 129.095 73.0399C126.995 74.7849 127.465 80.9249 126.895 83.5749C125.095 91.9599 121.57 99.9749 116.56 106.935V106.94Z" fill="black"/>
</g>
<g style="mix-blend-mode:overlay">
<path d="M71.2351 21.4802C71.1401 22.8602 71.8751 24.2152 72.9601 25.0652C74.0451 25.9202 75.4401 26.3102 76.8201 26.3852C78.2451 26.4602 79.8351 26.1252 80.6601 24.9602C81.3951 23.9152 81.2951 22.4302 80.6151 21.3452C79.9401 20.2602 78.7801 19.5502 77.5651 19.1652C75.1701 18.4052 71.4801 18.0202 71.2351 21.4802Z" fill="white"/>
</g>
<path d="M47.775 101.41C56.78 99.4302 65.86 98.9802 75 98.9102C84.145 98.9652 93.225 99.4202 102.225 101.41C93.22 103.4 84.14 103.85 75 103.91C65.855 103.845 56.78 103.39 47.775 101.41Z" fill="#271F3D"/>
</svg>
