<svg width="151" height="150" viewBox="0 0 151 150" fill="none" xmlns="http://www.w3.org/2000/svg">
<path d="M147 74.75C147 114.375 113.625 142.75 74 142.75C34.375 142.75 4 115.875 4 76.25C4 36.625 33.375 7.25 73 7.25C112.625 7.25 147 35.125 147 74.75Z" fill="#60C251"/>
<path d="M74 144.75C32.28 144.75 2 115.94 2 76.25C2 56.55 9.185 38.52 22.225 25.475C35.265 12.43 53.3 5.25 73 5.25C92.7 5.25 111.975 12.135 126.18 24.64C140.895 37.59 149 55.385 149 74.75C149 94.115 141.08 112.065 126.705 125.09C112.715 137.765 93.995 144.75 74 144.75ZM73 9.25C34.18 9.25 6 37.43 6 76.25C6 115.07 34.6 140.75 74 140.75C113.4 140.75 145 111.76 145 74.75C145 37.74 113.375 9.25 73 9.25Z" fill="#271F3D"/>
<path d="M98.75 86.25C104.411 86.25 109 79.5343 109 71.25C109 62.9657 104.411 56.25 98.75 56.25C93.0891 56.25 88.5 62.9657 88.5 71.25C88.5 79.5343 93.0891 86.25 98.75 86.25Z" fill="#271F3D"/>
<path d="M98.75 73.5C101.097 73.5 103 70.0302 103 65.75C103 61.4698 101.097 58 98.75 58C96.4028 58 94.5 61.4698 94.5 65.75C94.5 70.0302 96.4028 73.5 98.75 73.5Z" fill="white"/>
<path d="M52.25 86.25C57.9109 86.25 62.5 79.5343 62.5 71.25C62.5 62.9657 57.9109 56.25 52.25 56.25C46.5891 56.25 42 62.9657 42 71.25C42 79.5343 46.5891 86.25 52.25 86.25Z" fill="#271F3D"/>
<path d="M52.25 73.5C54.5972 73.5 56.5 70.0302 56.5 65.75C56.5 61.4698 54.5972 58 52.25 58C49.9028 58 48 61.4698 48 65.75C48 70.0302 49.9028 73.5 52.25 73.5Z" fill="white"/>
<g style="mix-blend-mode:overlay">
<path d="M37.845 22.0098C35.875 23.6048 34.075 25.5348 33.235 27.9248C32.395 30.3148 32.705 33.2298 34.51 35.0098C36.515 36.9848 39.81 37.0748 42.42 36.0198C45.03 34.9648 47.135 32.9898 49.255 31.1398C51.375 29.2898 53.675 27.4648 56.415 26.8398C58.845 26.2848 61.385 26.7198 63.865 26.4548C66.345 26.1898 69.045 24.8548 69.565 22.4198C70.21 19.4048 67.2 16.8548 64.305 15.7998C55.79 12.6898 44.625 16.5298 37.845 22.0198V22.0098Z" fill="white"/>
</g>
<g style="mix-blend-mode:overlay" opacity="0.5">
<path d="M117.06 106.94C110.015 116.73 100.065 124.4 88.8 128.72C87.755 129.12 86.515 129.72 86.445 130.84C86.34 132.445 88.565 132.96 90.165 132.825C102.355 131.82 114.15 126.545 123.035 118.14C131.92 109.73 137.83 98.2449 139.505 86.1249C140.005 82.4899 140.065 78.5149 138 75.4799C136.525 73.3099 132.06 70.9899 129.595 73.0399C127.495 74.7849 127.965 80.9249 127.395 83.5749C125.595 91.9599 122.07 99.9749 117.06 106.935V106.94Z" fill="black"/>
</g>
<path d="M44.25 93.5C52.985 99.16 62.385 103.535 72.795 103.945C85.13 104.675 96.775 99.195 106.75 92C105.905 95.15 104.25 98 102.315 100.615C92.31 114.01 73.32 117.855 58.665 109.79C52.22 106.165 46.68 100.535 44.25 93.5Z" fill="#271F3D"/>
<g style="mix-blend-mode:overlay">
<path d="M71.735 21.4802C71.64 22.8602 72.375 24.2152 73.46 25.0652C74.545 25.9202 75.94 26.3102 77.32 26.3852C78.745 26.4602 80.335 26.1252 81.16 24.9602C81.895 23.9152 81.795 22.4302 81.115 21.3452C80.44 20.2602 79.28 19.5502 78.065 19.1652C75.67 18.4052 71.98 18.0202 71.735 21.4802Z" fill="white"/>
</g>
</svg>
