<svg width="150" height="150" viewBox="0 0 150 150" fill="none" xmlns="http://www.w3.org/2000/svg">
<path d="M146.5 74.75C146.5 114.375 113.125 142.75 73.5 142.75C33.875 142.75 3.5 115.875 3.5 76.25C3.5 36.625 32.875 7.25 72.5 7.25C112.125 7.25 146.5 35.125 146.5 74.75Z" fill="#E8015A"/>
<path d="M73.5 144.75C31.78 144.75 1.5 115.94 1.5 76.25C1.5 56.55 8.685 38.52 21.725 25.475C34.77 12.43 52.8 5.25 72.5 5.25C92.2 5.25 111.475 12.135 125.68 24.64C140.395 37.59 148.5 55.385 148.5 74.75C148.5 94.115 140.58 112.065 126.205 125.09C112.215 137.765 93.495 144.75 73.5 144.75ZM72.5 9.25C33.675 9.25 5.5 37.43 5.5 76.25C5.5 115.07 34.1 140.75 73.5 140.75C112.9 140.75 144.5 111.76 144.5 74.75C144.5 37.74 112.875 9.25 72.5 9.25Z" fill="#271F3D"/>
<g style="mix-blend-mode:overlay" opacity="0.5">
<path d="M59.615 67.79C62.51 69.185 65.655 70.425 68.845 70.05C71.115 69.78 73.305 68.7 75.585 68.9C78.15 69.12 80.335 70.915 82.87 71.37C86.47 72.015 89.94 69.88 92.89 67.715C102.185 60.89 110.54 52.79 117.65 43.71C108.375 49.915 98.54 55.28 88.3 59.72C86.43 60.53 84.405 61.325 82.41 60.93C79.68 60.385 77.62 57.715 74.84 57.6C71.89 57.475 69.64 60.235 66.81 61.06C63.56 62.01 60.18 60.295 57.25 58.605C53.28 56.315 49.35 53.96 45.46 51.535C43.595 50.375 41.74 49.2 39.895 48.01C38.635 47.2 35.46 44.005 33.84 44.765C28.84 42.265 38.02 52.225 39.25 53.435C42.105 56.245 45.18 58.835 48.44 61.165C51.97 63.69 55.715 65.92 59.625 67.805L59.615 67.79Z" fill="black"/>
</g>
<path d="M47.75 119.75C44.685 105.83 53.595 95.2102 67.925 95.4402C79.56 95.6552 90.425 102.16 97.45 111.125C99.365 113.64 101.06 116.32 102.25 119.25C100.85 118.54 99.515 117.775 98.17 117.015C89.82 112.345 80.51 107.455 71.315 105.78C58.05 103.515 53.265 108.085 47.75 119.75Z" fill="#271F3D"/>
<path d="M83.615 44.7351C85.2 48.1251 85.625 52.3901 84.985 56.4151L121.195 41.7451L88.38 65.7451C85.8 67.6801 81.315 67.2801 80.195 64.2451C79.155 61.4201 80.195 48.7451 83.615 44.7301V44.7351Z" fill="#271F3D"/>
<path d="M98.5551 86.25C104.216 86.25 108.805 79.5343 108.805 71.25C108.805 62.9657 104.216 56.25 98.5551 56.25C92.8941 56.25 88.3051 62.9657 88.3051 71.25C88.3051 79.5343 92.8941 86.25 98.5551 86.25Z" fill="#271F3D"/>
<path d="M96.0551 78.25C98.4023 78.25 100.305 74.7802 100.305 70.5C100.305 66.2198 98.4023 62.75 96.0551 62.75C93.7078 62.75 91.8051 66.2198 91.8051 70.5C91.8051 74.7802 93.7078 78.25 96.0551 78.25Z" fill="white"/>
<path d="M66.3851 44.7351C64.8001 48.1251 64.3751 52.3901 65.0151 56.4151L28.8051 41.7451L61.6201 65.7451C64.2001 67.6801 68.6851 67.2801 69.8051 64.2451C70.8451 61.4201 69.8051 48.7451 66.3851 44.7301V44.7351Z" fill="#271F3D"/>
<path d="M52.0551 86.25C57.716 86.25 62.3051 79.5343 62.3051 71.25C62.3051 62.9657 57.716 56.25 52.0551 56.25C46.3941 56.25 41.8051 62.9657 41.8051 71.25C41.8051 79.5343 46.3941 86.25 52.0551 86.25Z" fill="#271F3D"/>
<path d="M49.5551 78.25C51.9023 78.25 53.8051 74.7802 53.8051 70.5C53.8051 66.2198 51.9023 62.75 49.5551 62.75C47.2078 62.75 45.3051 66.2198 45.3051 70.5C45.3051 74.7802 47.2078 78.25 49.5551 78.25Z" fill="white"/>
<g style="mix-blend-mode:overlay">
<path d="M37.345 22.0098C35.375 23.6048 33.575 25.5348 32.735 27.9248C31.895 30.3148 32.205 33.2298 34.01 35.0098C36.015 36.9848 39.31 37.0748 41.92 36.0198C44.53 34.9648 46.635 32.9898 48.755 31.1398C50.875 29.2898 53.175 27.4648 55.915 26.8398C58.345 26.2848 60.885 26.7198 63.365 26.4548C65.845 26.1898 68.545 24.8548 69.065 22.4198C69.71 19.4048 66.7 16.8548 63.805 15.7998C55.29 12.6898 44.125 16.5298 37.345 22.0198V22.0098Z" fill="white"/>
</g>
<g style="mix-blend-mode:overlay" opacity="0.5">
<path d="M116.56 106.94C109.515 116.73 99.565 124.4 88.3 128.72C87.255 129.12 86.015 129.72 85.945 130.84C85.84 132.445 88.065 132.96 89.665 132.825C101.855 131.82 113.65 126.545 122.535 118.14C131.42 109.735 137.33 98.2449 139.005 86.1249C139.505 82.4899 139.565 78.5149 137.5 75.4799C136.025 73.3099 131.56 70.9899 129.095 73.0399C126.995 74.7849 127.465 80.9249 126.895 83.5749C125.095 91.9599 121.57 99.9749 116.56 106.935V106.94Z" fill="black"/>
</g>
<g style="mix-blend-mode:overlay">
<path d="M71.2351 21.4802C71.1401 22.8602 71.8751 24.2152 72.9601 25.0652C74.0451 25.9152 75.4401 26.3102 76.8201 26.3852C78.2451 26.4602 79.8351 26.1252 80.6601 24.9602C81.3951 23.9152 81.2951 22.4302 80.6151 21.3452C79.9351 20.2602 78.7801 19.5502 77.5651 19.1652C75.1701 18.4052 71.4801 18.0202 71.2351 21.4802Z" fill="white"/>
</g>
<g style="mix-blend-mode:overlay" opacity="0.5">
<path d="M62.7401 113.155C65.0201 111.85 67.9951 111.305 70.7151 111.46C73.4351 111.615 75.9151 112.42 78.0001 113.525C78.9751 114.045 79.8951 114.645 80.4101 115.44C80.9251 116.235 80.9701 117.25 80.2651 118.075C79.6251 118.825 78.4551 119.32 77.2851 119.535C76.1151 119.75 74.9251 119.73 73.7601 119.69C69.6101 119.55 64.8101 119.515 60.9251 118.67C57.5051 117.925 60.4101 114.49 62.7401 113.155Z" fill="black"/>
</g>
</svg>
