<svg width="151" height="150" viewBox="0 0 151 150" fill="none" xmlns="http://www.w3.org/2000/svg">
<path d="M147 74.75C147 114.375 113.625 142.75 74 142.75C34.375 142.75 4 115.875 4 76.25C4 36.625 33.375 7.25 73 7.25C112.625 7.25 147 35.125 147 74.75Z" fill="#0597F2"/>
<path d="M74 144.75C32.28 144.75 2 115.94 2 76.25C2 56.55 9.185 38.52 22.225 25.475C35.265 12.43 53.3 5.25 73 5.25C92.7 5.25 111.975 12.135 126.18 24.64C140.895 37.59 149 55.385 149 74.75C149 94.115 141.08 112.065 126.705 125.09C112.715 137.765 93.995 144.75 74 144.75ZM73 9.25C34.18 9.25 6 37.43 6 76.25C6 115.07 34.6 140.75 74 140.75C113.4 140.75 145 111.76 145 74.75C145 37.74 113.375 9.25 73 9.25Z" fill="#271F3D"/>
<path d="M98.75 86.25C104.411 86.25 109 79.5343 109 71.25C109 62.9657 104.411 56.25 98.75 56.25C93.0891 56.25 88.5 62.9657 88.5 71.25C88.5 79.5343 93.0891 86.25 98.75 86.25Z" fill="#271F3D"/>
<path d="M98.75 82.75C101.097 82.75 103 79.2802 103 75C103 70.7198 101.097 67.25 98.75 67.25C96.4028 67.25 94.5 70.7198 94.5 75C94.5 79.2802 96.4028 82.75 98.75 82.75Z" fill="white"/>
<path d="M52.25 86.25C57.9109 86.25 62.5 79.5343 62.5 71.25C62.5 62.9657 57.9109 56.25 52.25 56.25C46.5891 56.25 42 62.9657 42 71.25C42 79.5343 46.5891 86.25 52.25 86.25Z" fill="#271F3D"/>
<path d="M52.25 82.75C54.5972 82.75 56.5 79.2802 56.5 75C56.5 70.7198 54.5972 67.25 52.25 67.25C49.9028 67.25 48 70.7198 48 75C48 79.2802 49.9028 82.75 52.25 82.75Z" fill="white"/>
<g style="mix-blend-mode:overlay">
<path d="M37.845 22.0098C35.875 23.6048 34.075 25.5348 33.235 27.9248C32.395 30.3148 32.705 33.2298 34.51 35.0098C36.515 36.9848 39.81 37.0748 42.42 36.0198C45.03 34.9648 47.135 32.9898 49.255 31.1398C51.375 29.2898 53.675 27.4648 56.415 26.8398C58.845 26.2848 61.385 26.7198 63.865 26.4548C66.345 26.1898 69.045 24.8548 69.565 22.4198C70.21 19.4048 67.2 16.8548 64.305 15.7998C55.79 12.6898 44.625 16.5298 37.845 22.0198V22.0098Z" fill="white"/>
</g>
<g style="mix-blend-mode:overlay" opacity="0.5">
<path d="M117.06 106.94C110.015 116.73 100.065 124.4 88.8 128.72C87.755 129.12 86.515 129.72 86.445 130.84C86.34 132.445 88.565 132.96 90.165 132.825C102.355 131.82 114.15 126.545 123.035 118.14C131.92 109.735 137.83 98.2449 139.505 86.1249C140.005 82.4899 140.065 78.5149 138 75.4799C136.525 73.3099 132.06 70.9899 129.595 73.0399C127.495 74.7849 127.965 80.9249 127.395 83.5749C125.595 91.9599 122.07 99.9749 117.06 106.935V106.94Z" fill="black"/>
</g>
<g style="mix-blend-mode:overlay">
<path d="M71.7351 21.4802C71.6401 22.8602 72.3751 24.2152 73.4601 25.0652C74.5451 25.9152 75.9401 26.3102 77.3201 26.3852C78.7451 26.4602 80.3351 26.1252 81.1601 24.9602C81.8951 23.9152 81.7951 22.4302 81.1151 21.3452C80.4351 20.2602 79.2801 19.5502 78.0651 19.1652C75.6701 18.4052 71.9801 18.0202 71.7351 21.4802Z" fill="white"/>
</g>
<path d="M51.645 111.25C60.395 100.1 77.005 96.5049 89.395 103.6C93.44 105.875 96.94 109 99.355 112.815C91.95 108.39 84.365 105.08 75.8 104.935C67.23 104.66 59.44 107.545 51.645 111.245V111.25Z" fill="#271F3D"/>
</svg>
