<svg width="150" height="150" viewBox="0 0 150 150" fill="none" xmlns="http://www.w3.org/2000/svg">
<path d="M146.5 74.75C146.5 114.375 113.125 142.75 73.5 142.75C33.875 142.75 3.5 115.875 3.5 76.25C3.5 36.625 32.875 7.25 72.5 7.25C112.125 7.25 146.5 35.125 146.5 74.75Z" fill="#F6A000"/>
<path d="M73.5 144.75C31.78 144.75 1.5 115.94 1.5 76.25C1.5 56.55 8.685 38.52 21.725 25.475C34.765 12.43 52.8 5.25 72.5 5.25C92.2 5.25 111.475 12.135 125.68 24.64C140.395 37.59 148.5 55.385 148.5 74.75C148.5 94.115 140.58 112.065 126.205 125.09C112.215 137.765 93.495 144.75 73.5 144.75ZM72.5 9.25C33.68 9.25 5.5 37.43 5.5 76.25C5.5 115.07 34.1 140.75 73.5 140.75C112.9 140.75 144.5 111.76 144.5 74.75C144.5 37.74 112.875 9.25 72.5 9.25Z" fill="#271F3D"/>
<g style="mix-blend-mode:overlay">
<path d="M37.345 22.0098C35.375 23.6048 33.575 25.5348 32.735 27.9248C31.895 30.3148 32.205 33.2298 34.01 35.0098C36.015 36.9848 39.31 37.0748 41.92 36.0198C44.53 34.9648 46.635 32.9898 48.755 31.1398C50.875 29.2898 53.175 27.4648 55.915 26.8398C58.345 26.2848 60.885 26.7198 63.365 26.4548C65.845 26.1898 68.545 24.8548 69.065 22.4198C69.71 19.4048 66.7 16.8548 63.805 15.7998C55.29 12.6898 44.125 16.5298 37.345 22.0198V22.0098Z" fill="white"/>
</g>
<g style="mix-blend-mode:overlay" opacity="0.5">
<path d="M116.56 106.94C109.515 116.73 99.565 124.4 88.3 128.72C87.255 129.12 86.015 129.72 85.945 130.84C85.84 132.445 88.065 132.96 89.665 132.825C101.855 131.82 113.65 126.545 122.535 118.14C131.42 109.73 137.33 98.2449 139.005 86.1249C139.505 82.4899 139.565 78.5149 137.5 75.4799C136.025 73.3099 131.56 70.9899 129.095 73.0399C126.995 74.7849 127.465 80.9249 126.895 83.5749C125.095 91.9599 121.57 99.9749 116.56 106.935V106.94Z" fill="black"/>
</g>
<path d="M99.19 93.9958C105.27 88.7308 109.285 83.5808 110.53 81.3908C103.59 78.4658 89.255 77.5658 71.845 78.9858C57.62 80.1458 43.565 82.7958 38.925 85.1408C39.83 86.5908 42.38 89.5408 46.355 92.9208C47.685 93.0308 49.595 93.2358 52.285 93.5358C61.005 94.5008 92.82 91.4458 97.005 91.0008C90.105 95.6008 61.075 98.8258 55.035 99.2358C60.325 102.481 67.525 105.841 74.54 105.746C84.315 105.631 94.18 98.3308 99.195 93.9958H99.19Z" fill="white"/>
<path d="M52.28 93.535C49.59 93.235 47.68 93.035 46.35 92.92C47.54 93.935 48.855 94.985 50.3 96.05C51.585 97 53.195 98.11 55.035 99.235C61.075 98.825 90.105 95.6 97.005 91C92.82 91.445 61.005 94.5 52.285 93.535H52.28Z" fill="white"/>
<g style="mix-blend-mode:multiply" opacity="0.3">
<path d="M52.28 93.535C49.59 93.235 47.68 93.035 46.35 92.92C47.54 93.935 48.855 94.985 50.3 96.05C51.585 97 53.195 98.11 55.035 99.235C61.075 98.825 90.105 95.6 97.005 91C92.82 91.445 61.005 94.5 52.285 93.535H52.28Z" fill="black"/>
</g>
<path d="M113.32 78.8403C103.28 73.5703 80.77 74.7453 71.555 75.5003C54.86 76.8603 39.885 79.9553 35.95 82.8553C35.65 83.0753 34.715 83.9303 35.27 85.5853C36.13 88.1553 41.44 93.9903 48.835 99.3053C54 103.02 64.17 109.25 74.28 109.245H74.575C84.86 109.12 94.715 102.49 101.17 96.9503C108.145 90.9653 113.695 83.9353 114.31 81.3653C114.625 80.0503 114.005 79.1953 113.32 78.8353V78.8403ZM50.295 96.0503C48.85 94.9853 47.54 93.9353 46.345 92.9203C42.37 89.5403 39.82 86.5853 38.915 85.1403C43.555 82.7953 57.61 80.1453 71.835 78.9853C89.25 77.5653 103.585 78.4653 110.52 81.3903C109.275 83.5803 105.26 88.7303 99.18 93.9953C94.165 98.3353 84.3 105.63 74.525 105.745C67.51 105.835 60.31 102.475 55.02 99.2353C53.185 98.1103 51.575 96.9953 50.285 96.0503H50.295Z" fill="#271F3D"/>
<g style="mix-blend-mode:overlay">
<path d="M71.235 21.4802C71.14 22.8602 71.875 24.2152 72.96 25.0652C74.045 25.9202 75.44 26.3102 76.82 26.3852C78.245 26.4602 79.835 26.1252 80.66 24.9602C81.395 23.9152 81.295 22.4302 80.615 21.3452C79.94 20.2602 78.78 19.5502 77.565 19.1652C75.17 18.4052 71.48 18.0202 71.235 21.4802Z" fill="white"/>
</g>
<path d="M26.145 69.9946C25.665 56.9846 39.83 47.1796 51.985 51.8096C55.825 53.2546 59.14 55.7846 61.2 59.1046C54.745 55.8446 47.995 54.1346 41.175 56.3546C34.45 58.5146 29.565 63.6146 26.145 69.9996V69.9946Z" fill="#271F3D"/>
<path d="M74.99 60.4996C77.105 47.6546 92.935 40.8596 103.93 47.8096C107.405 49.9896 110.15 53.1246 111.51 56.7896C105.835 52.3146 99.555 49.2996 92.43 50.1146C85.41 50.8946 79.61 54.9246 74.99 60.4996Z" fill="#271F3D"/>
<path d="M137.905 109.785L137.89 109.635C137.595 107.325 135.55 105.745 133.24 106.04L129.95 106.46C129.36 106.535 128.82 106.725 128.345 107.005C127.81 106.855 127.25 106.81 126.68 106.88L114.63 108.42C113.65 108.545 112.765 109.005 112.085 109.75C111.96 109.705 111.83 109.66 111.7 109.62C110.165 109.145 108.51 109.02 106.77 109.24C105.12 109.45 103.625 109.945 102.325 110.715C102.145 110.82 101.97 110.93 101.805 111.045C100.985 110.515 100.01 110.29 99.03 110.415L88.07 111.815C86.995 111.95 86.04 112.49 85.365 113.33C83.785 112.75 81.94 112.6 79.75 112.88L73.77 113.645C72.67 113.785 71.69 114.345 71.01 115.225C70.805 115.495 70.635 115.785 70.5 116.085C70.29 115.825 70.055 115.58 69.78 115.37C68.905 114.7 67.82 114.41 66.725 114.55L55.765 115.95C55.31 116.01 54.875 116.145 54.47 116.34C54.03 116.25 53.575 116.23 53.12 116.29L49.83 116.71C48.895 116.83 48.05 117.25 47.385 117.93C46.585 117.445 45.65 117.245 44.71 117.365L41.42 117.785C41.04 117.835 40.675 117.935 40.325 118.08C39.955 118.025 39.575 118.02 39.195 118.07L27.145 119.61C26.05 119.75 25.075 120.305 24.375 121.205C23.705 122.08 23.41 123.165 23.55 124.26L23.905 127.02C24.045 128.13 24.615 129.115 25.485 129.78C26.365 130.46 27.455 130.755 28.555 130.615L28.745 130.59L29.87 139.375C30.01 140.475 30.57 141.46 31.45 142.135C32.33 142.815 33.42 143.11 34.52 142.97L37.81 142.55C38.91 142.41 39.89 141.85 40.57 140.97C40.705 140.795 40.82 140.61 40.925 140.42C41.07 140.575 41.225 140.72 41.395 140.85C42.275 141.54 43.37 141.84 44.48 141.695L47.77 141.275C48.71 141.155 49.565 140.725 50.215 140.055C51.015 140.54 51.95 140.74 52.89 140.62L56.18 140.2C56.635 140.14 57.07 140.01 57.47 139.81C57.91 139.9 58.365 139.92 58.82 139.86L69.78 138.46C70.88 138.32 71.86 137.76 72.54 136.88C72.745 136.615 72.91 136.325 73.045 136.025C73.25 136.28 73.48 136.51 73.74 136.71C74.62 137.4 75.715 137.7 76.825 137.555L82.99 136.765C84.995 136.51 86.705 135.89 88.115 134.93C88.98 135.58 90.045 135.86 91.125 135.725L102.085 134.325C103.07 134.2 103.955 133.735 104.62 133.01C104.79 133.07 104.965 133.125 105.14 133.18C106.65 133.61 108.325 133.715 110.13 133.485C111.935 133.255 113.415 132.755 114.74 131.98C115.945 131.27 116.915 130.365 117.645 129.29C117.92 129.935 118.355 130.505 118.925 130.945C119.805 131.625 120.895 131.92 121.995 131.78L125.285 131.36C126.385 131.22 127.365 130.66 128.045 129.78C128.515 129.175 128.795 128.465 128.88 127.725C129.215 128.205 129.62 128.63 130.095 129C131.345 129.965 132.86 130.37 134.48 130.16C136.1 129.95 137.5 129.15 138.455 127.89C139.4 126.64 139.795 125.14 139.59 123.55C139.475 122.65 139.175 121.815 138.715 121.09C138.8 120.675 138.825 120.245 138.785 119.815L137.9 109.79L137.905 109.785Z" fill="#271F3D"/>
<path d="M39.615 119.765C39.675 119.81 39.71 119.875 39.72 119.95L40.075 122.71C40.085 122.785 40.065 122.855 40.02 122.92C39.975 122.98 39.91 123.015 39.835 123.025L35.78 123.545C35.7 123.555 35.67 123.6 35.68 123.675L37.28 136.19C37.29 136.265 37.27 136.335 37.225 136.395C37.18 136.455 37.115 136.49 37.04 136.5L33.75 136.92C33.675 136.93 33.605 136.91 33.545 136.865C33.485 136.82 33.45 136.755 33.44 136.68L31.84 124.165C31.83 124.09 31.785 124.055 31.71 124.065L27.795 124.565C27.72 124.575 27.65 124.555 27.59 124.51C27.53 124.465 27.495 124.4 27.485 124.325L27.13 121.565C27.12 121.49 27.135 121.42 27.185 121.36C27.23 121.3 27.295 121.265 27.37 121.255L39.42 119.715C39.495 119.705 39.565 119.725 39.625 119.77L39.615 119.765Z" fill="white"/>
<path d="M49.855 118.46C49.9 118.4 49.965 118.365 50.04 118.355L53.33 117.935C53.405 117.925 53.475 117.945 53.535 117.99C53.595 118.035 53.63 118.1 53.64 118.175L55.645 133.84C55.655 133.915 55.635 133.985 55.59 134.045C55.545 134.105 55.48 134.14 55.405 134.15L52.115 134.57C52.04 134.58 51.97 134.56 51.91 134.515C51.85 134.47 51.815 134.405 51.805 134.33L51.015 128.165C51.005 128.09 50.96 128.055 50.885 128.065L46.55 128.62C46.475 128.63 46.44 128.675 46.45 128.75L47.24 134.915C47.25 134.99 47.23 135.06 47.185 135.12C47.14 135.18 47.075 135.215 47 135.225L43.71 135.645C43.635 135.655 43.565 135.635 43.5 135.59C43.44 135.545 43.405 135.48 43.395 135.405L41.39 119.74C41.38 119.665 41.4 119.595 41.445 119.535C41.49 119.475 41.555 119.44 41.63 119.43L44.92 119.01C44.995 119 45.065 119.02 45.125 119.065C45.185 119.11 45.22 119.175 45.23 119.25L45.995 125.23C46.005 125.305 46.05 125.34 46.125 125.33L50.46 124.775C50.535 124.765 50.57 124.72 50.56 124.645L49.795 118.665C49.785 118.59 49.805 118.52 49.85 118.46H49.855Z" fill="white"/>
<path d="M67.545 119.375C67.5 119.435 67.435 119.47 67.36 119.48L60.08 120.41C60.005 120.42 59.97 120.46 59.98 120.54L60.345 123.39C60.355 123.465 60.395 123.5 60.475 123.49L65.135 122.895C65.21 122.885 65.28 122.905 65.34 122.95C65.4 122.995 65.435 123.06 65.445 123.135L65.79 125.845C65.8 125.92 65.78 125.99 65.735 126.05C65.69 126.11 65.625 126.145 65.55 126.155L60.89 126.75C60.815 126.76 60.78 126.8 60.79 126.88L61.18 129.94C61.19 130.015 61.23 130.05 61.31 130.04L68.59 129.11C68.665 129.1 68.735 129.12 68.795 129.165C68.855 129.21 68.89 129.275 68.9 129.35L69.25 132.085C69.26 132.16 69.24 132.23 69.195 132.29C69.15 132.35 69.085 132.385 69.01 132.395L58.05 133.795C57.975 133.805 57.905 133.785 57.84 133.74C57.78 133.695 57.745 133.63 57.735 133.555L55.73 117.89C55.72 117.815 55.74 117.745 55.785 117.685C55.83 117.625 55.895 117.59 55.97 117.58L66.93 116.18C67.005 116.17 67.075 116.19 67.135 116.235C67.195 116.28 67.23 116.345 67.24 116.42L67.59 119.155C67.6 119.23 67.58 119.3 67.535 119.36L67.545 119.375Z" fill="white"/>
<path d="M84.845 121.955C86.345 122.515 87.205 123.665 87.43 125.395C87.63 126.94 87.24 128.16 86.275 129.055C85.305 129.95 83.955 130.505 82.225 130.725L76.06 131.515C75.985 131.525 75.915 131.505 75.85 131.46C75.79 131.415 75.755 131.35 75.745 131.275L73.74 115.61C73.73 115.535 73.75 115.465 73.795 115.405C73.84 115.345 73.905 115.31 73.98 115.3L79.96 114.535C81.845 114.295 83.315 114.465 84.37 115.055C85.425 115.64 86.055 116.73 86.26 118.325C86.455 119.84 85.975 121.01 84.825 121.83C84.74 121.89 84.745 121.935 84.845 121.97V121.955ZM77.99 118.24L78.365 121.16C78.375 121.235 78.42 121.27 78.495 121.26L80.79 120.965C81.425 120.885 81.89 120.685 82.2 120.375C82.505 120.06 82.625 119.655 82.565 119.165C82.5 118.655 82.28 118.285 81.905 118.05C81.53 117.815 81.025 117.74 80.39 117.82L78.095 118.115C78.02 118.125 77.985 118.17 77.995 118.245L77.99 118.24ZM83.18 126.795C83.485 126.465 83.6 126.03 83.53 125.49C83.465 124.965 83.245 124.58 82.875 124.335C82.505 124.09 82.005 124.01 81.375 124.09L78.895 124.405C78.82 124.415 78.785 124.46 78.795 124.535L79.19 127.615C79.2 127.69 79.245 127.725 79.32 127.715L81.8 127.4C82.42 127.32 82.88 127.115 83.18 126.79V126.795Z" fill="white"/>
<path d="M99.85 115.245C99.805 115.305 99.74 115.34 99.665 115.35L92.39 116.28C92.315 116.29 92.28 116.335 92.29 116.41L92.655 119.26C92.665 119.335 92.71 119.37 92.785 119.36L97.445 118.765C97.52 118.755 97.59 118.775 97.655 118.82C97.715 118.865 97.75 118.93 97.76 119.005L98.105 121.715C98.115 121.79 98.095 121.86 98.05 121.92C98.005 121.98 97.94 122.015 97.865 122.025L93.205 122.62C93.13 122.63 93.095 122.675 93.105 122.75L93.495 125.81C93.505 125.885 93.55 125.92 93.625 125.91L100.9 124.98C100.975 124.97 101.045 124.99 101.105 125.035C101.165 125.08 101.2 125.145 101.21 125.22L101.56 127.955C101.57 128.03 101.55 128.1 101.505 128.16C101.46 128.22 101.395 128.255 101.32 128.265L90.36 129.67C90.285 129.68 90.215 129.66 90.155 129.615C90.095 129.57 90.06 129.505 90.05 129.43L88.045 113.765C88.035 113.69 88.05 113.62 88.1 113.56C88.145 113.5 88.21 113.465 88.285 113.455L99.245 112.055C99.32 112.045 99.39 112.065 99.45 112.11C99.51 112.155 99.545 112.22 99.555 112.295L99.905 115.03C99.915 115.105 99.895 115.175 99.85 115.24V115.245Z" fill="white"/>
<path d="M105.935 127.255C104.93 126.965 104.125 126.475 103.51 125.775C102.895 125.075 102.52 124.225 102.395 123.22L102.34 122.78C102.33 122.705 102.35 122.635 102.395 122.575C102.44 122.515 102.505 122.48 102.58 122.47L105.8 122.06C105.875 122.05 105.945 122.07 106.01 122.115C106.07 122.16 106.105 122.225 106.115 122.3L106.15 122.58C106.215 123.09 106.525 123.5 107.085 123.815C107.645 124.13 108.355 124.23 109.22 124.12C109.9 124.035 110.38 123.82 110.67 123.485C110.955 123.15 111.075 122.79 111.025 122.405C110.985 122.095 110.855 121.86 110.64 121.69C110.42 121.52 110.145 121.395 109.8 121.305C109.46 121.215 108.935 121.095 108.225 120.95C108.125 120.915 108.03 120.895 107.935 120.88C107.84 120.87 107.75 120.855 107.67 120.83C106.625 120.635 105.705 120.395 104.915 120.11C104.125 119.825 103.425 119.38 102.815 118.775C102.205 118.17 101.835 117.375 101.71 116.385C101.59 115.425 101.73 114.555 102.145 113.775C102.555 112.995 103.185 112.35 104.03 111.85C104.875 111.35 105.865 111.025 106.995 110.88C108.185 110.73 109.28 110.81 110.29 111.12C111.295 111.43 112.12 111.945 112.76 112.665C113.4 113.385 113.785 114.255 113.915 115.275L113.955 115.6C113.965 115.675 113.945 115.745 113.9 115.805C113.855 115.865 113.79 115.9 113.715 115.91L110.495 116.32C110.42 116.33 110.35 116.31 110.285 116.265C110.22 116.22 110.19 116.155 110.18 116.08L110.16 115.92C110.09 115.38 109.79 114.93 109.255 114.575C108.725 114.22 108.055 114.09 107.25 114.195C106.645 114.27 106.19 114.455 105.885 114.745C105.575 115.035 105.45 115.405 105.51 115.855C105.555 116.195 105.695 116.465 105.945 116.66C106.19 116.855 106.55 117.02 107.03 117.155C107.51 117.29 108.24 117.45 109.225 117.64C110.355 117.875 111.235 118.09 111.875 118.29C112.515 118.49 113.14 118.87 113.75 119.43C114.365 119.985 114.735 120.775 114.865 121.795C114.995 122.8 114.85 123.7 114.43 124.49C114.015 125.28 113.37 125.935 112.5 126.445C111.63 126.955 110.585 127.29 109.365 127.445C108.085 127.61 106.94 127.545 105.94 127.26L105.935 127.255Z" fill="white"/>
<path d="M127.1 108.58C127.16 108.625 127.195 108.69 127.205 108.765L127.56 111.525C127.57 111.6 127.55 111.67 127.505 111.73C127.455 111.79 127.395 111.825 127.32 111.835L123.265 112.355C123.185 112.365 123.155 112.41 123.165 112.485L124.765 125C124.775 125.075 124.755 125.145 124.71 125.205C124.665 125.265 124.6 125.3 124.525 125.31L121.235 125.73C121.16 125.74 121.09 125.72 121.03 125.675C120.97 125.63 120.935 125.565 120.925 125.49L119.325 112.975C119.315 112.9 119.27 112.865 119.195 112.875L115.28 113.375C115.205 113.385 115.135 113.365 115.075 113.32C115.015 113.275 114.98 113.21 114.97 113.135L114.615 110.375C114.605 110.3 114.625 110.23 114.67 110.17C114.715 110.11 114.78 110.075 114.855 110.065L126.905 108.525C126.98 108.515 127.05 108.535 127.11 108.58H127.1Z" fill="white"/>
<path d="M131.7 118.565C131.64 118.52 131.605 118.455 131.595 118.38L129.92 108.42C129.895 108.235 129.975 108.13 130.165 108.105L133.455 107.685C133.64 107.66 133.745 107.74 133.77 107.925L134.655 117.985C134.665 118.06 134.645 118.13 134.6 118.195C134.555 118.255 134.49 118.29 134.415 118.3L131.91 118.62C131.835 118.63 131.765 118.61 131.705 118.565H131.7ZM132.195 123.73C131.765 123.4 131.515 122.94 131.44 122.355C131.365 121.77 131.49 121.265 131.825 120.845C132.155 120.425 132.615 120.18 133.2 120.105C133.785 120.03 134.295 120.155 134.72 120.475C135.145 120.8 135.395 121.255 135.47 121.84C135.545 122.41 135.415 122.915 135.085 123.35C134.755 123.785 134.3 124.04 133.71 124.115C133.125 124.19 132.615 124.065 132.19 123.735L132.195 123.73Z" fill="white"/>
</svg>
