<svg xmlns="http://www.w3.org/2000/svg" xmlns:xlink="http://www.w3.org/1999/xlink" viewBox="0 0 500 500"><defs><clipPath id="freepik--clip-path--inject-685"><path d="M183.84,408.51,173,414.77a3.24,3.24,0,0,1-2.94,0l-13.23-7.54a.89.89,0,0,1,0-1.69l10.84-6.26a3.24,3.24,0,0,1,2.94,0c3.58,2.07,9.64,5.46,13.22,7.54A.89.89,0,0,1,183.84,408.51Z" style="fill:#CFD8DC"></path></clipPath></defs><g id="freepik--Floor--inject-685"><ellipse id="freepik--floor--inject-685" cx="249.81" cy="337.53" rx="238.19" ry="137.52" style="fill:#f5f5f5"></ellipse></g><g id="freepik--Shadows--inject-685"><path id="freepik--Shadow--inject-685" d="M421.52,361.94a1.74,1.74,0,0,0-.15-.26,2,2,0,0,0-.14-.16.9.9,0,0,0-.15-.19l-.18-.17a4.21,4.21,0,0,0-.64-.45L197.57,232.15a8,8,0,0,0-7.18,0L74.51,298.87a3.37,3.37,0,0,0-.42.27s-.11.07-.15.11a2.88,2.88,0,0,0-.6.68,1,1,0,0,0-.1.17,1.31,1.31,0,0,0-.12.28,2.25,2.25,0,0,0-.05.22,1.53,1.53,0,0,0,0,.36,2,2,0,0,0,0,.25,2.29,2.29,0,0,0,.07.28,1.69,1.69,0,0,0,.12.27A3.11,3.11,0,0,0,74.51,303l222.7,128.55a6.79,6.79,0,0,0,2.13.73,10,10,0,0,0,1.46.12,9.87,9.87,0,0,0,1.44-.11,3.55,3.55,0,0,0,.47-.09,6.76,6.76,0,0,0,1.29-.44c.14-.06.26-.14.39-.21l115.87-66.71C421.62,364.06,422,362.94,421.52,361.94Z" style="fill:#e0e0e0"></path><ellipse id="freepik--shadow--inject-685" cx="407.31" cy="298.93" rx="49.53" ry="28.6" style="fill:#e0e0e0"></ellipse><path id="freepik--shadow--inject-685" d="M146.8,447.06a11.68,11.68,0,0,1-5.76-1.43l-99.2-57.26-.09-.07a5.76,5.76,0,0,1-3-4.93,5.91,5.91,0,0,1,3.24-5l65.44-37.78a12.47,12.47,0,0,1,11.52,0L218,397.84a5.91,5.91,0,0,1,3.23,5,5.71,5.71,0,0,1-2.89,4.81,3.94,3.94,0,0,1-.4.26l-49.52,28.57-15.88,9.17a11.68,11.68,0,0,1-5.76,1.42Z" style="fill:#e0e0e0"></path></g><g id="freepik--Cart--inject-685"><g id="freepik--cart--inject-685"><path d="M298.2,308.63a14.86,14.86,0,0,0-6.66-11.7c-1.94-1.14-3.69-1.19-4.93-.38h0l-4.55,2.56,9.55,16.47,4.51-2.56h0C297.38,312.33,298.18,310.82,298.2,308.63Z" style="fill:#37474f"></path><path d="M286.81,299.61a14.91,14.91,0,0,1,6.66,11.7c0,4.3-3.06,6-6.76,3.85a14.91,14.91,0,0,1-6.66-11.7C280.08,299.16,283.11,297.44,286.81,299.61Z" style="fill:#455a64"></path><path d="M284.49,306.06c0-1.68,1-2.45,2.29-1.71a5.43,5.43,0,0,1,2.25,4.37c0,1.68-1,2.44-2.29,1.71A5.48,5.48,0,0,1,284.49,306.06Z" style="fill:#263238"></path><path d="M293.47,311.31a12.35,12.35,0,0,0-.92-4.5L281,300.1a5.78,5.78,0,0,0-.94,3.36c0,.05,0,.1,0,.16l13.4,7.78S293.47,311.34,293.47,311.31Z" style="opacity:0.15"></path><path d="M250.32,345.22a14.41,14.41,0,0,1-7.12-1.28l-63-36.31c-3.81-1.92-8.09-6.9-8.36-11.62l-1.93-44.91,3.51-.2,1.94,44.92c.18,3.2,3.53,7.22,6.41,8.66l63.05,36.32a12.11,12.11,0,0,0,10.58-.61l42-24.22c1-.66,1.59-1.45,1.55-2.12s-.67-1.33-1.74-1.87L229.72,272.8c-3.8-1.91-8.06-6.9-8.33-11.62l-.94-24.91,3.51-.19.94,24.9c.18,3.22,3.53,7.23,6.4,8.67l67.49,39.19c2.25,1.13,3.55,2.84,3.67,4.81s-1,3.88-3.13,5.26l-42,24.22A14.57,14.57,0,0,1,250.32,345.22Z" style="fill:#455a64"></path><path d="M239,344.21a14.86,14.86,0,0,0-6.66-11.7c-1.94-1.14-3.69-1.2-4.92-.38h0l-4.56,2.56,9.55,16.47,4.51-2.56v0C238.16,347.91,239,346.4,239,344.21Z" style="fill:#37474f"></path><path d="M227.59,335.19a14.86,14.86,0,0,1,6.66,11.71c0,4.29-3.05,6-6.76,3.84a14.88,14.88,0,0,1-6.65-11.7C220.87,334.75,223.89,333,227.59,335.19Z" style="fill:#455a64"></path><path d="M225.27,341.64c0-1.68,1-2.45,2.29-1.71a5.41,5.41,0,0,1,2.25,4.37c0,1.67-1,2.44-2.28,1.7A5.44,5.44,0,0,1,225.27,341.64Z" style="fill:#263238"></path><path d="M192.42,317.36a14.86,14.86,0,0,0-6.63-11.71c-1.95-1.14-3.69-1.2-4.93-.39h0l-4.56,2.55,9.52,16.49,4.52-2.56h0C191.6,321.06,192.4,319.55,192.42,317.36Z" style="fill:#37474f"></path><path d="M181.05,308.33A14.88,14.88,0,0,1,187.69,320c0,4.29-3.07,6-6.77,3.83a14.86,14.86,0,0,1-6.63-11.71C174.32,307.86,177.35,306.15,181.05,308.33Z" style="fill:#455a64"></path><path d="M178.72,314.76c0-1.67,1-2.44,2.29-1.7a5.45,5.45,0,0,1,2.25,4.37c0,1.68-1,2.44-2.3,1.71A5.49,5.49,0,0,1,178.72,314.76Z" style="fill:#263238"></path><path d="M162.38,196.68a11.71,11.71,0,0,1,4.49-12.46l41.91-23.69c3.81-2.5,8-.76,9.32,3.59l2.91,9.43-2.88,1.68L215,165.7a3.17,3.17,0,0,0-5-1.75L169.19,187a7.69,7.69,0,0,0-2.93,8l2.46,9.05-3.43,2Z" style="fill:#455a64"></path><polygon points="227.18 242.12 170.88 274.63 253.16 322.13 309.46 289.62 227.18 242.12" style="fill:#CFD8DC"></polygon><polygon points="227.18 242.12 170.88 274.63 253.16 322.13 309.46 289.62 227.18 242.12" style="opacity:0.5"></polygon><polygon points="165.29 206.11 221.01 173.56 227.18 242.12 170.88 274.63 165.29 206.11" style="fill:#CFD8DC"></polygon><polygon points="165.29 206.11 221.01 173.56 227.18 242.12 170.88 274.63 165.29 206.11" style="opacity:0.35000000000000003"></polygon><path d="M221,173.56l6.17,68.56,82.28,47.5,13-57.51Zm28.77,65.92a4.73,4.73,0,0,1-5.9-3.06l-13.6-35.29A4.44,4.44,0,1,1,238.5,198l13.6,35.29A4.72,4.72,0,0,1,249.78,239.48Zm25.69,12.08a4.71,4.71,0,0,1-5.9-3.05L256,213.22a4.44,4.44,0,1,1,8.22-3.17l13.6,35.29A4.71,4.71,0,0,1,275.47,251.56Zm25.69,12.09a4.71,4.71,0,0,1-5.9-3l-13.59-35.29a4.43,4.43,0,1,1,8.21-3.17l13.6,35.29A4.71,4.71,0,0,1,301.16,263.65Z" style="fill:#CFD8DC"></path><path d="M221,173.56l6.17,68.56,82.28,47.5,13-57.51Zm28.77,65.92a4.73,4.73,0,0,1-5.9-3.06l-13.6-35.29A4.44,4.44,0,1,1,238.5,198l13.6,35.29A4.72,4.72,0,0,1,249.78,239.48Zm25.69,12.08a4.71,4.71,0,0,1-5.9-3.05L256,213.22a4.44,4.44,0,1,1,8.22-3.17l13.6,35.29A4.71,4.71,0,0,1,275.47,251.56Zm25.69,12.09a4.71,4.71,0,0,1-5.9-3l-13.59-35.29a4.43,4.43,0,1,1,8.21-3.17l13.6,35.29A4.71,4.71,0,0,1,301.16,263.65Z" style="opacity:0.23"></path><path d="M165.29,206.11l5.59,68.52,82.28,47.5,13-57.5Zm32.48,67.45a4.73,4.73,0,0,1-5.9-3.06l-13.59-35.29a4.43,4.43,0,1,1,8.21-3.16l13.6,35.28A4.72,4.72,0,0,1,197.77,273.56Zm25.69,12.08a4.71,4.71,0,0,1-5.9-3.05L204,247.3a4.44,4.44,0,1,1,8.22-3.17l13.59,35.29A4.71,4.71,0,0,1,223.46,285.64Zm25.69,12.09a4.7,4.7,0,0,1-5.89-3.05l-13.6-35.29a4.44,4.44,0,1,1,8.22-3.17l13.59,35.29A4.71,4.71,0,0,1,249.15,297.73Z" style="fill:#CFD8DC"></path><g style="opacity:0.15"><path d="M165.29,206.11l5.59,68.52,82.28,47.5,13-57.5Zm32.48,67.45a4.73,4.73,0,0,1-5.9-3.06l-13.59-35.29a4.43,4.43,0,1,1,8.21-3.16l13.6,35.28A4.72,4.72,0,0,1,197.77,273.56Zm25.69,12.08a4.71,4.71,0,0,1-5.9-3.05L204,247.3a4.44,4.44,0,1,1,8.22-3.17l13.59,35.29A4.71,4.71,0,0,1,223.46,285.64Zm25.69,12.09a4.7,4.7,0,0,1-5.89-3.05l-13.6-35.29a4.44,4.44,0,1,1,8.22-3.17l13.59,35.29A4.71,4.71,0,0,1,249.15,297.73Z"></path></g><polygon points="266.15 264.63 322.45 232.12 309.46 289.63 253.16 322.13 266.15 264.63" style="fill:#CFD8DC"></polygon><polygon points="266.15 264.63 322.45 232.12 309.46 289.63 253.16 322.13 266.15 264.63" style="opacity:0.4"></polygon></g></g><g id="freepik--Arrow--inject-685"><g id="freepik--arrow--inject-685"><polygon points="286.43 140.48 279.93 144.29 279.95 124.6 276.01 122.33 258.17 132.63 258.14 156.92 247.74 162.81 271.02 177.91 290.37 142.75 286.43 140.48" style="fill:#37474f"></polygon><polygon points="262.11 134.9 262.08 159.19 251.68 165.09 271.02 177.91 290.37 142.75 279.92 148.89 279.95 124.6 262.11 134.9" style="fill:#455a64"></polygon><polygon points="258.17 132.63 262.11 134.9 262.08 159.19 258.14 156.92 258.17 132.63" style="fill:#263238"></polygon></g></g><g id="freepik--credit-card--inject-685"><g id="freepik--Card--inject-685"><path d="M151.13,442.19l65.43-37.78a3.08,3.08,0,0,0,1.77-2.7c0-1,0-4.64,0-4.64s-1.75,2.5-1.78,2.52L167,428.19l-15.89,9.17a9.47,9.47,0,0,1-8.61,0L43.4,380.15s-1.68-2-1.72-2-.09,3.42,0,4.56A3,3,0,0,0,43.4,385l99.11,57.2A9.46,9.46,0,0,0,151.13,442.19Z" style="fill:#CFD8DC"></path><path d="M151.13,442.19l65.43-37.78a3.08,3.08,0,0,0,1.77-2.7c0-1,0-4.64,0-4.64s-1.75,2.5-1.78,2.52L167,428.19l-15.89,9.17a9.47,9.47,0,0,1-8.61,0L43.4,380.15s-1.68-2-1.72-2-.09,3.42,0,4.56A3,3,0,0,0,43.4,385l99.11,57.2A9.46,9.46,0,0,0,151.13,442.19Z" style="opacity:0.15"></path><path d="M197.7,410.47h0v4.83l18.86-10.89a3.08,3.08,0,0,0,1.77-2.7c0-1,0-4.64,0-4.64s-1.75,2.5-1.78,2.52Z" style="fill:#37474f"></path><path d="M216.57,399.59a.23.23,0,0,0,.09-.08c2.28-1.35,2.24-3.55-.09-4.9l-99.12-57.22a9.53,9.53,0,0,0-8.61,0L43.4,375.17c-2.36,1.36-2.37,3.55-.09,4.91l.09.07,99.1,57.21a9.47,9.47,0,0,0,8.61,0L167,428.19Z" style="fill:#CFD8DC"></path><path d="M197.7,410.47l18.87-10.88a.23.23,0,0,0,.09-.08c2.28-1.35,2.24-3.55-.09-4.9l-99.12-57.22a9.53,9.53,0,0,0-8.61,0L90,348.28Z" style="fill:#455a64"></path><path d="M41.68,378.17s-.09,3.42,0,4.56A3,3,0,0,0,43.4,385l99.11,57.2a9.12,9.12,0,0,0,5.46,1v-4.83a9.32,9.32,0,0,1-5.47-1L43.4,380.15S41.72,378.19,41.68,378.17Z" style="opacity:0.15"></path><path d="M73.76,371.69l-1.92-1.11a.25.25,0,0,1-.14-.17c0-.07,0-.12.1-.17a.6.6,0,0,1,.29-.06.7.7,0,0,1,.3.08l.64.37L75.8,369a.33.33,0,0,0,.2-.33c0-.14-.11-.25-.28-.36h0a.26.26,0,0,1-.15-.18.18.18,0,0,1,.11-.16A.43.43,0,0,1,76,368a.58.58,0,0,1,.3.08h0a1,1,0,0,1,.58.71.66.66,0,0,1-.4.67L73.67,371l.64.37c.09.05.14.11.14.18s0,.12-.1.17a.52.52,0,0,1-.29,0A.56.56,0,0,1,73.76,371.69Z" style="fill:#fff"></path><path d="M79.57,373.13l-1.28-.74a1.31,1.31,0,0,0-.61-.16,1.06,1.06,0,0,0-.58.12l-.41.23s-.06.05,0,.09,0,.06.07.09l2.72,1.57a.25.25,0,0,1,.14.17.16.16,0,0,1-.1.17.52.52,0,0,1-.29.06.75.75,0,0,1-.31-.09l-3.19-1.84a.26.26,0,0,1-.15-.18.16.16,0,0,1,.1-.16l.83-.48a2.08,2.08,0,0,1,1.16-.24,2.71,2.71,0,0,1,1.23.33l1.27.74a1.4,1.4,0,0,0,.62.17,1,1,0,0,0,.58-.12l.55-.31a.34.34,0,0,0,.21-.34.56.56,0,0,0-.3-.36l-1.27-.73a1.36,1.36,0,0,0-.62-.17,1.06,1.06,0,0,0-.58.12.58.58,0,0,1-.28.06.63.63,0,0,1-.31-.09.26.26,0,0,1-.15-.17.17.17,0,0,1,.11-.17,2,2,0,0,1,1.15-.24,2.56,2.56,0,0,1,1.23.34l1.28.74a1,1,0,0,1,.58.71.66.66,0,0,1-.41.66l-.55.32a2.08,2.08,0,0,1-1.16.24A2.63,2.63,0,0,1,79.57,373.13Z" style="fill:#fff"></path><path d="M85.68,377l-.28.16a2.14,2.14,0,0,1-1.15.23A2.67,2.67,0,0,1,83,377l-1.28-.74a1,1,0,0,1-.58-.71.68.68,0,0,1,.41-.67.52.52,0,0,1,.29-.05.65.65,0,0,1,.31.08.27.27,0,0,1,.14.18.15.15,0,0,1-.1.16.33.33,0,0,0-.2.34.48.48,0,0,0,.29.35l1.27.74a1.36,1.36,0,0,0,.62.17,1,1,0,0,0,.57-.12l.28-.16a.33.33,0,0,0,.2-.33.48.48,0,0,0-.29-.36l-.31-.18c-.09-.06-.14-.11-.15-.18s0-.12.1-.17a.64.64,0,0,1,.6,0l.32.18a1.32,1.32,0,0,0,.61.17,1,1,0,0,0,.58-.12l.28-.16a.33.33,0,0,0,.2-.33.5.5,0,0,0-.29-.36l-1.28-.73a1.32,1.32,0,0,0-.61-.17,1.06,1.06,0,0,0-.58.12.51.51,0,0,1-.29.05.62.62,0,0,1-.31-.08.28.28,0,0,1-.14-.17.17.17,0,0,1,.1-.17,2.08,2.08,0,0,1,1.16-.24,2.63,2.63,0,0,1,1.23.34l1.27.73a1,1,0,0,1,.58.71.66.66,0,0,1-.41.67l-.27.16a1.8,1.8,0,0,1-.58.2,3.9,3.9,0,0,1-.69,0,.56.56,0,0,1,0,.4A1,1,0,0,1,85.68,377Z" style="fill:#fff"></path><path d="M89.39,380.62a.62.62,0,0,1-.31-.08.27.27,0,0,1-.14-.18.16.16,0,0,1,.1-.16l1.54-.89a2.54,2.54,0,0,1-.79-.28l-1.28-.74a1,1,0,0,1-.58-.71.66.66,0,0,1,.41-.66l1.38-.8a.62.62,0,0,1,.29-.06.65.65,0,0,1,.31.08.27.27,0,0,1,.14.18c0,.07,0,.12-.1.17l-1.38.8a.34.34,0,0,0-.21.33.53.53,0,0,0,.29.35l1.28.74a1.35,1.35,0,0,0,.61.17,1,1,0,0,0,.58-.12l1.38-.8a.65.65,0,0,1,.29-.06.75.75,0,0,1,.31.08.26.26,0,0,1,.14.18.16.16,0,0,1-.1.17l-3.87,2.24A.51.51,0,0,1,89.39,380.62Z" style="fill:#fff"></path><path d="M99.33,383.1s0,0,0,.09a.18.18,0,0,0,.07.09l1.76,1a1,1,0,0,1,.58.71.67.67,0,0,1-.41.67l-.55.32a2.17,2.17,0,0,1-1.16.23,2.66,2.66,0,0,1-1.22-.33l-1.28-.74a1,1,0,0,1-.58-.71.67.67,0,0,1,.41-.67.62.62,0,0,1,.29-.06.8.8,0,0,1,.31.09.27.27,0,0,1,.14.18.16.16,0,0,1-.1.16.33.33,0,0,0-.21.34.53.53,0,0,0,.29.35l1.28.74a1.31,1.31,0,0,0,.61.16,1,1,0,0,0,.58-.11l.55-.32a.34.34,0,0,0,.21-.34.53.53,0,0,0-.29-.35l-1.92-1.11a.53.53,0,0,1-.29-.35.32.32,0,0,1,.21-.33l1.38-.8a.45.45,0,0,1,.29-.06.61.61,0,0,1,.3.08l3.2,1.84a.27.27,0,0,1,.14.18c0,.07,0,.12-.1.17a.6.6,0,0,1-.29.06.7.7,0,0,1-.3-.09l-2.72-1.57-.15,0a.24.24,0,0,0-.15,0Z" style="fill:#fff"></path><path d="M104.94,386.5l1.28.74a1,1,0,0,1,.58.71.67.67,0,0,1-.41.67l-.55.32a2.15,2.15,0,0,1-1.16.23,2.63,2.63,0,0,1-1.23-.34l-1.27-.73a1,1,0,0,1-.58-.71.66.66,0,0,1,.4-.67l2.22-1.28a2.14,2.14,0,0,1,1.15-.23,2.67,2.67,0,0,1,1.23.33l1.28.74a1,1,0,0,1,.58.71.67.67,0,0,1-.41.67.43.43,0,0,1-.29.06.66.66,0,0,1-.3-.09.26.26,0,0,1-.15-.17c0-.07,0-.12.1-.17s.23-.2.21-.33a.51.51,0,0,0-.3-.36l-1.27-.74a1.35,1.35,0,0,0-.62-.16,1.1,1.1,0,0,0-.57.11l-.71.41A2.63,2.63,0,0,1,104.94,386.5Zm-2.3.59a.33.33,0,0,0-.2.33.5.5,0,0,0,.29.36l1.28.74a1.35,1.35,0,0,0,.61.17,1,1,0,0,0,.58-.12l.56-.32a.33.33,0,0,0,.2-.33.51.51,0,0,0-.3-.36l-1.27-.74a1.36,1.36,0,0,0-.62-.17,1,1,0,0,0-.57.12Z" style="fill:#fff"></path><path d="M112.31,390.91l-3.79.53H108l-.08,0a.36.36,0,0,1-.16-.17q0-.09.12-.18a1.37,1.37,0,0,1,.44-.06c1.21-.17,2.38-.35,3.51-.53a1,1,0,0,0,.33-.09l.27-.1.09-.05a.33.33,0,0,0,.2-.34.48.48,0,0,0-.29-.35l-.64-.37-.31-.18-1.28-.74a.26.26,0,0,1-.15-.18.16.16,0,0,1,.1-.16.46.46,0,0,1,.29-.06.62.62,0,0,1,.31.08l1.28.74.32.18.64.37a1,1,0,0,1,.57.71.66.66,0,0,1-.4.67,3.39,3.39,0,0,1-.45.19A2.28,2.28,0,0,1,112.31,390.91Z" style="fill:#fff"></path><path d="M116.33,394.67l-.28.16a2,2,0,0,1-1.15.24,2.56,2.56,0,0,1-1.23-.34l-1.28-.73a1,1,0,0,1-.58-.71.68.68,0,0,1,.41-.67l.28-.16a1.82,1.82,0,0,1,.57-.2,2.63,2.63,0,0,1,.69,0,.62.62,0,0,1,0-.4,1,1,0,0,1,.35-.33l.27-.16a2.17,2.17,0,0,1,1.16-.23,2.74,2.74,0,0,1,1.23.33l1.27.74a1,1,0,0,1,.58.71.66.66,0,0,1-.4.67l-.28.16a1.8,1.8,0,0,1-.58.19,2.63,2.63,0,0,1-.69,0,.56.56,0,0,1,0,.4A.83.83,0,0,1,116.33,394.67Zm1.3-1.48a.33.33,0,0,0,.2-.34.5.5,0,0,0-.29-.35l-1.28-.74a1.32,1.32,0,0,0-.61-.17,1.28,1.28,0,0,0-.58.12l-.27.16a.33.33,0,0,0-.21.34.53.53,0,0,0,.29.35l1.28.74a1.31,1.31,0,0,0,.61.16,1.14,1.14,0,0,0,.58-.11Zm-1.94,1.11a.31.31,0,0,0,.2-.33.48.48,0,0,0-.29-.35l-1.27-.74a1.36,1.36,0,0,0-.62-.17,1,1,0,0,0-.57.12l-.28.16a.33.33,0,0,0-.2.33.48.48,0,0,0,.29.36l1.27.73a1.25,1.25,0,0,0,.62.17,1,1,0,0,0,.57-.12Z" style="fill:#fff"></path><path d="M123.89,400.63l-1.28-.74a1,1,0,0,1-.58-.7.66.66,0,0,1,.41-.67.6.6,0,0,1,.29-.06.66.66,0,0,1,.31.09.28.28,0,0,1,.14.17.17.17,0,0,1-.1.17.34.34,0,0,0-.21.33.52.52,0,0,0,.29.36l1.28.73a1.36,1.36,0,0,0,.62.17,1.16,1.16,0,0,0,.58-.11l.7-.41a2.54,2.54,0,0,1-.8-.29l-1.27-.73a1,1,0,0,1-.58-.71.67.67,0,0,1,.41-.67l.55-.32a2.17,2.17,0,0,1,1.16-.23,2.66,2.66,0,0,1,1.22.33l1.28.74a1,1,0,0,1,.58.71.66.66,0,0,1-.4.67l-2.22,1.27a2,2,0,0,1-1.15.24A2.56,2.56,0,0,1,123.89,400.63Zm4-1.54a.33.33,0,0,0,.2-.34.48.48,0,0,0-.29-.35l-1.28-.74a1.35,1.35,0,0,0-.61-.17,1,1,0,0,0-.58.12l-.55.32a.34.34,0,0,0-.21.33.52.52,0,0,0,.29.36l1.28.73a1.21,1.21,0,0,0,.61.17,1.08,1.08,0,0,0,.59-.11Z" style="fill:#fff"></path><path d="M128.67,403.4l-1.91-1.11a.26.26,0,0,1-.15-.18.15.15,0,0,1,.1-.16.45.45,0,0,1,.29-.06.62.62,0,0,1,.31.08l.64.37,2.76-1.6a.35.35,0,0,0,.21-.33.51.51,0,0,0-.28-.35h0a.26.26,0,0,1-.15-.17c0-.07,0-.12.1-.17a.62.62,0,0,1,.29-.06.54.54,0,0,1,.31.09h0a1,1,0,0,1,.58.7.67.67,0,0,1-.41.67l-2.76,1.6.63.37a.26.26,0,0,1,.15.17.17.17,0,0,1-.11.17.49.49,0,0,1-.28.06A.75.75,0,0,1,128.67,403.4Z" style="fill:#fff"></path><path d="M132.83,405.79l-1.28-.73a1,1,0,0,1-.58-.71.67.67,0,0,1,.41-.67l2.21-1.28a2.17,2.17,0,0,1,1.16-.23,2.66,2.66,0,0,1,1.22.33l1.28.74a1,1,0,0,1,.58.71.67.67,0,0,1-.41.67l-2.21,1.27a2.08,2.08,0,0,1-1.16.24A2.55,2.55,0,0,1,132.83,405.79Zm-.73-1.05,1.28.74a1.6,1.6,0,0,0,.37.13l.43-2.81L132,404.05a.34.34,0,0,0-.21.33A.52.52,0,0,0,132.1,404.74Zm4.6-1.18-1.28-.74a1.35,1.35,0,0,0-.37-.13l-.43,2.81,2.16-1.25a.34.34,0,0,0,.21-.34A.53.53,0,0,0,136.7,403.56Z" style="fill:#fff"></path><path d="M137.61,408.56l-1.92-1.11a.27.27,0,0,1-.14-.18.15.15,0,0,1,.1-.16.45.45,0,0,1,.29-.06.62.62,0,0,1,.31.08l.64.37,2.76-1.6a.34.34,0,0,0,.21-.33.53.53,0,0,0-.29-.35h0a.28.28,0,0,1-.14-.17c0-.07,0-.12.1-.17a.64.64,0,0,1,.6,0h0a1,1,0,0,1,.58.7.66.66,0,0,1-.41.67l-2.77,1.6.64.37a.26.26,0,0,1,.15.18.18.18,0,0,1-.11.16.5.5,0,0,1-.29.06A.74.74,0,0,1,137.61,408.56Z" style="fill:#fff"></path><path d="M146.55,413.72l-1.92-1.11a.28.28,0,0,1-.14-.17.16.16,0,0,1,.1-.17.62.62,0,0,1,.29-.06.75.75,0,0,1,.31.08l.64.37,2.76-1.6a.34.34,0,0,0,.21-.33.51.51,0,0,0-.28-.35h0c-.09-.06-.14-.11-.15-.18s0-.12.1-.17a.62.62,0,0,1,.29-.06.75.75,0,0,1,.31.09h0a1,1,0,0,1,.58.71.67.67,0,0,1-.41.66l-2.77,1.6.64.37a.26.26,0,0,1,.15.18.18.18,0,0,1-.11.16.43.43,0,0,1-.29.06A.61.61,0,0,1,146.55,413.72Z" style="fill:#fff"></path><path d="M152.36,415.16l-1.27-.74a1.36,1.36,0,0,0-.62-.17,1,1,0,0,0-.57.12l-.42.24a.08.08,0,0,0,0,.08.13.13,0,0,0,.07.09l2.72,1.57c.09,0,.14.11.14.18s0,.12-.1.17a.6.6,0,0,1-.29.06.7.7,0,0,1-.3-.09l-3.2-1.84a.24.24,0,0,1-.14-.18c0-.07,0-.12.1-.17l.83-.48a2.14,2.14,0,0,1,1.15-.23,2.67,2.67,0,0,1,1.23.33l1.28.74a1.32,1.32,0,0,0,.61.17,1,1,0,0,0,.58-.12l.56-.32a.33.33,0,0,0,.2-.33.52.52,0,0,0-.29-.36l-1.28-.74a1.35,1.35,0,0,0-.61-.16,1,1,0,0,0-.58.12.54.54,0,0,1-.29,0,.62.62,0,0,1-.31-.08.27.27,0,0,1-.14-.18.15.15,0,0,1,.1-.16,2.06,2.06,0,0,1,1.16-.24,2.55,2.55,0,0,1,1.22.34l1.28.73a1,1,0,0,1,.58.71.65.65,0,0,1-.4.67l-.56.32a2,2,0,0,1-1.15.24A2.75,2.75,0,0,1,152.36,415.16Z" style="fill:#fff"></path><path d="M155.49,418.88l-1.92-1.11a.28.28,0,0,1-.14-.17.16.16,0,0,1,.1-.17.62.62,0,0,1,.29-.06.75.75,0,0,1,.31.08l.64.37,2.76-1.59a.33.33,0,0,0,.2-.33.48.48,0,0,0-.28-.36h0a.27.27,0,0,1-.14-.18c0-.07,0-.12.1-.16a.52.52,0,0,1,.29-.07.8.8,0,0,1,.31.09h0a1,1,0,0,1,.58.71.66.66,0,0,1-.41.66l-2.77,1.6.64.37a.26.26,0,0,1,.15.18.18.18,0,0,1-.11.16.43.43,0,0,1-.29.06A.61.61,0,0,1,155.49,418.88Z" style="fill:#fff"></path><path d="M162.3,421.22l-.27.16a2.17,2.17,0,0,1-1.16.23,2.66,2.66,0,0,1-1.22-.33l-1.28-.74a1,1,0,0,1-.58-.71.67.67,0,0,1,.41-.67.49.49,0,0,1,.28-.05.62.62,0,0,1,.31.08.26.26,0,0,1,.15.18.18.18,0,0,1-.1.16.33.33,0,0,0-.21.34.5.5,0,0,0,.29.35l1.28.74a1.32,1.32,0,0,0,.61.17,1,1,0,0,0,.58-.12l.28-.16a.33.33,0,0,0,.2-.34.5.5,0,0,0-.29-.35l-.32-.18a.3.3,0,0,1-.15-.18.19.19,0,0,1,.11-.17.58.58,0,0,1,.28-.06.75.75,0,0,1,.31.09l.32.18a1.36,1.36,0,0,0,.62.17,1.06,1.06,0,0,0,.58-.12l.27-.16a.35.35,0,0,0,.21-.33.54.54,0,0,0-.29-.36l-1.28-.73a1.25,1.25,0,0,0-.62-.17,1,1,0,0,0-.57.12.65.65,0,0,1-.29.06.75.75,0,0,1-.31-.09.26.26,0,0,1-.15-.18.18.18,0,0,1,.11-.16,2,2,0,0,1,1.15-.24,2.56,2.56,0,0,1,1.23.34l1.28.73a1,1,0,0,1,.58.71.67.67,0,0,1-.41.67l-.28.16a1.82,1.82,0,0,1-.57.2,3.9,3.9,0,0,1-.69,0,.59.59,0,0,1,0,.39A.88.88,0,0,1,162.3,421.22Z" style="fill:#fff"></path><path d="M141.41,421l-1.12-.65s-.08-.06-.08-.1,0-.07,0-.1a.43.43,0,0,1,.17,0,.35.35,0,0,1,.18.05l.38.21,1.61-.93a.19.19,0,0,0,.12-.19.32.32,0,0,0-.16-.21h0a.19.19,0,0,1-.09-.11.11.11,0,0,1,.06-.09.31.31,0,0,1,.17,0,.48.48,0,0,1,.18.05h0a.59.59,0,0,1,.34.42.4.4,0,0,1-.24.39l-1.61.93.37.21a.19.19,0,0,1,.09.11.09.09,0,0,1-.07.09.27.27,0,0,1-.16,0A.48.48,0,0,1,141.41,421Z" style="fill:#fff"></path><path d="M144.8,421.85l-.74-.43a.84.84,0,0,0-.36-.1.69.69,0,0,0-.34.07l-.24.14a.05.05,0,0,0,0,.05.07.07,0,0,0,0,.05l1.59.92c.05,0,.08.06.08.1s0,.07-.06.1a.23.23,0,0,1-.17,0,.34.34,0,0,1-.17,0l-1.87-1.07a.14.14,0,0,1-.08-.11.08.08,0,0,1,.05-.09l.49-.28a1.17,1.17,0,0,1,.67-.14,1.51,1.51,0,0,1,.72.19l.75.43a.69.69,0,0,0,.36.1.49.49,0,0,0,.33-.07l.33-.18a.2.2,0,0,0,.12-.2c0-.08-.07-.14-.18-.21l-.74-.43a.8.8,0,0,0-.36-.09.52.52,0,0,0-.34.07.4.4,0,0,1-.17,0,.34.34,0,0,1-.17-.05.17.17,0,0,1-.09-.1.12.12,0,0,1,.06-.1,1.27,1.27,0,0,1,.68-.14,1.47,1.47,0,0,1,.71.2l.75.43a.59.59,0,0,1,.34.41.38.38,0,0,1-.24.39l-.32.19a1.29,1.29,0,0,1-.68.14A1.55,1.55,0,0,1,144.8,421.85Z" style="fill:#fff"></path><path d="M149.28,424.43l-.75-.43a.69.69,0,0,0-.36-.09.58.58,0,0,0-.33.06l-.25.14s0,0,0,.05a.08.08,0,0,0,.05,0l1.58.92a.17.17,0,0,1,.09.1.11.11,0,0,1-.06.1.31.31,0,0,1-.17,0,.48.48,0,0,1-.18-.05L147,424.24c-.05,0-.08-.06-.08-.1a.08.08,0,0,1,.06-.1l.48-.28a1.29,1.29,0,0,1,.68-.14,1.47,1.47,0,0,1,.71.2l.75.43a.8.8,0,0,0,.36.1.69.69,0,0,0,.34-.07l.32-.19c.09,0,.13-.11.12-.19a.31.31,0,0,0-.17-.21l-.75-.43a.8.8,0,0,0-.36-.1.58.58,0,0,0-.33.07.31.31,0,0,1-.17,0,.48.48,0,0,1-.18,0,.19.19,0,0,1-.09-.11.12.12,0,0,1,.06-.1,1.21,1.21,0,0,1,.68-.13,1.54,1.54,0,0,1,.72.19l.74.43a.59.59,0,0,1,.34.42.4.4,0,0,1-.24.39l-.32.18a1.17,1.17,0,0,1-.67.14A1.48,1.48,0,0,1,149.28,424.43Z" style="fill:#fff"></path><path d="M152.84,426.68l-.16.09a1.17,1.17,0,0,1-.67.14,1.55,1.55,0,0,1-.72-.2l-.74-.43a.56.56,0,0,1-.34-.41.38.38,0,0,1,.24-.39.26.26,0,0,1,.16,0,.34.34,0,0,1,.18,0,.19.19,0,0,1,.09.11.12.12,0,0,1-.06.1c-.09.05-.13.11-.12.19a.31.31,0,0,0,.17.21l.74.43a.88.88,0,0,0,.36.1.69.69,0,0,0,.34-.07l.16-.1c.09,0,.13-.11.12-.19a.31.31,0,0,0-.17-.21l-.19-.11s-.08-.06-.08-.1,0-.07.06-.1a.4.4,0,0,1,.17,0,.37.37,0,0,1,.18,0l.18.11a.74.74,0,0,0,.36.09.52.52,0,0,0,.34-.07l.16-.09a.19.19,0,0,0,.12-.19.31.31,0,0,0-.17-.21l-.74-.43a.88.88,0,0,0-.36-.1.69.69,0,0,0-.34.07.24.24,0,0,1-.17,0,.48.48,0,0,1-.18,0,.14.14,0,0,1-.08-.11s0-.07.06-.1a1.26,1.26,0,0,1,.67-.13,1.54,1.54,0,0,1,.72.19l.74.43a.59.59,0,0,1,.34.42.4.4,0,0,1-.24.39l-.16.09a1,1,0,0,1-.33.11,1.4,1.4,0,0,1-.41,0,.34.34,0,0,1,0,.24A.46.46,0,0,1,152.84,426.68Z" style="fill:#fff"></path><path d="M145.05,423.56h0a.13.13,0,0,1,.07-.16l3.24-1.35a.12.12,0,0,1,.16.07.12.12,0,0,1-.06.16l-3.24,1.35A.13.13,0,0,1,145.05,423.56Z" style="fill:#fff"></path><path d="M183.84,408.51,173,414.77a3.24,3.24,0,0,1-2.94,0l-13.23-7.54a.89.89,0,0,1,0-1.69l10.84-6.26a3.24,3.24,0,0,1,2.94,0c3.58,2.07,9.64,5.46,13.22,7.54A.89.89,0,0,1,183.84,408.51Z" style="fill:#CFD8DC"></path><g style="clip-path:url(#freepik--clip-path--inject-685)"><path d="M183.84,408.51,173,414.77a3.24,3.24,0,0,1-2.94,0l-13.23-7.54a.89.89,0,0,1,0-1.69l10.84-6.26a3.24,3.24,0,0,1,2.94,0c3.58,2.07,9.64,5.46,13.22,7.54A.89.89,0,0,1,183.84,408.51Z" style="fill:#fff;opacity:0.8"></path><polygon points="183.44 411.74 184.43 411.54 162.76 399.13 161.76 399.32 183.44 411.74" style="fill:#CFD8DC"></polygon><polygon points="169.65 409.96 170.65 410.15 176.17 406.96 175.17 406.77 169.65 409.96" style="fill:#CFD8DC"></polygon><polygon points="164.49 407.1 165.49 407.29 171 404.11 170.01 403.92 164.49 407.1" style="fill:#CFD8DC"></polygon><polygon points="177.9 414.93 178.9 414.74 157.23 402.32 156.23 402.52 177.9 414.93" style="fill:#CFD8DC"></polygon></g><path d="M114.69,407.15,62.91,377.26a3.6,3.6,0,0,0-3.26,0l-.23.13a1,1,0,0,0,0,1.88l51.79,29.9a3.6,3.6,0,0,0,3.26,0l.22-.13A1,1,0,0,0,114.69,407.15Z" style="fill:#455a64"></path><path d="M109.88,349.77a.79.79,0,0,1,.3,0,.62.62,0,0,1,.26.07l.81.47c.08.05.12.1.12.16s0,.12-.12.16a4.43,4.43,0,0,1-1,.36,5.29,5.29,0,0,1-1.29.12,6.55,6.55,0,0,1-1.46-.22,6.18,6.18,0,0,1-1.55-.65,3.53,3.53,0,0,1-1-.83,1.41,1.41,0,0,1-.33-.86,1.37,1.37,0,0,1,.3-.84,3.56,3.56,0,0,1,.87-.79l.83-.5.87-.48a5.91,5.91,0,0,1,1.37-.5,6,6,0,0,1,1.46-.18,6.26,6.26,0,0,1,1.48.19,5.64,5.64,0,0,1,1.44.6,4,4,0,0,1,1.13.89,1.61,1.61,0,0,1,.37.85,1.12,1.12,0,0,1-.21.74,2.49,2.49,0,0,1-.61.6.5.5,0,0,1-.27.07.77.77,0,0,1-.28-.07l-.82-.48a.21.21,0,0,1-.12-.14q0-.09.09-.18a.93.93,0,0,0,.25-.31.67.67,0,0,0,0-.37,1,1,0,0,0-.24-.43,2.32,2.32,0,0,0-.59-.45,2.79,2.79,0,0,0-.81-.32,3.21,3.21,0,0,0-.81-.1,3.49,3.49,0,0,0-.79.1,3.27,3.27,0,0,0-.72.28l-.87.47-.82.5a2.28,2.28,0,0,0-.48.42.77.77,0,0,0-.17.45.72.72,0,0,0,.16.47,1.76,1.76,0,0,0,.57.47,3.3,3.3,0,0,0,.78.34,3.46,3.46,0,0,0,.73.14,2.86,2.86,0,0,0,.66,0A2,2,0,0,0,109.88,349.77Z" style="fill:#CFD8DC"></path><path d="M120.14,350.13c.84.49,1.29,1,1.33,1.45s-.27.91-1,1.31a4.15,4.15,0,0,1-1.6.53,4.61,4.61,0,0,1-1.76-.13l-1.1,2.25-.08.08a.52.52,0,0,1-.23.05.51.51,0,0,1-.22-.05l-.86-.5c-.13-.07-.2-.15-.2-.22a.36.36,0,0,1,0-.19l1-2.12-1.34-.77-2.35,1.36a.6.6,0,0,1-.27.06.61.61,0,0,1-.28-.06l-.81-.47a.19.19,0,0,1-.11-.16.18.18,0,0,1,.11-.16l6.51-3.76a.51.51,0,0,1,.28-.07.47.47,0,0,1,.27.07Zm-4.69,1,1.46.85a3.19,3.19,0,0,0,1.12.41,1.74,1.74,0,0,0,1.11-.24c.38-.22.52-.43.42-.64a1.83,1.83,0,0,0-.73-.64l-1.46-.84Z" style="fill:#CFD8DC"></path><path d="M122.93,358.44a.16.16,0,0,1,0,.31l-.72.42a.64.64,0,0,1-.54,0l-4.43-2.56a.18.18,0,0,1-.11-.16.19.19,0,0,1,.11-.16l6.52-3.76a.54.54,0,0,1,.27-.06.57.57,0,0,1,.27.06l4.35,2.51a.19.19,0,0,1,.11.16.21.21,0,0,1-.11.16l-.72.41a.64.64,0,0,1-.54,0l-3.26-1.88-1.61.92,3,1.76a.18.18,0,0,1,.11.16.16.16,0,0,1-.11.15l-.71.42a.61.61,0,0,1-.28.06.54.54,0,0,1-.27-.06l-3-1.76-1.67,1Z" style="fill:#CFD8DC"></path><path d="M133,357.56a4,4,0,0,1,1.1.87,1.43,1.43,0,0,1,.36.85,1.3,1.3,0,0,1-.32.83,3.49,3.49,0,0,1-.91.8c-.47.31-1,.59-1.49.87a6.91,6.91,0,0,1-1.39.52,5.43,5.43,0,0,1-1.44.19,5.7,5.7,0,0,1-1.46-.2,6.16,6.16,0,0,1-1.47-.62l-2.54-1.47a.16.16,0,0,1,0-.31l6.52-3.77a.57.57,0,0,1,.27-.06.61.61,0,0,1,.28.06Zm-1.13,2.57a2,2,0,0,0,.47-.42.77.77,0,0,0,.17-.46.8.8,0,0,0-.19-.49,2.25,2.25,0,0,0-.64-.5l-1.35-.78-4.54,2.62,1.4.81a3.33,3.33,0,0,0,1.66.46,3.49,3.49,0,0,0,.79-.1,3.35,3.35,0,0,0,.73-.28C130.92,360.72,131.42,360.43,131.89,360.13Z" style="fill:#CFD8DC"></path><path d="M130.57,364.3a.16.16,0,0,1-.11-.15.17.17,0,0,1,.11-.16l6.51-3.76a.51.51,0,0,1,.28-.07.47.47,0,0,1,.27.07l.82.47a.16.16,0,0,1,0,.31l-6.52,3.77a.6.6,0,0,1-.27.06.61.61,0,0,1-.28-.06Z" style="fill:#CFD8DC"></path><path d="M145,364.48a.18.18,0,0,1,.11.16q0,.09-.12.15l-.71.42a.6.6,0,0,1-.27.06.61.61,0,0,1-.28-.06l-1.81-1-5.53,3.19a.71.71,0,0,1-.27.07.77.77,0,0,1-.28-.07l-.81-.47a.21.21,0,0,1-.12-.16.19.19,0,0,1,.12-.15l5.53-3.2-1.82-1.05a.16.16,0,0,1-.11-.15.17.17,0,0,1,.11-.16l.72-.42a.54.54,0,0,1,.27-.06.57.57,0,0,1,.27.06Z" style="fill:#CFD8DC"></path><path d="M147.84,371.69a.63.63,0,0,1,.3-.05.57.57,0,0,1,.25.07l.82.47a.18.18,0,0,1,.12.16q0,.09-.12.15a4.43,4.43,0,0,1-1,.36,5.29,5.29,0,0,1-1.29.12,6.51,6.51,0,0,1-1.46-.21,5.87,5.87,0,0,1-1.55-.66,3.24,3.24,0,0,1-1-.83,1.38,1.38,0,0,1-.33-.85,1.32,1.32,0,0,1,.3-.85,3.57,3.57,0,0,1,.87-.79l.83-.5c.31-.18.6-.33.87-.47a6.23,6.23,0,0,1,1.37-.51,5.55,5.55,0,0,1,1.46-.17,5.78,5.78,0,0,1,1.48.19,5.27,5.27,0,0,1,1.44.59,3.83,3.83,0,0,1,1.13.9,1.55,1.55,0,0,1,.37.84,1.13,1.13,0,0,1-.21.75,2.29,2.29,0,0,1-.61.59.44.44,0,0,1-.28.07.6.6,0,0,1-.27-.07l-.82-.47a.25.25,0,0,1-.12-.15c0-.06,0-.12.08-.18a.91.91,0,0,0,.26-.3.7.7,0,0,0,0-.38,1,1,0,0,0-.24-.42,2.32,2.32,0,0,0-.59-.45,3.14,3.14,0,0,0-.81-.33,3.25,3.25,0,0,0-.81-.09,3,3,0,0,0-.79.1,3.83,3.83,0,0,0-.72.27l-.87.48-.82.5a1.83,1.83,0,0,0-.48.42.86.86,0,0,0-.18.45.85.85,0,0,0,.17.47,1.9,1.9,0,0,0,.57.47,3.77,3.77,0,0,0,.78.34,4.24,4.24,0,0,0,.73.14,3.56,3.56,0,0,0,.66,0A2,2,0,0,0,147.84,371.69Z" style="fill:#CFD8DC"></path><path d="M158.48,372.26c.1.06.16.13.15.19a.4.4,0,0,1-.11.23l-3.91,5.11s0,0-.06,0a.64.64,0,0,1-.54,0l-.73-.42c-.13-.08-.2-.15-.2-.21a.43.43,0,0,1,.06-.17l.68-.89-3.19-1.84-1.55.39a1.09,1.09,0,0,1-.28,0,.65.65,0,0,1-.37-.11l-.72-.42a.17.17,0,0,1-.11-.16.18.18,0,0,1,.11-.15l.08,0,8.85-2.25a1.68,1.68,0,0,1,.4-.07.68.68,0,0,1,.33.09Zm-3.88,2.88,1.77-2.3-4,1Z" style="fill:#CFD8DC"></path><path d="M165.14,376.11c.84.48,1.28,1,1.33,1.44s-.28.92-1,1.32a4.2,4.2,0,0,1-1.6.53,4.61,4.61,0,0,1-1.76-.13l-1.1,2.24a.2.2,0,0,1-.08.08.41.41,0,0,1-.23.06.4.4,0,0,1-.22-.06l-.85-.49c-.14-.08-.21-.16-.21-.23a.48.48,0,0,1,0-.18l1-2.12-1.34-.77-2.35,1.35a.47.47,0,0,1-.27.07.45.45,0,0,1-.27-.07l-.82-.47a.17.17,0,0,1-.11-.16.16.16,0,0,1,.11-.15L162,374.6a.64.64,0,0,1,.54,0Zm-4.7,1,1.46.84a3.41,3.41,0,0,0,1.13.42,1.67,1.67,0,0,0,1.1-.25q.57-.33.42-.63a1.7,1.7,0,0,0-.73-.64l-1.46-.85Z" style="fill:#CFD8DC"></path><path d="M171.89,380a3.89,3.89,0,0,1,1.1.86,1.34,1.34,0,0,1,.36.85,1.39,1.39,0,0,1-.31.84,3.94,3.94,0,0,1-.92.8c-.47.3-1,.59-1.49.86a7.1,7.1,0,0,1-1.39.53,5.78,5.78,0,0,1-1.43.18,5.72,5.72,0,0,1-1.47-.2,6.3,6.3,0,0,1-1.46-.61l-2.54-1.47a.19.19,0,0,1-.11-.16.18.18,0,0,1,.11-.16l6.51-3.76a.5.5,0,0,1,.28-.06.47.47,0,0,1,.27.06Zm-1.13,2.56a2,2,0,0,0,.48-.42.77.77,0,0,0,.17-.46.82.82,0,0,0-.2-.49,2.15,2.15,0,0,0-.63-.49l-1.35-.78-4.54,2.62,1.4.81a3.09,3.09,0,0,0,.83.34,3,3,0,0,0,.83.11,3.06,3.06,0,0,0,.79-.1,3.56,3.56,0,0,0,.73-.28C169.79,383.19,170.29,382.9,170.76,382.6Z" style="fill:#CFD8DC"></path></g></g></svg>