<svg width="347" height="289" viewBox="0 0 347 289" fill="none" xmlns="http://www.w3.org/2000/svg">
<g opacity="0.8">
<path d="M336.56 0.121582H10.7754C8.07836 0.123599 5.49249 1.1964 3.58612 3.10419C1.67975 5.01199 0.608886 7.59866 0.608887 10.2957V240.404C0.608887 243.1 1.67999 245.686 3.58658 247.593C5.49317 249.499 8.07906 250.57 10.7754 250.57H135.81C135.81 250.57 143.762 275.165 119.068 287.858H236.021C236.021 287.858 208.185 278.315 215.346 250.57H336.56C339.256 250.57 341.842 249.499 343.748 247.593C345.655 245.686 346.726 243.1 346.726 240.404V10.2957C346.726 7.59866 345.655 5.01199 343.749 3.10419C341.843 1.1964 339.257 0.123599 336.56 0.121582Z" fill="#455A64"/>
<path d="M176.377 226.371C180.813 232.703 173.873 239.643 167.542 235.206C167.329 235.06 167.143 234.877 166.994 234.666C162.573 228.327 169.505 221.402 175.836 225.823C176.048 225.972 176.23 226.158 176.377 226.371Z" fill="#263238"/>
<path d="M13.5986 4.3374H333.737C334.706 4.3374 335.666 4.52833 336.561 4.89928C337.457 5.27023 338.271 5.81393 338.956 6.49935C339.641 7.18478 340.185 7.99849 340.556 8.89404C340.927 9.78959 341.118 10.7494 341.118 11.7188V208.504H6.21729V11.7188C6.21729 9.76111 6.99496 7.88363 8.37924 6.49935C9.76351 5.11508 11.641 4.3374 13.5986 4.3374Z" fill="#E0E0E0"/>
<path d="M278.315 250.601C278.315 250.707 231.957 250.799 174.779 250.799C117.6 250.799 71.2417 250.707 71.2417 250.601C71.2417 250.494 117.584 250.411 174.779 250.411C231.973 250.411 278.315 250.494 278.315 250.601Z" fill="#263238"/>
<path d="M301.715 10.9346H42.7056V201.883H301.715V10.9346Z" fill="white"/>
<path d="M302.103 202.264H42.3252V10.5537H302.103V202.264ZM43.0938 201.503H301.342V11.3147H43.0862L43.0938 201.503Z" fill="#263238"/>
<path d="M54.9113 19.5863C54.9113 19.946 54.8047 20.2976 54.6048 20.5967C54.405 20.8958 54.1209 21.1289 53.7886 21.2666C53.4563 21.4042 53.0906 21.4402 52.7378 21.37C52.385 21.2999 52.061 21.1267 51.8066 20.8723C51.5523 20.618 51.379 20.2939 51.3089 19.9411C51.2387 19.5883 51.2747 19.2226 51.4124 18.8903C51.55 18.558 51.7831 18.2739 52.0822 18.0741C52.3813 17.8742 52.7329 17.7676 53.0926 17.7676C53.575 17.7676 54.0376 17.9592 54.3787 18.3003C54.7197 18.6413 54.9113 19.1039 54.9113 19.5863Z" fill="#263238"/>
<path d="M58.5184 21.405C59.5229 21.405 60.3371 20.5907 60.3371 19.5863C60.3371 18.5818 59.5229 17.7676 58.5184 17.7676C57.514 17.7676 56.6997 18.5818 56.6997 19.5863C56.6997 20.5907 57.514 21.405 58.5184 21.405Z" fill="#263238"/>
<path d="M63.6776 21.405C64.682 21.405 65.4963 20.5907 65.4963 19.5863C65.4963 18.5818 64.682 17.7676 63.6776 17.7676C62.6731 17.7676 61.8589 18.5818 61.8589 19.5863C61.8589 20.5907 62.6731 21.405 63.6776 21.405Z" fill="#263238"/>
<path d="M187.837 31.9599L173.706 26.7549L159.719 31.8914C157.931 32.7589 156.363 33.2763 156.363 34.9809V43.4809C156.334 49.4316 157.929 55.2775 160.975 60.3895C163.971 65.4998 168.462 69.5686 173.843 72.0475C179.565 70.1375 183.834 65.0618 186.437 60.7167C189.485 55.6056 191.079 49.7591 191.048 43.8081V36.1985C191.048 33.7177 189.792 32.5306 187.837 31.9599Z" fill="#FF9D0A"/>
<g opacity="0.8">
<path d="M187.837 31.9599L173.706 26.7549L159.719 31.8914C157.931 32.7589 156.363 33.2763 156.363 34.9809V43.4809C156.334 49.4316 157.929 55.2775 160.975 60.3895C163.971 65.4998 168.462 69.5686 173.843 72.0475C179.565 70.1375 183.834 65.0618 186.437 60.7167C189.485 55.6056 191.079 49.7591 191.048 43.8081V36.1985C191.048 33.7177 189.792 32.5306 187.837 31.9599Z" fill="white"/>
</g>
<path d="M184.154 54.0966H181.011V37.0054C181.011 35.0699 180.242 33.2137 178.874 31.8452C177.505 30.4766 175.649 29.7077 173.713 29.7077C171.778 29.7077 169.922 30.4766 168.553 31.8452C167.185 33.2137 166.416 35.0699 166.416 37.0054V54.0966H163.273V37.0054C163.273 34.2364 164.373 31.5808 166.331 29.6229C168.289 27.6649 170.944 26.5649 173.713 26.5649C176.482 26.5649 179.138 27.6649 181.096 29.6229C183.054 31.5808 184.154 34.2364 184.154 37.0054V54.0966Z" fill="#FF9D0A"/>
<g opacity="0.4">
<path d="M184.154 54.0966H181.011V37.0054C181.011 35.0699 180.242 33.2137 178.874 31.8452C177.505 30.4766 175.649 29.7077 173.713 29.7077C171.778 29.7077 169.922 30.4766 168.553 31.8452C167.185 33.2137 166.416 35.0699 166.416 37.0054V54.0966H163.273V37.0054C163.273 34.2364 164.373 31.5808 166.331 29.6229C168.289 27.6649 170.944 26.5649 173.713 26.5649C176.482 26.5649 179.138 27.6649 181.096 29.6229C183.054 31.5808 184.154 34.2364 184.154 37.0054V54.0966Z" fill="black"/>
</g>
<path d="M183.347 46.4946H164.056C161.615 46.4946 159.635 48.4741 159.635 50.9158V60.1235C159.635 62.5653 161.615 64.5447 164.056 64.5447H183.347C185.789 64.5447 187.768 62.5653 187.768 60.1235V50.9158C187.768 48.4741 185.789 46.4946 183.347 46.4946Z" fill="#FF9D0A"/>
<g opacity="0.5">
<path d="M176.057 53.1682C176.053 52.7316 175.928 52.3046 175.695 51.9351C175.463 51.5656 175.132 51.2682 174.739 51.0763C174.347 50.8843 173.909 50.8054 173.475 50.8483C173.04 50.8912 172.626 51.0543 172.279 51.3192C171.932 51.5842 171.666 51.9406 171.51 52.3485C171.354 52.7563 171.314 53.1996 171.396 53.6285C171.478 54.0575 171.677 54.4552 171.972 54.7771C172.268 55.099 172.646 55.3324 173.067 55.4511V58.9668H174.345V55.4511C174.842 55.3121 175.279 55.013 175.589 54.6003C175.898 54.1875 176.063 53.6841 176.057 53.1682Z" fill="black"/>
</g>
<path d="M161.142 62.8325C161.074 62.8325 161.021 59.8267 161.021 56.1132C161.021 52.3997 161.074 49.3862 161.142 49.3862C161.211 49.3862 161.256 52.4301 161.256 56.1132C161.256 59.7962 161.203 62.8325 161.142 62.8325Z" fill="#FAFAFA"/>
<path d="M171.864 56.1815C171.864 56.1815 171.758 56.1434 171.59 56.0293C171.358 55.8524 171.153 55.6421 170.981 55.4053C170.688 55.0187 170.484 54.572 170.384 54.0973C170.284 53.6225 170.29 53.1315 170.402 52.6594C170.514 52.1873 170.729 51.7458 171.032 51.3667C171.335 50.9876 171.718 50.6802 172.153 50.4666C172.411 50.3299 172.688 50.2349 172.975 50.1851C173.173 50.1851 173.287 50.1851 173.287 50.1851C172.925 50.301 172.573 50.4487 172.237 50.6264C171.837 50.8444 171.486 51.1442 171.209 51.5063C170.932 51.8685 170.735 52.2849 170.629 52.7284C170.524 53.172 170.513 53.6328 170.597 54.0808C170.681 54.5289 170.859 54.9543 171.118 55.3292C171.343 55.6331 171.593 55.9182 171.864 56.1815Z" fill="#FAFAFA"/>
<path d="M150.504 60.0171C151.101 60.0171 151.585 59.5333 151.585 58.9365C151.585 58.3397 151.101 57.856 150.504 57.856C149.907 57.856 149.423 58.3397 149.423 58.9365C149.423 59.5333 149.907 60.0171 150.504 60.0171Z" fill="#FF9D0A"/>
<path d="M199.373 30.5526C199.373 30.7681 199.309 30.9788 199.189 31.1579C199.069 31.337 198.899 31.4765 198.7 31.5586C198.5 31.6407 198.281 31.6618 198.07 31.6192C197.859 31.5766 197.665 31.4722 197.513 31.3193C197.361 31.1663 197.258 30.9717 197.217 30.7602C197.176 30.5486 197.198 30.3295 197.282 30.1308C197.365 29.9321 197.506 29.7627 197.686 29.6441C197.866 29.5254 198.077 29.4629 198.293 29.4644C198.58 29.4664 198.855 29.5819 199.057 29.7858C199.26 29.9896 199.373 30.2653 199.373 30.5526Z" fill="#FF9D0A"/>
<path d="M156.934 69.0493C156.932 69.1234 156.902 69.1939 156.849 69.2463C156.797 69.2987 156.726 69.329 156.652 69.3309C156.579 69.3289 156.509 69.2984 156.458 69.2458C156.407 69.1932 156.378 69.1227 156.378 69.0493C156.378 69.0134 156.386 68.9777 156.399 68.9445C156.413 68.9113 156.433 68.8811 156.459 68.8556C156.484 68.8302 156.514 68.81 156.548 68.7962C156.581 68.7825 156.616 68.7754 156.652 68.7754C156.726 68.7754 156.796 68.804 156.849 68.8551C156.901 68.9063 156.932 68.976 156.934 69.0493Z" fill="#FF9D0A"/>
<path d="M156.934 38.4131C156.932 38.4865 156.901 38.5561 156.849 38.6073C156.796 38.6585 156.726 38.6871 156.652 38.6871C156.58 38.6871 156.51 38.6582 156.459 38.6068C156.407 38.5554 156.378 38.4858 156.378 38.4131C156.378 38.3405 156.407 38.2708 156.459 38.2194C156.51 38.168 156.58 38.1392 156.652 38.1392C156.726 38.1391 156.796 38.1678 156.849 38.2189C156.901 38.2701 156.932 38.3398 156.934 38.4131Z" fill="#FF9D0A"/>
<path d="M199.906 53.1685C199.906 53.2411 199.877 53.3108 199.826 53.3622C199.774 53.4136 199.705 53.4424 199.632 53.4424C199.559 53.4424 199.49 53.4136 199.438 53.3622C199.387 53.3108 199.358 53.2411 199.358 53.1685C199.358 53.0958 199.387 53.0262 199.438 52.9748C199.49 52.9234 199.559 52.8945 199.632 52.8945C199.705 52.8945 199.774 52.9234 199.826 52.9748C199.877 53.0262 199.906 53.0958 199.906 53.1685Z" fill="#FF9D0A"/>
<path d="M203.733 40.3306C203.733 40.3848 203.717 40.4377 203.687 40.4828C203.657 40.5278 203.614 40.5629 203.564 40.5837C203.514 40.6044 203.459 40.6098 203.406 40.5993C203.353 40.5887 203.304 40.5626 203.266 40.5243C203.227 40.486 203.201 40.4372 203.191 40.384C203.18 40.3309 203.186 40.2758 203.206 40.2257C203.227 40.1757 203.262 40.1329 203.307 40.1028C203.352 40.0727 203.405 40.0566 203.459 40.0566C203.495 40.0566 203.531 40.0637 203.564 40.0775C203.598 40.0913 203.628 40.1114 203.653 40.1369C203.679 40.1623 203.699 40.1925 203.713 40.2257C203.726 40.259 203.733 40.2946 203.733 40.3306Z" fill="#FF9D0A"/>
<path d="M272.137 96.0559C272.137 96.1624 227.392 96.2537 172.207 96.2537C117.022 96.2537 72.292 96.1624 72.292 96.0559C72.292 95.9493 117.006 95.8809 172.207 95.8809C227.407 95.8809 272.137 95.9417 272.137 96.0559Z" fill="#263238"/>
<path d="M228.693 106.337C228.597 106.349 228.5 106.349 228.404 106.337H227.551L224.256 106.375L212.149 106.436L172.206 106.535L132.256 106.474L120.149 106.413L116.854 106.375H116.002C115.906 106.387 115.808 106.387 115.712 106.375C115.809 106.365 115.905 106.365 116.002 106.375H116.854L120.149 106.337L132.256 106.269L172.206 106.215L212.149 106.269L224.256 106.337L227.551 106.375H228.404C228.499 106.353 228.595 106.34 228.693 106.337Z" fill="#263238"/>
<path d="M122.47 115.354H111.626C108.962 115.354 106.802 117.514 106.802 120.179V138.107C106.802 140.772 108.962 142.932 111.626 142.932H122.47C125.135 142.932 127.295 140.772 127.295 138.107V120.179C127.295 117.514 125.135 115.354 122.47 115.354Z" fill="#E0E0E0"/>
<path d="M150.047 115.354H139.203C136.539 115.354 134.379 117.514 134.379 120.179V138.107C134.379 140.772 136.539 142.932 139.203 142.932H150.047C152.712 142.932 154.872 140.772 154.872 138.107V120.179C154.872 117.514 152.712 115.354 150.047 115.354Z" fill="#E0E0E0"/>
<path d="M177.624 115.354H166.781C164.116 115.354 161.956 117.514 161.956 120.179V138.107C161.956 140.772 164.116 142.932 166.781 142.932H177.624C180.289 142.932 182.449 140.772 182.449 138.107V120.179C182.449 117.514 180.289 115.354 177.624 115.354Z" fill="#E0E0E0"/>
<path d="M205.202 115.354H194.358C191.694 115.354 189.534 117.514 189.534 120.179V138.107C189.534 140.772 191.694 142.932 194.358 142.932H205.202C207.866 142.932 210.026 140.772 210.026 138.107V120.179C210.026 117.514 207.866 115.354 205.202 115.354Z" fill="#E0E0E0"/>
<path d="M232.779 115.354H221.935C219.271 115.354 217.111 117.514 217.111 120.179V138.107C217.111 140.772 219.271 142.932 221.935 142.932H232.779C235.444 142.932 237.604 140.772 237.604 138.107V120.179C237.604 117.514 235.444 115.354 232.779 115.354Z" fill="#E0E0E0"/>
<path d="M139.622 128.009C139.622 124.288 141.547 121.975 144.287 121.975C147.026 121.975 148.944 124.258 148.944 128.009C148.944 131.761 147.026 134.051 144.287 134.051C141.547 134.051 139.622 131.738 139.622 128.009ZM148.076 128.009C148.076 124.691 146.554 122.774 144.272 122.774C141.989 122.774 140.467 124.691 140.467 128.009C140.467 131.327 141.989 133.252 144.272 133.252C146.554 133.252 148.076 131.327 148.076 128.009Z" fill="black"/>
<path d="M176.962 122.059V122.667L171.841 133.968H170.89L175.958 122.842H169.277V125.125H168.424V122.081L176.962 122.059Z" fill="black"/>
<path d="M204.494 130.665H201.991V133.968H201.138V130.665H194.351V130.034L200.819 122.059H201.785L195.446 129.897H201.161V126.99H201.991V129.897H204.494V130.665Z" fill="black"/>
<path d="M234.332 137.262C232.118 137.458 229.895 137.524 227.673 137.46C225.452 137.524 223.228 137.458 221.015 137.262C223.228 137.057 225.451 136.988 227.673 137.057C229.895 136.988 232.118 137.057 234.332 137.262Z" fill="#FF9D0A"/>
<path d="M198.486 158H144.29C137.502 158 132 163.502 132 170.29V171.028C132 177.815 137.502 183.317 144.29 183.317H198.486C205.273 183.317 210.775 177.815 210.775 171.028V170.29C210.775 163.502 205.273 158 198.486 158Z" fill="#FF9D0A"/>
<path d="M150.23 167.928L147.91 175H146.041L149.211 166.469H150.4L150.23 167.928ZM152.158 175L149.832 167.928L149.645 166.469H150.846L154.033 175H152.158ZM152.053 171.824V173.201H147.547V171.824H152.053ZM158.398 173.482V168.66H160.086V175H158.498L158.398 173.482ZM158.586 172.182L159.084 172.17C159.084 172.592 159.035 172.984 158.938 173.348C158.84 173.707 158.693 174.02 158.498 174.285C158.303 174.547 158.057 174.752 157.76 174.9C157.463 175.045 157.113 175.117 156.711 175.117C156.402 175.117 156.117 175.074 155.855 174.988C155.598 174.898 155.375 174.76 155.188 174.572C155.004 174.381 154.859 174.137 154.754 173.84C154.652 173.539 154.602 173.178 154.602 172.756V168.66H156.289V172.768C156.289 172.955 156.311 173.113 156.354 173.242C156.4 173.371 156.465 173.477 156.547 173.559C156.629 173.641 156.725 173.699 156.834 173.734C156.947 173.77 157.072 173.787 157.209 173.787C157.557 173.787 157.83 173.717 158.029 173.576C158.232 173.436 158.375 173.244 158.457 173.002C158.543 172.756 158.586 172.482 158.586 172.182ZM164.48 168.66V169.855H160.789V168.66H164.48ZM161.703 167.096H163.391V173.09C163.391 173.273 163.414 173.414 163.461 173.512C163.512 173.609 163.586 173.678 163.684 173.717C163.781 173.752 163.904 173.77 164.053 173.77C164.158 173.77 164.252 173.766 164.334 173.758C164.42 173.746 164.492 173.734 164.551 173.723L164.557 174.965C164.412 175.012 164.256 175.049 164.088 175.076C163.92 175.104 163.734 175.117 163.531 175.117C163.16 175.117 162.836 175.057 162.559 174.936C162.285 174.811 162.074 174.611 161.926 174.338C161.777 174.064 161.703 173.705 161.703 173.26V167.096ZM165.02 171.895V171.771C165.02 171.307 165.086 170.879 165.219 170.488C165.352 170.094 165.545 169.752 165.799 169.463C166.053 169.174 166.365 168.949 166.736 168.789C167.107 168.625 167.533 168.543 168.014 168.543C168.494 168.543 168.922 168.625 169.297 168.789C169.672 168.949 169.986 169.174 170.24 169.463C170.498 169.752 170.693 170.094 170.826 170.488C170.959 170.879 171.025 171.307 171.025 171.771V171.895C171.025 172.355 170.959 172.783 170.826 173.178C170.693 173.568 170.498 173.91 170.24 174.203C169.986 174.492 169.674 174.717 169.303 174.877C168.932 175.037 168.506 175.117 168.025 175.117C167.545 175.117 167.117 175.037 166.742 174.877C166.371 174.717 166.057 174.492 165.799 174.203C165.545 173.91 165.352 173.568 165.219 173.178C165.086 172.783 165.02 172.355 165.02 171.895ZM166.707 171.771V171.895C166.707 172.16 166.73 172.408 166.777 172.639C166.824 172.869 166.898 173.072 167 173.248C167.105 173.42 167.242 173.555 167.41 173.652C167.578 173.75 167.783 173.799 168.025 173.799C168.26 173.799 168.461 173.75 168.629 173.652C168.797 173.555 168.932 173.42 169.033 173.248C169.135 173.072 169.209 172.869 169.256 172.639C169.307 172.408 169.332 172.16 169.332 171.895V171.771C169.332 171.514 169.307 171.271 169.256 171.045C169.209 170.814 169.133 170.611 169.027 170.436C168.926 170.256 168.791 170.115 168.623 170.014C168.455 169.912 168.252 169.861 168.014 169.861C167.775 169.861 167.572 169.912 167.404 170.014C167.24 170.115 167.105 170.256 167 170.436C166.898 170.611 166.824 170.814 166.777 171.045C166.73 171.271 166.707 171.514 166.707 171.771ZM173.75 170.043V175H172.062V168.66H173.65L173.75 170.043ZM175.66 168.619L175.631 170.184C175.549 170.172 175.449 170.162 175.332 170.154C175.219 170.143 175.115 170.137 175.021 170.137C174.783 170.137 174.576 170.168 174.4 170.23C174.229 170.289 174.084 170.377 173.967 170.494C173.854 170.611 173.768 170.754 173.709 170.922C173.654 171.09 173.623 171.281 173.615 171.496L173.275 171.391C173.275 170.98 173.316 170.604 173.398 170.26C173.48 169.912 173.6 169.609 173.756 169.352C173.916 169.094 174.111 168.895 174.342 168.754C174.572 168.613 174.836 168.543 175.133 168.543C175.227 168.543 175.322 168.551 175.42 168.566C175.518 168.578 175.598 168.596 175.66 168.619ZM178.238 168.66V175H176.545V168.66H178.238ZM176.439 167.008C176.439 166.762 176.525 166.559 176.697 166.398C176.869 166.238 177.1 166.158 177.389 166.158C177.674 166.158 177.902 166.238 178.074 166.398C178.25 166.559 178.338 166.762 178.338 167.008C178.338 167.254 178.25 167.457 178.074 167.617C177.902 167.777 177.674 167.857 177.389 167.857C177.1 167.857 176.869 167.777 176.697 167.617C176.525 167.457 176.439 167.254 176.439 167.008ZM184.678 173.682V175H179.861V173.682H184.678ZM184.584 169.633L180.541 175H179.41V173.998L183.436 168.66H184.584V169.633ZM183.986 168.66V169.984H179.504V168.66H183.986ZM189.16 173.57V170.746C189.16 170.543 189.127 170.369 189.061 170.225C188.994 170.076 188.891 169.961 188.75 169.879C188.613 169.797 188.436 169.756 188.217 169.756C188.029 169.756 187.867 169.789 187.73 169.855C187.594 169.918 187.488 170.01 187.414 170.131C187.34 170.248 187.303 170.387 187.303 170.547H185.615C185.615 170.277 185.678 170.021 185.803 169.779C185.928 169.537 186.109 169.324 186.348 169.141C186.586 168.953 186.869 168.807 187.197 168.701C187.529 168.596 187.9 168.543 188.311 168.543C188.803 168.543 189.24 168.625 189.623 168.789C190.006 168.953 190.307 169.199 190.525 169.527C190.748 169.855 190.859 170.266 190.859 170.758V173.471C190.859 173.818 190.881 174.104 190.924 174.326C190.967 174.545 191.029 174.736 191.111 174.9V175H189.406C189.324 174.828 189.262 174.613 189.219 174.355C189.18 174.094 189.16 173.832 189.16 173.57ZM189.383 171.139L189.395 172.094H188.451C188.229 172.094 188.035 172.119 187.871 172.17C187.707 172.221 187.572 172.293 187.467 172.387C187.361 172.477 187.283 172.582 187.232 172.703C187.186 172.824 187.162 172.957 187.162 173.102C187.162 173.246 187.195 173.377 187.262 173.494C187.328 173.607 187.424 173.697 187.549 173.764C187.674 173.826 187.82 173.857 187.988 173.857C188.242 173.857 188.463 173.807 188.65 173.705C188.838 173.604 188.982 173.479 189.084 173.33C189.189 173.182 189.244 173.041 189.248 172.908L189.693 173.623C189.631 173.783 189.545 173.949 189.436 174.121C189.33 174.293 189.195 174.455 189.031 174.607C188.867 174.756 188.67 174.879 188.439 174.977C188.209 175.07 187.936 175.117 187.619 175.117C187.217 175.117 186.852 175.037 186.523 174.877C186.199 174.713 185.941 174.488 185.75 174.203C185.562 173.914 185.469 173.586 185.469 173.219C185.469 172.887 185.531 172.592 185.656 172.334C185.781 172.076 185.965 171.859 186.207 171.684C186.453 171.504 186.76 171.369 187.127 171.279C187.494 171.186 187.92 171.139 188.404 171.139H189.383ZM193.848 170.043V175H192.16V168.66H193.748L193.848 170.043ZM195.758 168.619L195.729 170.184C195.646 170.172 195.547 170.162 195.43 170.154C195.316 170.143 195.213 170.137 195.119 170.137C194.881 170.137 194.674 170.168 194.498 170.23C194.326 170.289 194.182 170.377 194.064 170.494C193.951 170.611 193.865 170.754 193.807 170.922C193.752 171.09 193.721 171.281 193.713 171.496L193.373 171.391C193.373 170.98 193.414 170.604 193.496 170.26C193.578 169.912 193.697 169.609 193.854 169.352C194.014 169.094 194.209 168.895 194.439 168.754C194.67 168.613 194.934 168.543 195.23 168.543C195.324 168.543 195.42 168.551 195.518 168.566C195.615 168.578 195.695 168.596 195.758 168.619Z" fill="white"/>
<path d="M113.348 79.4707L109.807 89H109.219L112.958 79.0469H113.416L113.348 79.4707ZM116.697 89L113.163 79.4707L113.095 79.0469H113.546L117.292 89H116.697ZM115.822 85.5889V86.1016H110.716V85.5889H115.822ZM123.444 87.291V81.6035H123.991V89H123.451L123.444 87.291ZM123.54 86.0332L123.896 86.0195C123.896 86.4707 123.839 86.8854 123.725 87.2637C123.615 87.6419 123.442 87.9723 123.205 88.2549C122.973 88.5329 122.672 88.7493 122.303 88.9043C121.934 89.0592 121.492 89.1367 120.977 89.1367C120.617 89.1367 120.286 89.0866 119.985 88.9863C119.689 88.8815 119.432 88.7174 119.213 88.4941C118.999 88.2708 118.832 87.9792 118.714 87.6191C118.6 87.2591 118.543 86.8239 118.543 86.3135V81.6035H119.083V86.3271C119.083 86.7555 119.131 87.1178 119.227 87.4141C119.327 87.7103 119.464 87.9473 119.637 88.125C119.81 88.3027 120.013 88.4326 120.245 88.5146C120.478 88.5921 120.73 88.6309 121.004 88.6309C121.642 88.6309 122.146 88.5078 122.515 88.2617C122.888 88.0156 123.153 87.6943 123.308 87.2979C123.463 86.9014 123.54 86.4798 123.54 86.0332ZM128.879 81.6035V82.0957H125.338V81.6035H128.879ZM126.705 79.6484H127.252V87.2158C127.252 87.6123 127.3 87.9131 127.396 88.1182C127.496 88.3187 127.626 88.4554 127.785 88.5283C127.949 88.5967 128.125 88.6309 128.312 88.6309C128.444 88.6309 128.564 88.624 128.674 88.6104C128.788 88.5967 128.902 88.5807 129.016 88.5625L129.063 89.041C128.963 89.0729 128.833 89.0957 128.674 89.1094C128.514 89.1276 128.373 89.1367 128.25 89.1367C127.94 89.1367 127.669 89.0798 127.437 88.9658C127.204 88.8519 127.024 88.6559 126.896 88.3779C126.769 88.0954 126.705 87.708 126.705 87.2158V79.6484ZM130.055 85.4316V85.1719C130.055 84.6296 130.132 84.1328 130.287 83.6816C130.447 83.2305 130.67 82.8408 130.957 82.5127C131.244 82.18 131.586 81.9225 131.982 81.7402C132.383 81.5579 132.828 81.4668 133.315 81.4668C133.803 81.4668 134.247 81.5579 134.648 81.7402C135.049 81.9225 135.394 82.18 135.681 82.5127C135.972 82.8408 136.196 83.2305 136.351 83.6816C136.506 84.1328 136.583 84.6296 136.583 85.1719V85.4316C136.583 85.974 136.506 86.4707 136.351 86.9219C136.196 87.373 135.975 87.765 135.688 88.0977C135.4 88.4258 135.056 88.681 134.655 88.8633C134.259 89.0456 133.817 89.1367 133.329 89.1367C132.837 89.1367 132.39 89.0456 131.989 88.8633C131.593 88.681 131.249 88.4258 130.957 88.0977C130.67 87.765 130.447 87.373 130.287 86.9219C130.132 86.4707 130.055 85.974 130.055 85.4316ZM130.602 85.1719V85.4316C130.602 85.86 130.661 86.2679 130.779 86.6553C130.902 87.0381 131.08 87.3799 131.312 87.6807C131.545 87.9769 131.83 88.2116 132.167 88.3848C132.504 88.5534 132.892 88.6377 133.329 88.6377C133.757 88.6377 134.14 88.5534 134.478 88.3848C134.815 88.2116 135.097 87.9769 135.325 87.6807C135.558 87.3799 135.733 87.0381 135.852 86.6553C135.975 86.2679 136.036 85.86 136.036 85.4316V85.1719C136.036 84.7526 135.975 84.3516 135.852 83.9688C135.733 83.5859 135.558 83.2441 135.325 82.9434C135.093 82.6426 134.808 82.4056 134.471 82.2324C134.133 82.0547 133.748 81.9658 133.315 81.9658C132.882 81.9658 132.497 82.0547 132.16 82.2324C131.827 82.4056 131.543 82.6426 131.306 82.9434C131.073 83.2441 130.898 83.5859 130.779 83.9688C130.661 84.3516 130.602 84.7526 130.602 85.1719ZM138.88 82.8613V89H138.34V81.6035H138.873L138.88 82.8613ZM141.696 81.5488L141.662 82.041C141.58 82.0273 141.498 82.016 141.416 82.0068C141.334 81.9977 141.247 81.9932 141.156 81.9932C140.764 81.9932 140.42 82.0706 140.124 82.2256C139.832 82.3805 139.586 82.5924 139.386 82.8613C139.19 83.1302 139.042 83.4424 138.941 83.7979C138.841 84.1533 138.789 84.5339 138.784 84.9395L138.518 84.9941C138.518 84.4883 138.57 84.0212 138.675 83.5928C138.784 83.1644 138.948 82.7907 139.167 82.4717C139.386 82.1527 139.661 81.9066 139.994 81.7334C140.327 81.5557 140.719 81.4668 141.17 81.4668C141.279 81.4668 141.38 81.4759 141.471 81.4941C141.562 81.5078 141.637 81.526 141.696 81.5488ZM143.679 81.6035V89H143.132V81.6035H143.679ZM142.961 79.3613C142.961 79.2383 143.002 79.1335 143.084 79.0469C143.171 78.9557 143.28 78.9102 143.412 78.9102C143.54 78.9102 143.647 78.9557 143.733 79.0469C143.82 79.1335 143.863 79.2383 143.863 79.3613C143.863 79.4844 143.82 79.5892 143.733 79.6758C143.647 79.7578 143.54 79.7988 143.412 79.7988C143.28 79.7988 143.171 79.7578 143.084 79.6758C143.002 79.5892 142.961 79.4844 142.961 79.3613ZM151.28 88.501V89H145.675V88.501H151.28ZM150.918 82.041L145.839 89H145.497V88.5762L150.583 81.6035H150.918V82.041ZM150.672 81.6035V82.1094H145.682V81.6035H150.672ZM157.364 87.6396V83.8184C157.364 83.431 157.282 83.0983 157.118 82.8203C156.954 82.5423 156.715 82.3304 156.4 82.1846C156.086 82.0342 155.701 81.959 155.245 81.959C154.821 81.959 154.441 82.0342 154.104 82.1846C153.771 82.3304 153.509 82.5309 153.317 82.7861C153.126 83.0413 153.03 83.3262 153.03 83.6406L152.483 83.6338C152.483 83.3512 152.549 83.0801 152.682 82.8203C152.818 82.5605 153.01 82.3304 153.256 82.1299C153.507 81.9248 153.8 81.763 154.138 81.6445C154.479 81.526 154.853 81.4668 155.259 81.4668C155.778 81.4668 156.236 81.5557 156.633 81.7334C157.034 81.9066 157.346 82.1686 157.569 82.5195C157.793 82.8704 157.904 83.3079 157.904 83.832V87.4824C157.904 87.7467 157.923 88.0133 157.959 88.2822C157.995 88.5511 158.046 88.7676 158.109 88.9316V89H157.515C157.465 88.8268 157.426 88.6149 157.398 88.3643C157.376 88.1136 157.364 87.8721 157.364 87.6396ZM157.542 84.8027L157.556 85.2744H155.751C155.295 85.2744 154.887 85.3177 154.527 85.4043C154.167 85.4909 153.862 85.6139 153.611 85.7734C153.361 85.9329 153.169 86.1221 153.037 86.3408C152.905 86.5596 152.839 86.8057 152.839 87.0791C152.839 87.3617 152.914 87.6214 153.064 87.8584C153.215 88.0954 153.427 88.2845 153.7 88.4258C153.974 88.5625 154.29 88.6309 154.65 88.6309C155.143 88.6309 155.578 88.5465 155.956 88.3779C156.339 88.2048 156.66 87.9723 156.92 87.6807C157.18 87.3844 157.369 87.0426 157.487 86.6553L157.727 87.0518C157.649 87.2933 157.528 87.5371 157.364 87.7832C157.2 88.0293 156.988 88.2549 156.729 88.46C156.469 88.6605 156.163 88.8245 155.812 88.9521C155.462 89.0752 155.063 89.1367 154.616 89.1367C154.147 89.1367 153.737 89.0501 153.386 88.877C153.039 88.6992 152.771 88.4577 152.579 88.1523C152.388 87.8424 152.292 87.4893 152.292 87.0928C152.292 86.751 152.369 86.4388 152.524 86.1562C152.679 85.8737 152.903 85.6322 153.194 85.4316C153.491 85.2266 153.848 85.0716 154.268 84.9668C154.691 84.8574 155.168 84.8027 155.696 84.8027H157.542ZM162.812 88.6377C163.182 88.6377 163.53 88.5693 163.858 88.4326C164.191 88.2959 164.467 88.0885 164.686 87.8105C164.909 87.528 165.034 87.1702 165.062 86.7373H165.595C165.572 87.2295 165.431 87.6556 165.171 88.0156C164.911 88.3711 164.576 88.6468 164.166 88.8428C163.756 89.0387 163.305 89.1367 162.812 89.1367C162.32 89.1367 161.881 89.0456 161.493 88.8633C161.11 88.681 160.789 88.4235 160.529 88.0908C160.27 87.7581 160.071 87.3685 159.935 86.9219C159.802 86.4707 159.736 85.9785 159.736 85.4453V85.1582C159.736 84.625 159.802 84.1351 159.935 83.6885C160.071 83.2373 160.27 82.8454 160.529 82.5127C160.789 82.18 161.108 81.9225 161.486 81.7402C161.869 81.5579 162.307 81.4668 162.799 81.4668C163.296 81.4668 163.751 81.5693 164.166 81.7744C164.581 81.9749 164.916 82.2689 165.171 82.6562C165.431 83.0391 165.572 83.5085 165.595 84.0645H165.062C165.039 83.6087 164.923 83.2259 164.713 82.916C164.503 82.6061 164.23 82.3714 163.893 82.2119C163.555 82.0479 163.191 81.9658 162.799 81.9658C162.361 81.9658 161.983 82.0501 161.664 82.2188C161.345 82.3874 161.083 82.6198 160.878 82.916C160.673 83.2077 160.522 83.5472 160.427 83.9346C160.331 84.3174 160.283 84.7253 160.283 85.1582V85.4453C160.283 85.8828 160.331 86.2952 160.427 86.6826C160.522 87.0654 160.673 87.4027 160.878 87.6943C161.083 87.986 161.345 88.2161 161.664 88.3848C161.988 88.5534 162.37 88.6377 162.812 88.6377ZM162.587 89.0684H163.052L162.977 89.5605C163.273 89.5924 163.542 89.6904 163.783 89.8545C164.029 90.0186 164.152 90.3057 164.152 90.7158C164.152 90.9163 164.107 91.0964 164.016 91.2559C163.929 91.4199 163.799 91.5589 163.626 91.6729C163.457 91.7913 163.252 91.8825 163.011 91.9463C162.769 92.0101 162.493 92.042 162.184 92.042L162.136 91.6318C162.373 91.6318 162.607 91.5999 162.84 91.5361C163.077 91.4723 163.273 91.3721 163.428 91.2354C163.583 91.1032 163.66 90.9323 163.66 90.7227C163.66 90.5312 163.612 90.3809 163.517 90.2715C163.425 90.1667 163.286 90.0869 163.1 90.0322C162.913 89.9775 162.68 89.9388 162.402 89.916L162.587 89.0684ZM171.952 87.6396V83.8184C171.952 83.431 171.87 83.0983 171.706 82.8203C171.542 82.5423 171.303 82.3304 170.988 82.1846C170.674 82.0342 170.289 81.959 169.833 81.959C169.409 81.959 169.029 82.0342 168.691 82.1846C168.359 82.3304 168.097 82.5309 167.905 82.7861C167.714 83.0413 167.618 83.3262 167.618 83.6406L167.071 83.6338C167.071 83.3512 167.137 83.0801 167.27 82.8203C167.406 82.5605 167.598 82.3304 167.844 82.1299C168.094 81.9248 168.388 81.763 168.726 81.6445C169.067 81.526 169.441 81.4668 169.847 81.4668C170.366 81.4668 170.824 81.5557 171.221 81.7334C171.622 81.9066 171.934 82.1686 172.157 82.5195C172.381 82.8704 172.492 83.3079 172.492 83.832V87.4824C172.492 87.7467 172.51 88.0133 172.547 88.2822C172.583 88.5511 172.633 88.7676 172.697 88.9316V89H172.103C172.052 88.8268 172.014 88.6149 171.986 88.3643C171.964 88.1136 171.952 87.8721 171.952 87.6396ZM172.13 84.8027L172.144 85.2744H170.339C169.883 85.2744 169.475 85.3177 169.115 85.4043C168.755 85.4909 168.45 85.6139 168.199 85.7734C167.949 85.9329 167.757 86.1221 167.625 86.3408C167.493 86.5596 167.427 86.8057 167.427 87.0791C167.427 87.3617 167.502 87.6214 167.652 87.8584C167.803 88.0954 168.015 88.2845 168.288 88.4258C168.562 88.5625 168.878 88.6309 169.238 88.6309C169.73 88.6309 170.166 88.5465 170.544 88.3779C170.927 88.2048 171.248 87.9723 171.508 87.6807C171.768 87.3844 171.957 87.0426 172.075 86.6553L172.314 87.0518C172.237 87.2933 172.116 87.5371 171.952 87.7832C171.788 88.0293 171.576 88.2549 171.316 88.46C171.057 88.6605 170.751 88.8245 170.4 88.9521C170.049 89.0752 169.651 89.1367 169.204 89.1367C168.735 89.1367 168.325 89.0501 167.974 88.877C167.627 88.6992 167.358 88.4577 167.167 88.1523C166.976 87.8424 166.88 87.4893 166.88 87.0928C166.88 86.751 166.957 86.4388 167.112 86.1562C167.267 85.8737 167.491 85.6322 167.782 85.4316C168.078 85.2266 168.436 85.0716 168.855 84.9668C169.279 84.8574 169.756 84.8027 170.284 84.8027H172.13ZM171.986 78.8008L172.458 78.8145C172.458 79.0833 172.401 79.3203 172.287 79.5254C172.178 79.7259 172.027 79.8831 171.836 79.9971C171.645 80.1064 171.433 80.1611 171.2 80.1611C170.959 80.1611 170.758 80.1201 170.599 80.0381C170.439 79.9561 170.296 79.8626 170.168 79.7578C170.04 79.653 169.906 79.5596 169.765 79.4775C169.628 79.391 169.462 79.3477 169.266 79.3477C169.042 79.3477 168.853 79.4206 168.698 79.5664C168.543 79.7077 168.466 79.915 168.466 80.1885L167.994 80.1748C167.994 79.9105 168.049 79.6803 168.158 79.4844C168.272 79.2884 168.425 79.1357 168.616 79.0264C168.808 78.917 169.02 78.8623 169.252 78.8623C169.48 78.8623 169.674 78.9033 169.833 78.9854C169.997 79.0674 170.145 79.1631 170.277 79.2725C170.414 79.3773 170.553 79.4707 170.694 79.5527C170.836 79.6348 171 79.6758 171.187 79.6758C171.41 79.6758 171.599 79.5983 171.754 79.4434C171.909 79.2884 171.986 79.0742 171.986 78.8008ZM174.283 85.4316V85.1719C174.283 84.6296 174.361 84.1328 174.516 83.6816C174.675 83.2305 174.898 82.8408 175.186 82.5127C175.473 82.18 175.814 81.9225 176.211 81.7402C176.612 81.5579 177.056 81.4668 177.544 81.4668C178.032 81.4668 178.476 81.5579 178.877 81.7402C179.278 81.9225 179.622 82.18 179.909 82.5127C180.201 82.8408 180.424 83.2305 180.579 83.6816C180.734 84.1328 180.812 84.6296 180.812 85.1719V85.4316C180.812 85.974 180.734 86.4707 180.579 86.9219C180.424 87.373 180.203 87.765 179.916 88.0977C179.629 88.4258 179.285 88.681 178.884 88.8633C178.487 89.0456 178.045 89.1367 177.558 89.1367C177.065 89.1367 176.619 89.0456 176.218 88.8633C175.821 88.681 175.477 88.4258 175.186 88.0977C174.898 87.765 174.675 87.373 174.516 86.9219C174.361 86.4707 174.283 85.974 174.283 85.4316ZM174.83 85.1719V85.4316C174.83 85.86 174.889 86.2679 175.008 86.6553C175.131 87.0381 175.309 87.3799 175.541 87.6807C175.773 87.9769 176.058 88.2116 176.396 88.3848C176.733 88.5534 177.12 88.6377 177.558 88.6377C177.986 88.6377 178.369 88.5534 178.706 88.3848C179.043 88.2116 179.326 87.9769 179.554 87.6807C179.786 87.3799 179.962 87.0381 180.08 86.6553C180.203 86.2679 180.265 85.86 180.265 85.4316V85.1719C180.265 84.7526 180.203 84.3516 180.08 83.9688C179.962 83.5859 179.786 83.2441 179.554 82.9434C179.321 82.6426 179.036 82.4056 178.699 82.2324C178.362 82.0547 177.977 81.9658 177.544 81.9658C177.111 81.9658 176.726 82.0547 176.389 82.2324C176.056 82.4056 175.771 82.6426 175.534 82.9434C175.302 83.2441 175.126 83.5859 175.008 83.9688C174.889 84.3516 174.83 84.7526 174.83 85.1719ZM190.847 87.5645V78.5H191.387V89H190.867L190.847 87.5645ZM185.61 85.3701V85.2266C185.61 84.6478 185.674 84.1283 185.802 83.668C185.929 83.2031 186.114 82.8089 186.355 82.4854C186.597 82.1572 186.891 81.9066 187.237 81.7334C187.588 81.5557 187.985 81.4668 188.427 81.4668C188.841 81.4668 189.211 81.5329 189.534 81.665C189.858 81.7926 190.138 81.9772 190.375 82.2188C190.612 82.4557 190.806 82.736 190.956 83.0596C191.111 83.3786 191.225 83.7318 191.298 84.1191V86.6689C191.243 87.0107 191.141 87.332 190.99 87.6328C190.844 87.929 190.651 88.1911 190.409 88.4189C190.172 88.6423 189.887 88.8177 189.555 88.9453C189.222 89.0729 188.841 89.1367 188.413 89.1367C187.976 89.1367 187.584 89.0456 187.237 88.8633C186.891 88.681 186.597 88.4235 186.355 88.0908C186.114 87.7581 185.929 87.3617 185.802 86.9014C185.674 86.4411 185.61 85.9307 185.61 85.3701ZM186.164 85.2266V85.3701C186.164 85.8395 186.21 86.2725 186.301 86.6689C186.396 87.0654 186.538 87.4095 186.725 87.7012C186.916 87.9928 187.155 88.2207 187.442 88.3848C187.734 88.5488 188.076 88.6309 188.468 88.6309C188.969 88.6309 189.393 88.5397 189.739 88.3574C190.086 88.1751 190.361 87.9336 190.566 87.6328C190.776 87.332 190.922 86.9993 191.004 86.6348V84.2217C190.954 83.9893 190.874 83.7432 190.765 83.4834C190.66 83.2191 190.512 82.973 190.32 82.7451C190.133 82.5173 189.89 82.3327 189.589 82.1914C189.288 82.0456 188.919 81.9727 188.481 81.9727C188.085 81.9727 187.741 82.0547 187.449 82.2188C187.162 82.3828 186.923 82.6107 186.731 82.9023C186.54 83.194 186.396 83.5381 186.301 83.9346C186.21 84.3311 186.164 84.7617 186.164 85.2266ZM196.397 89.1367C195.933 89.1367 195.502 89.0479 195.105 88.8701C194.709 88.6878 194.363 88.4349 194.066 88.1113C193.77 87.7832 193.538 87.3958 193.369 86.9492C193.205 86.5026 193.123 86.0127 193.123 85.4795V85.1787C193.123 84.6273 193.205 84.126 193.369 83.6748C193.538 83.2191 193.766 82.8271 194.053 82.499C194.34 82.1663 194.67 81.9111 195.044 81.7334C195.422 81.5557 195.826 81.4668 196.254 81.4668C196.687 81.4668 197.079 81.5465 197.43 81.7061C197.781 81.8656 198.081 82.0889 198.332 82.376C198.583 82.6631 198.774 83.0049 198.906 83.4014C199.038 83.7979 199.104 84.2354 199.104 84.7139V85.1719H193.465V84.6729H198.564V84.584C198.56 84.1191 198.464 83.6885 198.277 83.292C198.095 82.8955 197.833 82.5765 197.491 82.335C197.149 82.0889 196.737 81.9658 196.254 81.9658C195.867 81.9658 195.513 82.0479 195.194 82.2119C194.88 82.376 194.609 82.6038 194.381 82.8955C194.153 83.1826 193.978 83.5221 193.854 83.9141C193.731 84.3014 193.67 84.723 193.67 85.1787V85.4795C193.67 85.917 193.738 86.3271 193.875 86.71C194.012 87.0928 194.203 87.43 194.449 87.7217C194.695 88.0088 194.985 88.2344 195.317 88.3984C195.65 88.5625 196.015 88.6445 196.411 88.6445C196.84 88.6445 197.231 88.5693 197.587 88.4189C197.942 88.2686 198.266 88.0042 198.558 87.626L198.913 87.8926C198.749 88.1296 198.551 88.3415 198.318 88.5283C198.086 88.7152 197.81 88.8633 197.491 88.9727C197.177 89.082 196.812 89.1367 196.397 89.1367ZM206.768 88.6377C207.137 88.6377 207.485 88.5693 207.813 88.4326C208.146 88.2959 208.422 88.0885 208.641 87.8105C208.864 87.528 208.989 87.1702 209.017 86.7373H209.55C209.527 87.2295 209.386 87.6556 209.126 88.0156C208.866 88.3711 208.531 88.6468 208.121 88.8428C207.711 89.0387 207.26 89.1367 206.768 89.1367C206.275 89.1367 205.836 89.0456 205.448 88.8633C205.065 88.681 204.744 88.4235 204.484 88.0908C204.225 87.7581 204.026 87.3685 203.89 86.9219C203.757 86.4707 203.691 85.9785 203.691 85.4453V85.1582C203.691 84.625 203.757 84.1351 203.89 83.6885C204.026 83.2373 204.225 82.8454 204.484 82.5127C204.744 82.18 205.063 81.9225 205.441 81.7402C205.824 81.5579 206.262 81.4668 206.754 81.4668C207.251 81.4668 207.706 81.5693 208.121 81.7744C208.536 81.9749 208.871 82.2689 209.126 82.6562C209.386 83.0391 209.527 83.5085 209.55 84.0645H209.017C208.994 83.6087 208.878 83.2259 208.668 82.916C208.458 82.6061 208.185 82.3714 207.848 82.2119C207.51 82.0479 207.146 81.9658 206.754 81.9658C206.316 81.9658 205.938 82.0501 205.619 82.2188C205.3 82.3874 205.038 82.6198 204.833 82.916C204.628 83.2077 204.478 83.5472 204.382 83.9346C204.286 84.3174 204.238 84.7253 204.238 85.1582V85.4453C204.238 85.8828 204.286 86.2952 204.382 86.6826C204.478 87.0654 204.628 87.4027 204.833 87.6943C205.038 87.986 205.3 88.2161 205.619 88.3848C205.943 88.5534 206.326 88.6377 206.768 88.6377ZM210.801 85.4316V85.1719C210.801 84.6296 210.878 84.1328 211.033 83.6816C211.193 83.2305 211.416 82.8408 211.703 82.5127C211.99 82.18 212.332 81.9225 212.729 81.7402C213.13 81.5579 213.574 81.4668 214.062 81.4668C214.549 81.4668 214.993 81.5579 215.395 81.7402C215.796 81.9225 216.14 82.18 216.427 82.5127C216.718 82.8408 216.942 83.2305 217.097 83.6816C217.252 84.1328 217.329 84.6296 217.329 85.1719V85.4316C217.329 85.974 217.252 86.4707 217.097 86.9219C216.942 87.373 216.721 87.765 216.434 88.0977C216.146 88.4258 215.802 88.681 215.401 88.8633C215.005 89.0456 214.563 89.1367 214.075 89.1367C213.583 89.1367 213.136 89.0456 212.735 88.8633C212.339 88.681 211.995 88.4258 211.703 88.0977C211.416 87.765 211.193 87.373 211.033 86.9219C210.878 86.4707 210.801 85.974 210.801 85.4316ZM211.348 85.1719V85.4316C211.348 85.86 211.407 86.2679 211.525 86.6553C211.648 87.0381 211.826 87.3799 212.059 87.6807C212.291 87.9769 212.576 88.2116 212.913 88.3848C213.25 88.5534 213.638 88.6377 214.075 88.6377C214.504 88.6377 214.886 88.5534 215.224 88.3848C215.561 88.2116 215.843 87.9769 216.071 87.6807C216.304 87.3799 216.479 87.0381 216.598 86.6553C216.721 86.2679 216.782 85.86 216.782 85.4316V85.1719C216.782 84.7526 216.721 84.3516 216.598 83.9688C216.479 83.5859 216.304 83.2441 216.071 82.9434C215.839 82.6426 215.554 82.4056 215.217 82.2324C214.88 82.0547 214.494 81.9658 214.062 81.9658C213.629 81.9658 213.243 82.0547 212.906 82.2324C212.574 82.4056 212.289 82.6426 212.052 82.9434C211.819 83.2441 211.644 83.5859 211.525 83.9688C211.407 84.3516 211.348 84.7526 211.348 85.1719ZM219.626 83.1826V89H219.086V81.6035H219.619L219.626 83.1826ZM219.523 84.7344L219.257 84.4199C219.298 84.028 219.394 83.6543 219.544 83.2988C219.699 82.9434 219.902 82.6289 220.152 82.3555C220.408 82.082 220.704 81.8656 221.041 81.7061C221.383 81.5465 221.759 81.4668 222.169 81.4668C222.538 81.4668 222.868 81.5192 223.16 81.624C223.452 81.7243 223.698 81.8838 223.898 82.1025C224.104 82.3213 224.258 82.6038 224.363 82.9502C224.468 83.292 224.521 83.709 224.521 84.2012V89H223.98V84.2012C223.98 83.6178 223.901 83.1667 223.741 82.8477C223.582 82.5241 223.358 82.2962 223.071 82.1641C222.789 82.0319 222.458 81.9658 222.08 81.9658C221.643 81.9658 221.264 82.0638 220.945 82.2598C220.631 82.4512 220.371 82.695 220.166 82.9912C219.961 83.2829 219.804 83.5859 219.694 83.9004C219.59 84.2148 219.533 84.4928 219.523 84.7344ZM229.395 81.6035V82.0957H225.854V81.6035H229.395ZM227.221 79.6484H227.768V87.2158C227.768 87.6123 227.815 87.9131 227.911 88.1182C228.011 88.3187 228.141 88.4554 228.301 88.5283C228.465 88.5967 228.64 88.6309 228.827 88.6309C228.959 88.6309 229.08 88.624 229.189 88.6104C229.303 88.5967 229.417 88.5807 229.531 88.5625L229.579 89.041C229.479 89.0729 229.349 89.0957 229.189 89.1094C229.03 89.1276 228.889 89.1367 228.766 89.1367C228.456 89.1367 228.185 89.0798 227.952 88.9658C227.72 88.8519 227.54 88.6559 227.412 88.3779C227.285 88.0954 227.221 87.708 227.221 87.2158V79.6484ZM235.813 87.6396V83.8184C235.813 83.431 235.731 83.0983 235.567 82.8203C235.403 82.5423 235.164 82.3304 234.85 82.1846C234.535 82.0342 234.15 81.959 233.694 81.959C233.271 81.959 232.89 82.0342 232.553 82.1846C232.22 82.3304 231.958 82.5309 231.767 82.7861C231.575 83.0413 231.479 83.3262 231.479 83.6406L230.933 83.6338C230.933 83.3512 230.999 83.0801 231.131 82.8203C231.268 82.5605 231.459 82.3304 231.705 82.1299C231.956 81.9248 232.25 81.763 232.587 81.6445C232.929 81.526 233.302 81.4668 233.708 81.4668C234.228 81.4668 234.686 81.5557 235.082 81.7334C235.483 81.9066 235.795 82.1686 236.019 82.5195C236.242 82.8704 236.354 83.3079 236.354 83.832V87.4824C236.354 87.7467 236.372 88.0133 236.408 88.2822C236.445 88.5511 236.495 88.7676 236.559 88.9316V89H235.964C235.914 88.8268 235.875 88.6149 235.848 88.3643C235.825 88.1136 235.813 87.8721 235.813 87.6396ZM235.991 84.8027L236.005 85.2744H234.2C233.744 85.2744 233.337 85.3177 232.977 85.4043C232.617 85.4909 232.311 85.6139 232.061 85.7734C231.81 85.9329 231.618 86.1221 231.486 86.3408C231.354 86.5596 231.288 86.8057 231.288 87.0791C231.288 87.3617 231.363 87.6214 231.514 87.8584C231.664 88.0954 231.876 88.2845 232.149 88.4258C232.423 88.5625 232.74 88.6309 233.1 88.6309C233.592 88.6309 234.027 88.5465 234.405 88.3779C234.788 88.2048 235.109 87.9723 235.369 87.6807C235.629 87.3844 235.818 87.0426 235.937 86.6553L236.176 87.0518C236.098 87.2933 235.978 87.5371 235.813 87.7832C235.649 88.0293 235.438 88.2549 235.178 88.46C234.918 88.6605 234.613 88.8245 234.262 88.9521C233.911 89.0752 233.512 89.1367 233.065 89.1367C232.596 89.1367 232.186 89.0501 231.835 88.877C231.489 88.6992 231.22 88.4577 231.028 88.1523C230.837 87.8424 230.741 87.4893 230.741 87.0928C230.741 86.751 230.819 86.4388 230.974 86.1562C231.129 85.8737 231.352 85.6322 231.644 85.4316C231.94 85.2266 232.298 85.0716 232.717 84.9668C233.141 84.8574 233.617 84.8027 234.146 84.8027H235.991Z" fill="black"/>
<path d="M116.757 122.383L112.068 135H111.29L116.241 121.821H116.847L116.757 122.383ZM121.192 135L116.512 122.383L116.422 121.821H117.019L121.979 135H121.192ZM120.033 130.483V131.162H113.272V130.483H120.033Z" fill="black"/>
</g>
</svg>
