<svg width="566" height="296" viewBox="0 0 566 296" fill="none" xmlns="http://www.w3.org/2000/svg">
<g opacity="0.8" clip-path="url(#clip0_725_7858)">
<rect width="566" height="295.047" fill="white"/>
<path d="M527.417 288.238C526.687 290.126 525.778 291.94 524.702 293.655C524.403 294.128 524.089 294.595 523.755 295.047H496.019C495.825 294.901 495.637 294.748 495.441 294.602C494.467 294.525 493.499 294.428 492.552 294.323C492.65 294.24 492.754 294.156 492.852 294.073C492.35 294.115 491.849 294.156 491.348 294.177C491.745 294.226 492.149 294.275 492.552 294.323C492.253 294.567 491.947 294.811 491.634 295.047H490.422L491.237 294.177C490.589 294.198 489.949 294.212 489.301 294.198L491.327 293.655L493.513 293.07C493.597 293.14 493.687 293.209 493.771 293.279C497.502 290 500.535 286.004 502.691 281.53C504.847 277.055 506.081 272.192 506.32 267.231C506.559 262.27 505.798 257.311 504.083 252.65C502.367 247.988 499.731 243.72 496.333 240.097C501.803 243.768 506.489 248.491 510.116 253.99C513.744 259.489 516.241 265.655 517.462 272.129C518.09 275.293 518.184 278.541 517.741 281.736C517.984 281.465 518.228 281.193 518.464 280.915C521.991 276.643 524.532 271.647 525.909 266.282C527.286 260.916 527.463 255.313 526.429 249.872C529.129 255.882 530.607 262.369 530.777 268.956C530.946 275.542 529.804 282.097 527.417 288.238Z" fill="#E6E6E6"/>
<path d="M389.058 55.3923C399.856 55.3923 408.609 46.6394 408.609 35.8421C408.609 25.0449 399.856 16.292 389.058 16.292C378.261 16.292 369.508 25.0449 369.508 35.8421C369.508 46.6394 378.261 55.3923 389.058 55.3923Z" fill="#2F2E41"/>
<path d="M452.456 286.899L443.921 286.898L439.86 253.977L452.458 253.977L452.456 286.899Z" fill="#FFB8B8"/>
<path d="M437.825 284.459H454.286V294.823H427.461C427.461 293.462 427.729 292.114 428.25 290.857C428.771 289.599 429.534 288.457 430.496 287.495C431.459 286.532 432.601 285.769 433.859 285.248C435.116 284.727 436.464 284.459 437.825 284.459Z" fill="#2F2E41"/>
<path d="M365.39 285.781L357.149 283.559L361.798 250.715L373.96 253.995L365.39 285.781Z" fill="#FFB8B8"/>
<path d="M351.898 279.617L367.791 283.902L365.093 293.909L339.193 286.926C339.909 284.272 341.649 282.011 344.032 280.64C346.414 279.269 349.244 278.901 351.898 279.617Z" fill="#2F2E41"/>
<path d="M381.564 134.57L356.149 278.589L369.182 281.196L410.238 179.535L440.866 280.544L456.506 278.589C456.506 278.589 449.338 133.918 426.529 121.537L381.564 134.57Z" fill="#2F2E41"/>
<path d="M341.258 186.091C342.174 185.635 342.98 184.983 343.617 184.182C344.254 183.382 344.708 182.451 344.947 181.456C345.186 180.46 345.203 179.425 344.998 178.422C344.794 177.419 344.371 176.474 343.762 175.652L357.778 155.098L344.852 154.897L333.523 174.446C332.21 175.562 331.352 177.121 331.112 178.827C330.871 180.534 331.265 182.269 332.219 183.704C333.172 185.139 334.619 186.175 336.285 186.615C337.951 187.055 339.721 186.868 341.258 186.091Z" fill="#FFB8B8"/>
<path d="M433.795 160.675C434.712 160.219 435.517 159.568 436.154 158.767C436.791 157.966 437.245 157.035 437.484 156.04C437.723 155.045 437.74 154.009 437.535 153.007C437.331 152.004 436.909 151.058 436.299 150.236L450.315 129.683L437.389 129.482L426.06 149.031C424.747 150.147 423.889 151.706 423.649 153.412C423.409 155.118 423.802 156.853 424.756 158.289C425.709 159.724 427.156 160.76 428.822 161.199C430.488 161.639 432.258 161.453 433.795 160.675Z" fill="#FFB8B8"/>
<path d="M389.556 59.2631C399 59.2631 406.655 51.6076 406.655 42.164C406.655 32.7205 399 25.0649 389.556 25.0649C380.113 25.0649 372.457 32.7205 372.457 42.164C372.457 51.6076 380.113 59.2631 389.556 59.2631Z" fill="#FFB8B8"/>
<path d="M426.529 68.7514C425.878 66.1447 414.799 66.7964 414.799 66.7964C414.799 66.7964 402.325 63.9285 402.443 64.2871C391.93 63.4779 379.107 67.4245 377.239 68.0231C373.418 69.0773 366.117 72.302 360.852 74.6739C360.12 75.0041 359.547 75.6103 359.259 76.3607C358.97 77.111 358.99 77.9448 359.313 78.6807L375.373 115.346L377.654 139.132L430.439 122.84C417.406 117.627 427.181 71.3581 426.529 68.7514Z" fill="#F9A826"/>
<path d="M421.968 69.4031L426.3 68.3149L449.989 115.02L451.293 141.739L436.304 130.009V119.582L420.665 99.3802L421.968 69.4031Z" fill="#F9A826"/>
<path d="M364.947 72.9873L359.93 75.2168C359.669 75.3329 359.44 75.5115 359.264 75.7368C359.088 75.962 358.971 76.2271 358.921 76.5087L348.981 133.267L339.206 161.94L352.239 168.457L367.227 132.615L372.441 106.548L364.947 72.9873Z" fill="#F9A826"/>
<path d="M371.625 34.1035C375.095 32.9639 378.756 34.7504 382.146 36.1103C385.487 37.4506 389.057 38.4165 392.651 38.2054C396.245 37.9942 399.879 36.4765 402.052 33.6061C404.225 30.7357 404.607 26.4338 402.456 23.5469C401.041 21.6464 398.781 20.5621 396.519 19.856C391.686 18.3474 386.276 18.2952 381.681 20.4236C377.087 22.552 373.484 27.0483 373.105 32.0977" fill="#2F2E41"/>
<path d="M388.537 20.4828C387.372 12.5908 391.695 4.39673 397.595 1.45728C403.495 -1.48216 410.417 0.251841 415.732 4.62905C421.048 9.00625 424.922 15.7327 427.806 22.883C430.69 30.0332 432.687 37.6917 435.037 45.1489C437.124 51.7718 439.573 58.3987 443.537 63.4639C447.5 68.5292 453.264 71.8253 458.787 70.4335C454.25 76.534 445.903 75.4777 440.724 70.2597C435.546 65.0416 432.854 56.8858 430.735 48.9469C428.616 41.0079 426.772 32.7012 422.673 26.1224C415.38 14.4184 401.069 10.9022 390.849 18.3032" fill="#2F2E41"/>
<path d="M566 293.654H0V295.047H566V293.654Z" fill="#3F3D56"/>
<path d="M296.951 160.062H49.9277C47.9498 160.06 46.0534 159.273 44.6548 157.874C43.2561 156.476 42.4694 154.579 42.4673 152.601V93.7466C42.4694 91.7686 43.2562 89.8723 44.6548 88.4736C46.0534 87.075 47.9498 86.2883 49.9277 86.2861H296.951C298.929 86.2883 300.826 87.075 302.224 88.4736C303.623 89.8723 304.41 91.7686 304.412 93.7466V152.601C304.41 154.579 303.623 156.476 302.224 157.874C300.826 159.273 298.929 160.06 296.951 160.062ZM49.9277 87.944C48.3894 87.9459 46.9145 88.5578 45.8268 89.6456C44.739 90.7334 44.127 92.2082 44.1252 93.7466V152.601C44.127 154.14 44.739 155.614 45.8268 156.702C46.9145 157.79 48.3894 158.402 49.9277 158.404H296.951C298.49 158.402 299.965 157.79 301.052 156.702C302.14 155.614 302.752 154.14 302.754 152.601V93.7466C302.752 92.2082 302.14 90.7334 301.052 89.6456C299.965 88.5578 298.49 87.9459 296.951 87.944H49.9277Z" fill="#3F3D56"/>
<path d="M284.816 147.628H61.8313C61.7223 147.628 61.6142 147.607 61.5134 147.566C61.4125 147.524 61.3209 147.463 61.2436 147.386C61.1664 147.309 61.1051 147.218 61.0633 147.117C61.0215 147.016 61 146.908 61 146.799C61 146.69 61.0215 146.582 61.0633 146.481C61.1051 146.381 61.1664 146.289 61.2436 146.212C61.3209 146.135 61.4125 146.074 61.5134 146.033C61.6142 145.991 61.7223 145.97 61.8313 145.97H284.816C284.925 145.97 285.033 145.991 285.134 146.033C285.235 146.074 285.326 146.135 285.404 146.212C285.481 146.289 285.542 146.381 285.584 146.481C285.626 146.582 285.647 146.69 285.647 146.799C285.647 146.908 285.626 147.016 285.584 147.117C285.542 147.218 285.481 147.309 285.404 147.386C285.326 147.463 285.235 147.524 285.134 147.566C285.033 147.607 284.925 147.628 284.816 147.628Z" fill="#E6E6E6"/>
<path d="M75.2582 119.329L67.7177 139.622H66.4658L74.4284 118.427H75.4037L75.2582 119.329ZM82.391 139.622L74.8651 119.329L74.7196 118.427H75.6803L83.6575 139.622H82.391ZM80.5278 132.358V133.449H69.6538V132.358H80.5278ZM88.141 118.427V139.622H86.9619V118.427H88.141ZM101.446 118.427L92.1005 128.034L87.6897 132.198L87.7043 130.786L91.3726 127.103L99.8738 118.427H101.446ZM100.674 139.622L91.1106 128.413L91.8239 127.423L102.145 139.622H100.674ZM115.508 133.231V118.427H116.687V133.231C116.687 134.667 116.415 135.885 115.872 136.885C115.328 137.884 114.586 138.641 113.645 139.156C112.713 139.66 111.655 139.913 110.471 139.913C109.21 139.913 108.113 139.69 107.181 139.243C106.25 138.797 105.527 138.122 105.012 137.22C104.498 136.307 104.241 135.162 104.241 133.784H105.42C105.42 134.881 105.609 135.808 105.988 136.565C106.376 137.312 106.944 137.88 107.691 138.268C108.448 138.646 109.375 138.836 110.471 138.836C111.393 138.836 112.233 138.627 112.99 138.21C113.756 137.783 114.368 137.157 114.824 136.332C115.28 135.497 115.508 134.464 115.508 133.231ZM135.713 133.086H136.892C136.746 134.57 136.348 135.822 135.698 136.841C135.048 137.85 134.175 138.617 133.078 139.141C131.991 139.656 130.71 139.913 129.235 139.913C128.061 139.913 126.993 139.69 126.033 139.243C125.081 138.787 124.261 138.146 123.572 137.322C122.893 136.487 122.369 135.492 122 134.337C121.631 133.183 121.447 131.906 121.447 130.509V127.539C121.447 126.132 121.631 124.856 122 123.711C122.369 122.556 122.893 121.566 123.572 120.741C124.261 119.907 125.086 119.266 126.047 118.82C127.018 118.364 128.1 118.136 129.293 118.136C130.739 118.136 132.006 118.393 133.093 118.907C134.18 119.422 135.048 120.188 135.698 121.207C136.348 122.216 136.746 123.463 136.892 124.948H135.713C135.567 123.716 135.232 122.677 134.708 121.833C134.194 120.979 133.486 120.329 132.583 119.882C131.681 119.436 130.584 119.213 129.293 119.213C128.274 119.213 127.357 119.412 126.542 119.81C125.727 120.198 125.028 120.761 124.446 121.498C123.864 122.226 123.412 123.1 123.092 124.119C122.781 125.128 122.626 126.258 122.626 127.51V130.509C122.626 131.741 122.781 132.872 123.092 133.901C123.403 134.92 123.844 135.798 124.417 136.536C124.989 137.263 125.683 137.831 126.498 138.239C127.314 138.637 128.226 138.836 129.235 138.836C130.526 138.836 131.627 138.632 132.539 138.224C133.452 137.807 134.17 137.171 134.694 136.317C135.228 135.463 135.567 134.386 135.713 133.086ZM155.248 138.544V139.622H140.517V138.544H155.248ZM154.782 119.271L140.881 139.622H140.109V138.704L153.982 118.427H154.782V119.271ZM154.244 118.427V119.489H140.604V118.427H154.244Z" fill="black"/>
<path d="M174.609 188.848H176.945C176.898 189.614 176.688 190.293 176.312 190.887C175.943 191.481 175.424 191.944 174.758 192.278C174.096 192.611 173.299 192.778 172.367 192.778C171.638 192.778 170.984 192.653 170.406 192.403C169.828 192.148 169.333 191.783 168.922 191.309C168.516 190.835 168.206 190.262 167.992 189.59C167.779 188.918 167.672 188.166 167.672 187.333V186.543C167.672 185.71 167.781 184.958 168 184.286C168.224 183.609 168.542 183.033 168.953 182.559C169.37 182.085 169.867 181.721 170.445 181.465C171.023 181.21 171.669 181.083 172.383 181.083C173.331 181.083 174.13 181.254 174.781 181.598C175.438 181.942 175.945 182.416 176.305 183.02C176.669 183.624 176.888 184.312 176.961 185.083H174.617C174.591 184.624 174.5 184.236 174.344 183.918C174.188 183.596 173.951 183.353 173.633 183.192C173.32 183.025 172.904 182.942 172.383 182.942C171.992 182.942 171.651 183.015 171.359 183.161C171.068 183.306 170.823 183.528 170.625 183.825C170.427 184.122 170.279 184.497 170.18 184.95C170.086 185.398 170.039 185.924 170.039 186.528V187.333C170.039 187.921 170.083 188.439 170.172 188.887C170.26 189.33 170.396 189.705 170.578 190.012C170.766 190.314 171.005 190.543 171.297 190.7C171.594 190.851 171.951 190.926 172.367 190.926C172.857 190.926 173.26 190.848 173.578 190.692C173.896 190.536 174.138 190.304 174.305 189.997C174.477 189.689 174.578 189.306 174.609 188.848ZM177.984 188.481V188.317C177.984 187.697 178.073 187.127 178.25 186.606C178.427 186.08 178.685 185.624 179.023 185.239C179.362 184.853 179.779 184.554 180.273 184.34C180.768 184.122 181.336 184.012 181.977 184.012C182.617 184.012 183.188 184.122 183.688 184.34C184.188 184.554 184.607 184.853 184.945 185.239C185.289 185.624 185.549 186.08 185.727 186.606C185.904 187.127 185.992 187.697 185.992 188.317V188.481C185.992 189.096 185.904 189.666 185.727 190.192C185.549 190.713 185.289 191.168 184.945 191.559C184.607 191.944 184.19 192.244 183.695 192.458C183.201 192.671 182.633 192.778 181.992 192.778C181.352 192.778 180.781 192.671 180.281 192.458C179.786 192.244 179.367 191.944 179.023 191.559C178.685 191.168 178.427 190.713 178.25 190.192C178.073 189.666 177.984 189.096 177.984 188.481ZM180.234 188.317V188.481C180.234 188.835 180.266 189.166 180.328 189.473C180.391 189.78 180.49 190.051 180.625 190.286C180.766 190.515 180.948 190.694 181.172 190.825C181.396 190.955 181.669 191.02 181.992 191.02C182.305 191.02 182.573 190.955 182.797 190.825C183.021 190.694 183.201 190.515 183.336 190.286C183.471 190.051 183.57 189.78 183.633 189.473C183.701 189.166 183.734 188.835 183.734 188.481V188.317C183.734 187.973 183.701 187.65 183.633 187.348C183.57 187.041 183.469 186.77 183.328 186.536C183.193 186.296 183.013 186.109 182.789 185.973C182.565 185.838 182.294 185.77 181.977 185.77C181.659 185.77 181.388 185.838 181.164 185.973C180.945 186.109 180.766 186.296 180.625 186.536C180.49 186.77 180.391 187.041 180.328 187.348C180.266 187.65 180.234 187.973 180.234 188.317ZM189.625 185.793V195.872H187.375V184.168H189.461L189.625 185.793ZM194.977 188.301V188.465C194.977 189.08 194.904 189.65 194.758 190.176C194.617 190.702 194.409 191.161 194.133 191.551C193.857 191.937 193.513 192.239 193.102 192.458C192.695 192.671 192.227 192.778 191.695 192.778C191.18 192.778 190.732 192.674 190.352 192.465C189.971 192.257 189.651 191.965 189.391 191.59C189.135 191.21 188.93 190.77 188.773 190.27C188.617 189.77 188.497 189.234 188.414 188.661V188.231C188.497 187.616 188.617 187.054 188.773 186.543C188.93 186.028 189.135 185.583 189.391 185.208C189.651 184.827 189.969 184.533 190.344 184.325C190.724 184.116 191.169 184.012 191.68 184.012C192.216 184.012 192.688 184.114 193.094 184.317C193.505 184.52 193.849 184.812 194.125 185.192C194.406 185.572 194.617 186.025 194.758 186.551C194.904 187.077 194.977 187.661 194.977 188.301ZM192.719 188.465V188.301C192.719 187.942 192.688 187.611 192.625 187.309C192.568 187.002 192.474 186.734 192.344 186.504C192.219 186.275 192.052 186.098 191.844 185.973C191.641 185.843 191.393 185.778 191.102 185.778C190.794 185.778 190.531 185.827 190.312 185.926C190.099 186.025 189.924 186.168 189.789 186.356C189.654 186.543 189.552 186.767 189.484 187.028C189.417 187.288 189.375 187.583 189.359 187.911V188.997C189.385 189.382 189.458 189.728 189.578 190.036C189.698 190.338 189.883 190.577 190.133 190.754C190.383 190.931 190.711 191.02 191.117 191.02C191.414 191.02 191.664 190.955 191.867 190.825C192.07 190.689 192.234 190.504 192.359 190.27C192.49 190.036 192.581 189.765 192.633 189.458C192.69 189.15 192.719 188.819 192.719 188.465ZM198.75 184.168V192.622H196.492V184.168H198.75ZM196.352 181.965C196.352 181.637 196.466 181.366 196.695 181.153C196.924 180.939 197.232 180.833 197.617 180.833C197.997 180.833 198.302 180.939 198.531 181.153C198.766 181.366 198.883 181.637 198.883 181.965C198.883 182.293 198.766 182.564 198.531 182.778C198.302 182.991 197.997 183.098 197.617 183.098C197.232 183.098 196.924 182.991 196.695 182.778C196.466 182.564 196.352 182.293 196.352 181.965ZM205.172 190.715V186.95C205.172 186.679 205.128 186.447 205.039 186.254C204.951 186.056 204.812 185.903 204.625 185.793C204.443 185.684 204.206 185.629 203.914 185.629C203.664 185.629 203.448 185.674 203.266 185.762C203.083 185.846 202.943 185.968 202.844 186.129C202.745 186.286 202.695 186.471 202.695 186.684H200.445C200.445 186.325 200.529 185.984 200.695 185.661C200.862 185.338 201.104 185.054 201.422 184.809C201.74 184.559 202.117 184.364 202.555 184.223C202.997 184.083 203.492 184.012 204.039 184.012C204.695 184.012 205.279 184.122 205.789 184.34C206.299 184.559 206.701 184.887 206.992 185.325C207.289 185.762 207.438 186.309 207.438 186.965V190.583C207.438 191.046 207.466 191.426 207.523 191.723C207.581 192.015 207.664 192.27 207.773 192.489V192.622H205.5C205.391 192.392 205.307 192.106 205.25 191.762C205.198 191.413 205.172 191.064 205.172 190.715ZM205.469 187.473L205.484 188.747H204.227C203.93 188.747 203.672 188.78 203.453 188.848C203.234 188.916 203.055 189.012 202.914 189.137C202.773 189.257 202.669 189.398 202.602 189.559C202.539 189.721 202.508 189.898 202.508 190.09C202.508 190.283 202.552 190.458 202.641 190.614C202.729 190.765 202.857 190.885 203.023 190.973C203.19 191.056 203.385 191.098 203.609 191.098C203.948 191.098 204.242 191.03 204.492 190.895C204.742 190.76 204.935 190.593 205.07 190.395C205.211 190.197 205.284 190.01 205.289 189.833L205.883 190.786C205.799 190.999 205.685 191.221 205.539 191.45C205.398 191.679 205.219 191.895 205 192.098C204.781 192.296 204.518 192.46 204.211 192.59C203.904 192.715 203.539 192.778 203.117 192.778C202.581 192.778 202.094 192.671 201.656 192.458C201.224 192.239 200.88 191.939 200.625 191.559C200.375 191.174 200.25 190.736 200.25 190.247C200.25 189.804 200.333 189.411 200.5 189.067C200.667 188.723 200.911 188.434 201.234 188.2C201.562 187.96 201.971 187.78 202.461 187.661C202.951 187.536 203.518 187.473 204.164 187.473H205.469ZM211.422 186.012V192.622H209.172V184.168H211.289L211.422 186.012ZM213.969 184.114L213.93 186.2C213.82 186.184 213.688 186.171 213.531 186.161C213.38 186.145 213.242 186.137 213.117 186.137C212.799 186.137 212.523 186.179 212.289 186.262C212.06 186.34 211.867 186.458 211.711 186.614C211.56 186.77 211.445 186.96 211.367 187.184C211.294 187.408 211.253 187.663 211.242 187.95L210.789 187.809C210.789 187.262 210.844 186.76 210.953 186.301C211.062 185.838 211.221 185.434 211.43 185.09C211.643 184.747 211.904 184.481 212.211 184.293C212.518 184.106 212.87 184.012 213.266 184.012C213.391 184.012 213.518 184.023 213.648 184.043C213.779 184.059 213.885 184.083 213.969 184.114Z" fill="#F6A020"/>
<path d="M167 194.184H214.156V194.965H167V194.184Z" fill="#F6A020"/>
<path d="M151 176.622H141C139.897 176.622 139 177.519 139 178.622V182.622H135C133.897 182.622 133 183.519 133 184.622V194.622C133 195.725 133.897 196.622 135 196.622H145C146.103 196.622 147 195.725 147 194.622V190.622H151C152.103 190.622 153 189.725 153 188.622V178.622C153 177.519 152.103 176.622 151 176.622ZM135 194.622V184.622H145L145.002 194.622H135ZM151 188.622H147V184.622C147 183.519 146.103 182.622 145 182.622H141V178.622H151V188.622Z" fill="#F6A020"/>
</g>
<defs>
<clipPath id="clip0_725_7858">
<rect width="566" height="295.047" fill="white"/>
</clipPath>
</defs>
</svg>
