<svg width="171" height="120" viewBox="0 0 171 120" fill="none" xmlns="http://www.w3.org/2000/svg">
<path d="M25.65 123.108V131.54C25.65 133.869 27.5631 135.756 29.925 135.756H89.775C92.1369 135.756 94.05 133.869 94.05 131.54V41.2276C95.2684 40.7006 96.4333 40.0814 97.5208 39.3515L135.475 51.9016C137.714 52.6421 140.137 51.4511 140.888 49.2456L143.605 41.2513C144.356 39.0432 143.148 36.6533 140.912 35.9129L106.605 24.5695C106.717 23.6947 106.875 22.8305 106.875 21.9267C106.875 10.2856 97.3043 0.847256 85.5 0.847256C77.5672 0.847256 70.7245 5.158 67.0347 11.4845L35.5253 1.06596C33.2862 0.32554 30.8628 1.51653 30.112 3.72196L27.3947 11.7163C26.6439 13.9244 27.8516 16.3143 30.088 17.0547L65.3567 28.7169C67.3019 34.3161 71.4914 38.8719 76.9473 41.2249V118.892H29.925C27.5631 118.892 25.65 120.779 25.65 123.108ZM0 80.9491C0 92.5902 15.3125 102.029 34.2 102.029C53.0875 102.029 68.4 92.5902 68.4 80.9491H68.3947C68.3947 76.8202 68.9504 79.0388 45.6704 33.1225C40.9465 23.8054 27.4428 23.8238 22.727 33.1225C-0.352687 78.6488 0.00534375 76.6858 0.00534375 80.9491H0ZM14.9625 76.7332L34.2 38.7902L53.4375 76.7332H14.9625ZM102.605 114.676H102.6C102.6 126.317 117.913 135.756 136.8 135.756C155.687 135.756 171 126.317 171 114.676H170.995C170.995 110.547 171.55 112.766 148.27 66.8496C143.546 57.5325 130.043 57.5509 125.327 66.8496C102.247 112.376 102.605 110.413 102.605 114.676ZM117.562 110.46L136.8 72.5173L156.038 110.46H117.562Z" fill="#2D5AAC"/>
</svg>
