<svg width="171" height="121" viewBox="0 0 171 121" fill="none" xmlns="http://www.w3.org/2000/svg">
<path d="M25.65 125.156V133.719C25.65 136.084 27.5631 138 29.925 138H89.775C92.1369 138 94.05 136.084 94.05 133.719V42.0062C95.2684 41.471 96.4333 40.8422 97.5208 40.101L135.475 52.8458C137.714 53.5977 140.137 52.3882 140.888 50.1486L143.605 42.0303C144.356 39.788 143.148 37.361 140.912 36.6092L106.605 25.0899C106.717 24.2016 106.875 23.3239 106.875 22.4061C106.875 10.5845 97.3043 0.999862 85.5 0.999862C77.5672 0.999862 70.7245 5.37744 67.0347 11.802L35.5253 1.22195C33.2862 0.470057 30.8628 1.67951 30.112 3.91914L27.3947 12.0375C26.6439 14.2798 27.8516 16.7067 30.088 17.4586L65.3567 29.3016C67.3019 34.9876 71.4914 39.6141 76.9473 42.0035V120.875H29.925C27.5631 120.875 25.65 122.791 25.65 125.156ZM0 82.3436C0 94.1652 15.3125 103.75 34.2 103.75C53.0875 103.75 68.4 94.1652 68.4 82.3436H68.3947C68.3947 78.1507 68.9504 80.4037 45.6704 33.7755C40.9465 24.3139 27.4428 24.3327 22.727 33.7755C-0.352687 80.0076 0.00534375 78.0142 0.00534375 82.3436H0ZM14.9625 78.0624L34.2 39.5311L53.4375 78.0624H14.9625ZM102.605 116.594H102.6C102.6 128.415 117.913 138 136.8 138C155.687 138 171 128.415 171 116.594H170.995C170.995 112.401 171.55 114.654 148.27 68.0255C143.546 58.5639 130.043 58.5827 125.327 68.0255C102.247 114.258 102.605 112.264 102.605 116.594V116.594ZM117.563 112.312L136.8 73.7811L156.038 112.312H117.563Z" fill="#D37E39"/>
</svg>
