<svg width="547" height="761" viewBox="0 0 547 761" fill="none" xmlns="http://www.w3.org/2000/svg">
<path d="M477.79 212.473C496.516 212.473 512.897 205.685 526.502 192.31C540.108 178.906 547 162.474 547 143.488C547 124.502 540.108 108.08 526.502 94.6662C512.897 81.2812 496.516 74.5033 477.79 74.5033C459.065 74.5033 442.825 81.3002 429.594 94.6947C416.364 108.099 409.65 124.512 409.65 143.488C409.65 162.464 416.354 178.887 429.594 192.281C442.825 205.676 459.037 212.473 477.79 212.473Z" fill="#F6A000"/>
<path d="M477.687 284.951C446.997 284.951 433.551 302.38 427.747 316.847C424.231 324.138 422.449 332.112 422.449 340.551L422.468 473.48C420.902 487.482 412.904 520.052 372.659 520.052C323.506 520.052 322.306 471.106 322.287 469.046V56.3814C322.306 55.9068 323.365 8.63221 279.192 1.38914C269.402 -0.803712 259.126 -0.329067 250.461 2.30995C229.101 7.55002 219.64 22.7102 215.505 34.3864C212.73 41.1548 211.323 48.6067 211.323 56.5618V379.595C209.879 393.768 202.106 426.718 161.401 426.718C112.127 426.718 110.973 377.696 110.945 375.636V154.547C110.945 154.367 110.917 150.038 109.726 143.887L109.501 142.776L107.016 143.336L109.389 142.254C109.173 141.286 108.948 140.289 108.676 139.235C108.507 138.59 108.339 137.954 108.151 137.356C103.828 122.461 93.1952 103.798 67.1748 99.4791C59.0077 97.7609 50.3623 97.8558 42.2046 99.7924C26.3955 102.953 14.2245 112.323 7.07942 126.743C2.65361 134.612 0.290678 143.526 0.065637 153.152C0 154.196 0 154.804 0 154.823V722.782C0 743.856 16.9343 761 37.7507 761H499.573C517.932 761 532.869 745.878 532.851 727.566C533.019 726.009 533.132 724.424 533.132 722.782V340.541C533.132 331.124 530.975 322.372 526.784 314.683C520.586 301.117 507.046 284.951 477.678 284.951H477.687Z" fill="#F6A000"/>
</svg>
