<svg xmlns="http://www.w3.org/2000/svg" version="1.1" xmlns:xlink="http://www.w3.org/1999/xlink" xmlns:svgjs="http://svgjs.com/svgjs" width="512" height="512" x="0" y="0" viewBox="0 0 64 64" style="enable-background:new 0 0 512 512" xml:space="preserve" class=""><g><g xmlns="http://www.w3.org/2000/svg" id="failed"><path d="m60 44c0 5.1056-5 10-10 10a10.0472 10.0472 0 0 1 -10-9h-34a2 2 0 0 1 -2-2v-31a2 2 0 0 1 2-2h42a2 2 0 0 1 2 2v22a10.2774 10.2774 0 0 1 10 10z" fill="#fafafa" data-original="#fafafa" class=""></path><path d="m44 18a4 4 0 1 1 -4-4 4 4 0 0 1 4 4z" fill="#e0e0e0" data-original="#e0e0e0"></path><path d="m5.3189 43.3708 14.8882-18.3913a1 1 0 0 1 1.5666.0153l6.2263 8.0052 6.2547-6.2547a1 1 0 0 1 1.45.0381l8.2953 9.2166s-4 2-4 9h-34a.9694.9694 0 0 1 -.6811-1.6292z" fill="#e0e0e0" data-original="#e0e0e0"></path><path d="m54.707 40.707-3.2929 3.293 3.293 3.293a1 1 0 1 1 -1.4141 1.414l-3.293-3.2929-3.293 3.293a1 1 0 0 1 -1.414-1.4141l3.2929-3.293-3.293-3.293a1 1 0 0 1 1.4141-1.414l3.293 3.2929 3.293-3.293a1 1 0 0 1 1.414 1.4141zm6.293 3.293a10.9958 10.9958 0 0 1 -21.8089 2h-33.1911a3.0033 3.0033 0 0 1 -3-3v-31a3.0033 3.0033 0 0 1 3-3h42a3.0033 3.0033 0 0 1 3 3v21.0507a11.0113 11.0113 0 0 1 10 10.9493zm-56-32v30.4l14.3931-17.9918a2.0061 2.0061 0 0 1 1.6162-.75 1.9839 1.9839 0 0 1 1.5732.8369l5.42 7.0887 5.5008-5.5008a2.0007 2.0007 0 0 1 2.9756.1641l7.6848 8.446a10.9108 10.9108 0 0 1 4.8363-1.6424v-21.0507a1.001 1.001 0 0 0 -1-1h-42a1.0013 1.0013 0 0 0 -1 1zm15.9741 13.6836-14.6924 18.3164h28.6946zm18.0259 18.3164a10.9607 10.9607 0 0 1 3.5689-8.0867l-7.6109-8.3679-5.7273 5.6454 8.2641 10.8092zm20 0a9 9 0 1 0 -9 9 9.01 9.01 0 0 0 9-9zm-24-26a5 5 0 1 1 5 5 5.0059 5.0059 0 0 1 -5-5zm2 0a3 3 0 1 0 3-3 3.0033 3.0033 0 0 0 -3 3z" fill="#9e9e9e" data-original="#9e9e9e" class=""></path></g></g></svg>