<svg width="169" height="121" viewBox="0 0 169 121" fill="none" xmlns="http://www.w3.org/2000/svg">
<path d="M23.65 125.156V133.719C23.65 136.084 25.5631 138 27.925 138H87.775C90.1369 138 92.05 136.084 92.05 133.719V42.0063C93.2684 41.4711 94.4333 40.8423 95.5208 40.1011L133.475 52.8459C135.714 53.5977 138.137 52.3883 138.888 50.1487L141.605 42.0303C142.356 39.788 141.148 37.3611 138.912 36.6092L104.605 25.09C104.717 24.2016 104.875 23.324 104.875 22.4062C104.875 10.5846 95.3043 0.999923 83.5 0.999923C75.5672 0.999923 68.7245 5.3775 65.0347 11.802L33.5253 1.22201C31.2862 0.470118 28.8628 1.67957 28.112 3.9192L25.3947 12.0375C24.6439 14.2798 25.8516 16.7068 28.088 17.4587L63.3567 29.3017C65.3019 34.9877 69.4914 39.6141 74.9473 42.0036V120.875H27.925C25.5631 120.875 23.65 122.791 23.65 125.156ZM-2 82.3437C-2 94.1653 13.3125 103.75 32.2 103.75C51.0875 103.75 66.4 94.1653 66.4 82.3437H66.3947C66.3947 78.1507 66.9504 80.4037 43.6704 33.7756C38.9465 24.314 25.4428 24.3327 20.727 33.7756C-2.35269 80.0077 -1.99466 78.0143 -1.99466 82.3437H-2ZM12.9625 78.0624L32.2 39.5312L51.4375 78.0624H12.9625ZM100.605 116.594H100.6C100.6 128.415 115.913 138 134.8 138C153.687 138 169 128.415 169 116.594H168.995C168.995 112.401 169.55 114.654 146.27 68.0256C141.546 58.564 128.043 58.5827 123.327 68.0256C100.247 114.258 100.605 112.264 100.605 116.594ZM115.562 112.312L134.8 73.7812L154.038 112.312H115.562Z" fill="#2E984F"/>
</svg>
