<svg width="126" height="94" viewBox="0 0 126 94" fill="none" xmlns="http://www.w3.org/2000/svg">
<path d="M81.9 62.6667H91.35C92.925 62.6667 94.5 61.1 94.5 59.5333V26.6333C94.5 25.0667 92.925 23.5 91.35 23.5H81.9C80.325 23.5 78.75 25.0667 78.75 26.6333V59.5333C78.75 61.1 80.325 62.6667 81.9 62.6667ZM105.525 62.6667H114.975C116.55 62.6667 118.125 61.1 118.125 59.5333V3.13333C118.125 1.56667 116.55 0 114.975 0H105.525C103.95 0 102.375 1.56667 102.375 3.13333V59.5333C102.375 61.1 103.95 62.6667 105.525 62.6667ZM34.65 62.6667H44.1C45.675 62.6667 47.25 61.1 47.25 59.5333V42.3C47.25 40.7333 45.675 39.1667 44.1 39.1667H34.65C33.075 39.1667 31.5 40.7333 31.5 42.3V59.5333C31.5 61.1 33.075 62.6667 34.65 62.6667ZM58.275 62.6667H67.725C69.3 62.6667 70.875 61.1 70.875 59.5333V10.9667C70.875 9.4 69.3 7.83333 67.725 7.83333H58.275C56.7 7.83333 55.125 9.4 55.125 10.9667V59.5333C55.125 61.1 56.7 62.6667 58.275 62.6667ZM122.062 78.3333H15.75V3.91667C15.75 1.75271 13.988 0 11.8125 0H3.9375C1.76203 0 0 1.75271 0 3.91667V86.1667C0 90.4921 3.52652 94 7.875 94H122.062C124.238 94 126 92.2473 126 90.0833V82.25C126 80.086 124.238 78.3333 122.062 78.3333Z" fill="black" fill-opacity="0.07"/>
</svg>
